SplineFontDB: 3.2
FontName: Untitled1
FullName: Untitled1
FamilyName: Untitled1
Weight: Regular
Copyright: Copyright (c) 2023, Simao Nery
UComments: "2023-11-29: Created with FontForge (http://fontforge.org)"
Version: 001.000
ItalicAngle: 0
UnderlinePosition: -100
UnderlineWidth: 50
Ascent: 800
Descent: 200
InvalidEm: 0
LayerCount: 2
Layer: 0 0 "Back" 1
Layer: 1 0 "Fore" 0
XUID: [1021 361 1282447125 13495860]
StyleMap: 0x0000
FSType: 0
OS2Version: 0
OS2_WeightWidthSlopeOnly: 0
OS2_UseTypoMetrics: 1
CreationTime: 1701298503
ModificationTime: 1701915250
OS2TypoAscent: 0
OS2TypoAOffset: 1
OS2TypoDescent: 0
OS2TypoDOffset: 1
OS2TypoLinegap: 90
OS2WinAscent: 0
OS2WinAOffset: 1
OS2WinDescent: 0
OS2WinDOffset: 1
HheadAscent: 0
HheadAOffset: 1
HheadDescent: 0
HheadDOffset: 1
OS2Vendor: 'PfEd'
DEI: 91125
Encoding: ISO8859-1
UnicodeInterp: none
NameList: AGL For New Fonts
DisplaySize: -48
AntiAlias: 1
FitToEm: 0
WinInfo: 0 37 14
Grid
271 1300 m 0
 271 -700 l 1024
EndSplineSet
BeginChars: 256 256

StartChar: Y
Encoding: 89 89 1
Width: 1300
Flags: W
HStem: 273 25<650.697 752.697> 300 54<536.334 765.794> 300 2<511.697 585.697> 376 124<607.574 679.821> 751.662 20G<637.874 663.346>
VStem: 511.697 74<250 302> 595.697 96<386.652 489.348> 750.697 50<176 260>
LayerCount: 2
Fore
SplineSet
750.697265625 176 m 5x9f
 750.697265625 260 l 5
 800.697265625 260 l 5
 800.697265625 176 l 5
 750.697265625 176 l 5x9f
542.697265625 176 m 5
 542.697265625 207 l 5
 650.697265625 207 l 5
 650.697265625 176 l 5
 542.697265625 176 l 5
650.697265625 298 m 5
 752.697265625 298 l 5
 752.697265625 273 l 5
 650.697265625 273 l 5
 650.697265625 298 l 5
511.697265625 302 m 5xbf
 585.697265625 302 l 5
 585.697265625 250 l 5
 511.697265625 250 l 5
 511.697265625 302 l 5xbf
511.697265625 302 m 1053
490.697265625 300 m 5
 490.697265625 176 l 5
 826.697265625 176 l 5
 826.697265625 300 l 5
 534.697265625 300 l 5
 490.697265625 300 l 5
595.697265625 438 m 4
 595.697265625 472 617.697265625 500 643.697265625 500 c 4
 669.697265625 500 691.697265625 472 691.697265625 438 c 4
 691.697265625 404 669.697265625 376 643.697265625 376 c 4
 617.697265625 376 595.697265625 404 595.697265625 438 c 4
474.697265625 444 m 4
 474.697265625 394 554.697265625 354 652.697265625 354 c 4xdf
 750.697265625 354 830.697265625 396 830.697265625 446 c 4
 830.697265625 496 750.697265625 536 652.697265625 536 c 4
 554.697265625 536 474.697265625 494 474.697265625 444 c 4
889.697265625 30 m 5
 649.130859375 125.481445312 l 5
 408.110351562 31.15234375 l 5
 424.579101562 289.450195312 l 5
 260.388671875 489.525390625 l 5
 511.1328125 553.680664062 l 5
 650.677734375 771.662109375 l 5
 789.176757812 553.014648438 l 5
 1039.61132812 487.66015625 l 5
 874.46484375 288.373046875 l 5
 889.697265625 30 l 5
EndSplineSet
EndChar

StartChar: X
Encoding: 88 88 2
Width: 1300
Flags: W
HStem: 92 6<509.488 562.473> 98 1<755 846.55> 429 60<547.926 620.942> 495 23<538.835 553.061 747.799 760.95> 538 23<539.506 553.942 747.799 760.95>
VStem: 518 74<98 259> 537 1<522.78 529.228> 554 5<518.852 533.121> 647 15<516.024 539.256> 746 1<524.218 531.782> 761 3<521.611 534.389>
LayerCount: 2
Fore
SplineSet
755 99 m 31x78e0
 720 99 646 46 681 46 c 31
 748 46 778 98 845 98 c 31
 880 98 790 99 755 99 c 31x78e0
754 368 m 29
 755 98 l 29
 850 98 l 29
 829 458 l 29
 754 368 l 29
508 92 m 31xb8e0
 464 92 368 34 412 34 c 31
 485 34 515 98 588 98 c 31x78e0
 619 98 539 92 508 92 c 31xb8e0
744 352 m 1053
510 422 m 29
 516 200 l 29
 518 98 l 29xbce0
 592 98 l 29x7ce0
 582 328 l 29
 510 422 l 29
615 446 m 29
 666 468 l 29
 650 394 l 29
 615 446 l 29
592 364 m 5
 609 417 l 29
 637 367 l 29
 688 375 l 29
 689 425 l 29
 728 390 l 5
 663 370 l 5
 592 364 l 5
747 528 m 4
 747 534 750 538 754 538 c 4
 758 538 761 534 761 528 c 4
 761 522 758 518 754 518 c 4
 750 518 747 522 747 528 c 4
538 526 m 4x3be0
 538 532 542 536 546 536 c 4
 550 536 554 532 554 526 c 4
 554 520 550 516 546 516 c 4
 542 516 538 520 538 526 c 4x3be0
746 528 m 4
 746 508 750 492 755 492 c 4
 760 492 764 508 764 528 c 4
 764 548 760 564 755 564 c 4
 750 564 746 548 746 528 c 4
537 525 m 4
 537 503 542 486 548 486 c 4
 554 486 559 503 559 525 c 4
 559 547 554 564 548 564 c 4
 542 564 537 547 537 525 c 4
559 429 m 15
 532 429 557 364 584 364 c 31
 665 364 771 376 771 457 c 23
 771 516.671875 694.323242188 480.537109375 626 453 c 5
 622.512695312 451.594726562 619.19140625 450.146484375 616 448.69140625 c 5
 594.751953125 439.00390625 579.282226562 429 559 429 c 15
662 528 m 4
 662 510 705 495 757 495 c 4
 809 495 852 510 852 528 c 4
 852 546 809 561 757 561 c 4
 705 561 662 546 662 528 c 4
447 526 m 4
 447 506 492 489 547 489 c 4
 602 489 647 506 647 526 c 4
 647 546 602 563 547 563 c 4
 492 563 447 546 447 526 c 4
386 578 m 13
 494 702 l 29
 560 574 l 29
 670 702 l 29
 740 576 l 29
 864 698 l 29
 914 568 l 21
 755.211914062 368 l 5
 742.508789062 352 l 5
 652 238 l 5
 509.611328125 420 l 5
 386 578 l 13
EndSplineSet
EndChar

StartChar: V
Encoding: 86 86 3
Width: 1468
Flags: W
HStem: 17 56<908.506 1084.03> 20 60<385.572 619.212> 408 46<759 827> 408 36<673 681>
VStem: 681 78<454 496> 861 46<36 313.667> 861 37<115.333 348>
LayerCount: 2
Fore
SplineSet
887 17 m 1024x88
695 264 m 1049
855 45 m 0
 855 60 907 73 971 73 c 0
 1035 73 1087 60 1087 45 c 0
 1087 30 1035 17 971 17 c 0
 907 17 855 30 855 45 c 0
381 50 m 0
 381 67 435 80 501 80 c 0
 567 80 625 68 625 51 c 0
 625 34 567 20 501 20 c 0x48
 435 20 381 33 381 50 c 0
861 348 m 1x0a
 898 393 l 1x0a
 907 36 l 1
 861 36 l 1x0c
 861 348 l 1x0a
613 350 m 1
 575 395 l 1
 571 77 l 1
 617 65 l 1
 613 350 l 1
717 394 m 1
 717 384 l 1
 791 384 l 1
 791 394 l 1
 717 394 l 1
783 484 m 1
 783 472 l 1
 819 472 l 1
 819 484 l 1
 783 484 l 1
613 486 m 1
 613 470 l 1
 649 470 l 1
 649 486 l 1
 613 486 l 1
673 368 m 1
 827 368 l 1
 827 408 l 1x28
 673 408 l 1x18
 673 368 l 1
759 496 m 1
 759 454 l 1
 849 454 l 1
 849 496 l 1
 759 496 l 1
595 508 m 1
 595 444 l 1
 681 444 l 1x18
 681 508 l 1
 595 508 l 1
469 662 m 25
 603 546 l 25
 735 678 l 25
 859 540 l 25
 1009 692 l 25
 1025 526 l 25
 779 264 l 25
 747 226 l 25
 433 530 l 25
 469 662 l 25
EndSplineSet
EndChar

StartChar: U
Encoding: 85 85 4
Width: 1300
Flags: W
HStem: 384 120<800.592 899> 504 2<534 548.47> 646 20<438.583 493.417 803.117 860.883> 704 22<439.202 492.798> 714 20<803.117 860.883>
VStem: 420 16<670.571 697.429> 496 18<669.875 698.125> 778 18<674.397 705.603> 868 10<678.167 701.833>
LayerCount: 2
Fore
SplineSet
671 588 m 5x2780
 671 525 l 5
 377 525 l 5
 377 588 l 5
 671 588 l 5x2780
834 458 m 15
 919 458 1050 517 1050 432 c 31
 1050 333 899 384 800 384 c 23xa780
 771.458984375 384 851.09375 458 834 458 c 15
542 450 m 23
 566.220703125 450 448.086914062 376 480 376 c 15
 401 376 282 341 282 420 c 31
 282 522 440 450 542 450 c 23
534 506 m 15x6780
 650 506 716 506 832 506 c 23
 857.0625 506 828.296875 485.814453125 828.296875 460 c 7
 828.296875 438.43359375 798 412.9375 798 392 c 15
 798 288 924 126 820 126 c 31
 712 126 778 360 670 360 c 31
 541 360 406 31 406 160 c 23
 406 393.587890625 653.668945312 506 534 506 c 15x6780
796 690 m 4
 796 677 812 666 832 666 c 4
 852 666 868 677 868 690 c 4
 868 703 852 714 832 714 c 4x2f80
 812 714 796 703 796 690 c 4
436 684 m 4
 436 673 449 664 466 664 c 4
 483 664 496 673 496 684 c 4
 496 695 483 704 466 704 c 4x3780
 449 704 436 695 436 684 c 4
778 734 m 5x2f80
 878 734 l 5
 878 644 l 5
 778 644 l 5
 778 734 l 5x2f80
420 726 m 5x3780
 514 726 l 5
 514 646 l 5
 420 646 l 5
 420 726 l 5x3780
996 646 m 29
 1078 584 l 29
 994 500 l 1053
326 646 m 29
 324 504 l 29x6780
 222 580 l 29
 326 646 l 29
324 646 m 5
 324 504 l 5
 534 504 l 4
 994 504 l 5
 994 646 l 5
 324 646 l 5
EndSplineSet
EndChar

StartChar: T
Encoding: 84 84 5
Width: 1300
Flags: W
HStem: 94 158<562.359 792.047> 264 56<701 737> 268 72<455 491> 384 134<438.934 555.953> 556 64<827.226 906.774> 556 56<453.972 528.028>
VStem: 211 208<537.494 606.487> 455 72<268 340 558.266 609.734> 575 212<545.441 622.023> 665 72<264 320> 825 84<560.169 615.831> 963 126<336 618>
LayerCount: 2
Fore
SplineSet
271 656 m 1052x9330
665 250 m 5xd370
 667 320 l 5
 737 320 l 5
 737 264 l 5
 665 250 l 5xd370
455 268 m 5xb330
 455 340 l 5
 527 340 l 5
 527 254 l 5
 455 268 l 5xb330
825 588 m 4
 825 606 844 620 867 620 c 4
 890 620 909 606 909 588 c 4
 909 570 890 556 867 556 c 4x9b30
 844 556 825 570 825 588 c 4
453 584 m 4
 453 599 470 612 491 612 c 4
 512 612 529 599 529 584 c 4
 529 569 512 556 491 556 c 4x9730
 470 556 453 569 453 584 c 4
357 318 m 4
 357 282 469 252 607 252 c 4
 745 252 857 282 857 318 c 4
 857 354 745 384 607 384 c 4
 469 384 357 354 357 318 c 4
787 588 m 4x93b0
 787 552 826 522 875 522 c 4
 924 522 963 552 963 588 c 4
 963 624 924 654 875 654 c 4
 826 654 787 624 787 588 c 4x93b0
419 580 m 4
 419 546 454 518 497 518 c 4
 540 518 575 546 575 580 c 4
 575 614 540 642 497 642 c 4
 454 642 419 614 419 580 c 4
297 428 m 4
 282.458984375 483.509765625 211 514.623046875 211 560 c 7
 211 660.770507812 512.91796875 750.96484375 693 762 c 4
 911.58984375 775.39453125 1089 612 1089 428 c 4
 1089 244 912 94 693 94 c 4
 474 94 343.625976562 250.005859375 297 428 c 4
EndSplineSet
EndChar

StartChar: G
Encoding: 71 71 11
Width: 1300
Flags: W
HStem: -200 1000<0 1300>
LayerCount: 2
Fore
SplineSet
0 800 m 5
 1300 800 l 5
 1300 -200 l 5
 0 -200 l 5
 0 800 l 5
EndSplineSet
EndChar

StartChar: F
Encoding: 70 70 12
Width: 1300
Flags: W
HStem: 780 20G<0 1300> 780 20G<0 1300>
LayerCount: 2
Fore
SplineSet
-46 866 m 1055x00
893 31 m 1
 889.12109375 205.329101562 l 1
 1022.99902344 317.0546875 l 1
 884.284179688 422.71484375 l 1
 880.405273438 597.043945312 l 1
 711.309570312 554.470703125 l 1
 572.594726562 660.130859375 l 1
 500.451171875 501.381835938 l 1
 331.35546875 458.80859375 l 1
 410.489257812 303.42578125 l 1
 338.344726562 144.677734375 l 1
 509.166992188 109.666992188 l 1
 588.30078125 -45.71484375 l 1
 722.178710938 66.009765625 l 1
 893 31 l 1
0 800 m 1x80
 1300 800 l 1
 1300 419.104492188 1300 136.615234375 1300 -200 c 1
 0 -200 l 1
 0 133.913085938 0 460.133789062 0 800 c 1x80
EndSplineSet
EndChar

StartChar: slash
Encoding: 47 47 14
Width: 1300
Flags: W
HStem: 86 664<553.953 823.238>
LayerCount: 2
Fore
SplineSet
289 420 m 4
 274.458984375 475.509765625 203 503.66796875 203 552 c 7
 203 686.587890625 530.124023438 750.197265625 701 750 c 4
 920 749.748046875 1097 600 1097 416 c 4
 1097 232 904 86 685 86 c 4
 466 86 335.625976562 242.005859375 289 420 c 4
EndSplineSet
EndChar

StartChar: zero
Encoding: 48 48 15
Width: 1300
Flags: W
HStem: 360 144<609.63 714.692> 384 120<800.592 899> 504 2<534 548.47> 646 88<778 878> 646 80<420 514>
VStem: 420 94<646 726> 778 100<644 734>
LayerCount: 2
Fore
SplineSet
834 458 m 15x46
 919 458 1050 517 1050 432 c 31
 1050 333 899 384 800 384 c 23
 771.458984375 384 851.09375 458 834 458 c 15x46
542 450 m 23
 566.220703125 450 448.086914062 376 480 376 c 15
 401 376 282 341 282 420 c 31
 282 522 440 450 542 450 c 23
534 506 m 15x26
 650 506 716 506 832 506 c 23x26
 857.0625 506 828.296875 485.814453125 828.296875 460 c 7
 828.296875 438.43359375 798 412.9375 798 392 c 15
 798 288 924 126 820 126 c 31
 712 126 778 360 670 360 c 31x86
 541 360 406 31 406 160 c 23
 406 393.587890625 653.668945312 506 534 506 c 15x26
778 734 m 5x16
 873.796875 734 839.291992188 734 878 734 c 5
 878 644 l 5
 778 644 l 5
 778 734 l 5x16
420 726 m 5x0e
 514 726 l 5
 514 646 l 5
 420 646 l 5
 420 726 l 5x0e
996 646 m 29
 1078 584 l 29
 994 500 l 1053
326 646 m 29
 324 504 l 29x2e
 222 580 l 29
 326 646 l 29
324 646 m 5
 324 504 l 5
 534 504 l 4
 994 504 l 5
 994 646 l 5
 324 646 l 5
EndSplineSet
EndChar

StartChar: one
Encoding: 49 49 16
Width: 1300
Flags: W
HStem: 17 56<824.506 1000.03> 20 60<301.572 535.212>
VStem: 777 46<36 313.667> 777 37<115.333 348>
LayerCount: 2
Fore
SplineSet
771 45 m 4x80
 771 60 823 73 887 73 c 4
 951 73 1003 60 1003 45 c 4
 1003 30 951 17 887 17 c 4
 823 17 771 30 771 45 c 4x80
297 50 m 4
 297 67 351 80 417 80 c 4
 483 80 541 68 541 51 c 4
 541 34 483 20 417 20 c 4x40
 351 20 297 33 297 50 c 4
777 348 m 5x10
 814 393 l 5x10
 823 36 l 5
 777 36 l 5x20
 777 348 l 5x10
529 350 m 5
 491 395 l 5
 487 77 l 5
 533 65 l 5
 529 350 l 5
385 662 m 29
 519 546 l 29
 651 678 l 29
 775 540 l 29
 925 692 l 29
 941 526 l 29
 695 264 l 29
 663 226 l 29
 349 530 l 29
 385 662 l 29
EndSplineSet
EndChar

StartChar: three
Encoding: 51 51 17
Width: 1300
Flags: W
HStem: 96 2<548.425 567.394> 98 4<496.394 523.78 733.394 823.718>
VStem: 491.394 76<149 259> 730.394 95<98 218>
LayerCount: 2
Fore
SplineSet
733.393554688 102 m 31x70
 811.393554688 102 849.393554688 154 927.393554688 154 c 31
 972.393554688 154 870.393554688 100 825.393554688 100 c 31
 789.393554688 100 769.393554688 102 733.393554688 102 c 31x70
496.393554688 102 m 31
 560.393554688 102 586.393554688 156 650.393554688 156 c 31
 690.393554688 156 607.393554688 96 567.393554688 96 c 31xb0
 539.393554688 96 524.393554688 102 496.393554688 102 c 31
820.393554688 98 m 31x70
 855.393554688 98 765.393554688 99 730.393554688 99 c 1052
729.393554688 368 m 29
 730.393554688 98 l 29
 825.393554688 98 l 29
 804.393554688 458 l 29
 729.393554688 368 l 29
719.393554688 352 m 1053
485.393554688 422 m 29
 491.393554688 200 l 29
 493.393554688 98 l 29x70
 567.393554688 98 l 29xb0
 557.393554688 328 l 29
 485.393554688 422 l 29
361.393554688 578 m 13
 469.393554688 702 l 29
 535.393554688 574 l 29
 645.393554688 702 l 29
 715.393554688 576 l 29
 839.393554688 698 l 29
 889.393554688 568 l 21
 730.60546875 368 l 5
 717.90234375 352 l 5
 627.393554688 238 l 5
 485.004882812 420 l 5
 361.393554688 578 l 13
EndSplineSet
EndChar

StartChar: four
Encoding: 52 52 18
Width: 1300
Flags: W
HStem: 771.518 20G<632.304 657.795>
LayerCount: 2
Fore
SplineSet
864.504882812 164 m 5
 657.185546875 240.206054688 l 5
 453.623046875 154.469726562 l 5
 462.034179688 375.190429688 l 5
 317.588867188 542.295898438 l 5
 530.106445312 602.50390625 l 5
 644.397460938 791.517578125 l 5
 767.329101562 608.005859375 l 5
 982.411132812 557.716796875 l 5
 845.869140625 384.09375 l 5
 864.504882812 164 l 5
EndSplineSet
EndChar

StartChar: y
Encoding: 121 121 20
Width: 1300
Flags: W
HStem: 14 158<560.563 774.461> 190 72<425 461> 304 127<584.551 710.133> 466 64<574.226 653.774> 480 56<300.972 375.028>
VStem: 211 74<461.456 526.417> 300 76<482.84 533.16> 425 72<190 262> 441 120<461.626 539.786> 572 84<470.169 525.831> 667 70<184 240> 841 248<183 440>
LayerCount: 2
Fore
SplineSet
271 576 m 1052xe670
665 170 m 5
 667 240 l 5
 737 240 l 5
 737 184 l 5
 665 170 l 5
425 190 m 5xe770
 425 262 l 5
 497 262 l 5
 497 176 l 5
 425 190 l 5xe770
572 498 m 4
 572 516 591 530 614 530 c 4
 637 530 656 516 656 498 c 4
 656 480 637 466 614 466 c 4xf670
 591 466 572 480 572 498 c 4
300 508 m 4
 300 523 317 536 338 536 c 4
 359 536 376 523 376 508 c 4
 376 493 359 480 338 480 c 4xee70
 317 480 300 493 300 508 c 4
341 238 m 4
 341 202 453 172 591 172 c 4
 729 172 841 202 841 238 c 4
 841 274 729 304 591 304 c 4
 453 304 341 274 341 238 c 4
561 497 m 4xe6f0
 561 461 600 431 649 431 c 4
 698 431 737 461 737 497 c 4
 737 533 698 563 649 563 c 4
 600 563 561 533 561 497 c 4xe6f0
285 504 m 4
 285 470 320 442 363 442 c 4
 406 442 441 470 441 504 c 4
 441 538 406 566 363 566 c 4
 320 566 285 538 285 504 c 4
297 348 m 4
 282.458984375 403.509765625 211 434.623046875 211 480 c 7xee70
 211 580.770507812 512.91796875 670.96484375 693 682 c 4
 911.58984375 695.39453125 1089 532 1089 348 c 4
 1089 164 912 14 693 14 c 4
 474 14 343.625976562 170.005859375 297 348 c 4
EndSplineSet
EndChar

StartChar: z
Encoding: 122 122 21
Width: 1300
Flags: W
HStem: 360 144<609.63 714.692> 384 120<800.592 899> 504 2<534 548.47> 646 19<589.885 644.115 901.642 958.358> 703 21<590.534 643.466> 713 23<899.642 960.358>
VStem: 558 29<665.906 700.094> 647 5<675.234 690.766> 872 22<672.125 705.875> 966 4<681.401 696.599> 993 1<527 590>
LayerCount: 2
Fore
SplineSet
993 590 m 5x13e0
 993 527 l 5
 699 527 l 5
 699 590 l 5
 993 590 l 5x13e0
834 458 m 11
 919 458 1050 517 1050 432 c 27
 1050 333 899 384 800 384 c 19x53e0
 771.458984375 384 851.09375 458 834 458 c 11
542 450 m 19
 566.220703125 450 448.086914062 376 480 376 c 11
 401 376 282 341 282 420 c 27
 282 522 440 450 542 450 c 19
534 506 m 11x33e0
 650 506 716 506 832 506 c 19x33e0
 857.0625 506 828.296875 485.814453125 828.296875 460 c 3
 828.296875 438.43359375 798 412.9375 798 392 c 11
 798 288 924 126 820 126 c 27
 712 126 778 360 670 360 c 27x93e0
 541 360 406 31 406 160 c 19
 406 393.587890625 653.668945312 506 534 506 c 11x33e0
894 689 m 0
 894 676 910 665 930 665 c 0
 950 665 966 676 966 689 c 0
 966 702 950 713 930 713 c 0x17e0
 910 713 894 702 894 689 c 0
587 683 m 0
 587 672 600 663 617 663 c 0
 634 663 647 672 647 683 c 0
 647 694 634 703 617 703 c 0x1be0
 600 703 587 694 587 683 c 0
870 736 m 1x17e0
 970 736 l 1
 972 646 l 1
 872 646 l 1
 870 736 l 1x17e0
558 724 m 1x1be0
 652 724 l 1
 652 644 l 1
 558 644 l 1
 558 724 l 1x1be0
996 646 m 25
 1078 584 l 25
 994 500 l 1049
326 646 m 25
 324 504 l 25x33e0
 222 580 l 25
 326 646 l 25
324 646 m 1
 324 504 l 1
 534 504 l 0
 994 504 l 1
 994 646 l 1
 324 646 l 1
EndSplineSet
EndChar

StartChar: eacute
Encoding: 233 233 22
Width: 1300
Flags: W
HStem: 384 120<800.592 899> 504 2<534 548.47> 646 17<375.037 408.963 596.739 651.261> 708 20<366.243 417.757> 711 24<593.184 654.816>
VStem: 361 1<684.472 691.528> 422 33<670.196 705.804> 588 100<645 663 711 735> 660 28<668.198 705.802>
LayerCount: 2
Fore
SplineSet
628 590 m 5x26
 628 527 l 5
 334 527 l 5
 334 590 l 5
 628 590 l 5x26
834 458 m 15
 919 458 1050 517 1050 432 c 31
 1050 333 899 384 800 384 c 23xa6
 771.458984375 384 851.09375 458 834 458 c 15
542 450 m 23
 566.220703125 450 448.086914062 376 480 376 c 15
 401 376 282 341 282 420 c 31
 282 522 440 450 542 450 c 23
534 506 m 15x66
 650 506 716 506 832 506 c 23
 857.0625 506 828.296875 485.814453125 828.296875 460 c 7
 828.296875 438.43359375 798 412.9375 798 392 c 15
 798 288 924 126 820 126 c 31
 712 126 778 360 670 360 c 31
 541 360 406 31 406 160 c 23
 406 393.587890625 653.668945312 506 534 506 c 15x66
588 687 m 4x2f
 588 674 604 663 624 663 c 4
 644 663 660 674 660 687 c 4x2e80
 660 700 644 711 624 711 c 4
 604 711 588 700 588 687 c 4x2f
362 688 m 4
 362 677 375 668 392 668 c 4
 409 668 422 677 422 688 c 4
 422 699 409 708 392 708 c 4x36
 375 708 362 699 362 688 c 4
588 735 m 5x2f
 688 735 l 5
 688 645 l 5
 588 645 l 5
 588 735 l 5x2f
361 728 m 5x36
 455 728 l 5
 455 648 l 5
 361 648 l 5
 361 728 l 5x36
996 646 m 29
 1078 584 l 29
 994 500 l 1053
326 646 m 29
 324 504 l 29x66
 222 580 l 29
 326 646 l 29
324 646 m 5
 324 504 l 5
 534 504 l 4
 994 504 l 5
 994 646 l 5
 324 646 l 5
EndSplineSet
EndChar

StartChar: two
Encoding: 50 50 28
Width: 1300
Flags: W
HStem: 17 56<798.506 974.026> 23 59<444.572 689.134> 409 37<623 709>
VStem: 709 47<454 470 486 497> 751 46<36 313.667> 751 37<115.333 348>
LayerCount: 2
Fore
SplineSet
745 45 m 4xa0
 745 60 797 73 861 73 c 4
 925 73 977 60 977 45 c 4
 977 30 925 17 861 17 c 4
 797 17 745 30 745 45 c 4xa0
440 53 m 4
 440 70 505.017578125 83.5078125 571 82 c 4
 746 78 695 70 695 53 c 4
 695 36 626 23 560 23 c 4x60
 494 23 440 36 440 53 c 4
751 348 m 5x24
 788 393 l 5x24
 797 36 l 5
 751 36 l 5x28
 751 348 l 5x24
503 350 m 5
 465 395 l 5
 461 77 l 5
 507 65 l 5
 503 350 l 5
683 394 m 5
 683 384 l 5
 757 384 l 5
 757 394 l 5
 683 394 l 5
807 482 m 5
 807 470 l 5
 843 470 l 5
 843 482 l 5
 807 482 l 5
674 486 m 5
 674 470 l 5
 710 470 l 5
 710 486 l 5
 674 486 l 5
611 369 m 5
 765 369 l 5
 765 409 l 5
 611 409 l 5
 611 369 l 5
757 497 m 5
 756 454 l 5x30
 846 454 l 5
 847 497 l 5
 757 497 l 5
623 510 m 5
 623 446 l 5
 709 446 l 5
 709 510 l 5
 623 510 l 5
359 662 m 29
 493 546 l 29
 625 678 l 29
 749 540 l 29
 899 692 l 29
 915 526 l 29
 669 264 l 29
 637 226 l 29
 323 530 l 29
 359 662 l 29
EndSplineSet
EndChar

StartChar: W
Encoding: 87 87 29
Width: 1300
Flags: W
HStem: 17 56<636.974 807.711> 20 60<332.572 566.212> 412 50<647 694> 412 38<540 572>
VStem: 572 75<462 504> 808 46<36 313.667> 808 37<115.333 348>
LayerCount: 2
Fore
SplineSet
634 45 m 4x88
 634 60 686 73 750 73 c 4
 814 73 866 60 866 45 c 4
 866 30 814 17 750 17 c 4
 686 17 634 30 634 45 c 4x88
328 50 m 4
 328 67 382 80 448 80 c 4
 514 80 572 68 572 51 c 4
 572 34 514 20 448 20 c 4x48
 382 20 328 33 328 50 c 4
808 348 m 5x0a
 845 393 l 5x0a
 854 36 l 5
 808 36 l 5x0c
 808 348 l 5x0a
560 350 m 5
 522 395 l 5
 518 77 l 5
 564 65 l 5
 560 350 l 5
550 398 m 5
 550 388 l 5
 624 388 l 5
 624 398 l 5
 592.13671875 398 575.3359375 398 550 398 c 5
656 492 m 5
 656 480 l 5
 692 480 l 5
 692 492 l 5
 656 492 l 5
492 490 m 5
 492 474 l 5
 528 474 l 5
 528 490 l 5
 492 490 l 5
540 372 m 5
 694 372 l 5
 694 412 l 5x28
 540 412 l 5x18
 540 372 l 5
647 504 m 5
 647 462 l 5
 737 462 l 5
 737 504 l 5
 647 504 l 5
486 514 m 5
 486 450 l 5
 572 450 l 5x18
 572 514 l 5
 486 514 l 5
416 662 m 29
 550 546 l 29
 682 678 l 29
 806 540 l 29
 956 692 l 29
 972 526 l 29
 726 264 l 29
 694 226 l 29
 380 530 l 29
 416 662 l 29
EndSplineSet
EndChar

StartChar: bar
Encoding: 124 124 30
Width: 1300
Flags: W
HStem: 92 6<492.488 545.473> 98 1<738 829.55> 429 60<530.926 603.942> 495 23<484.182 546.499 711.49 757.999> 538 23<484.75 546.494 712.212 757.999>
VStem: 501 74<98 259> 508 6<518.616 533.357> 630 15<516.024 539.256> 724 4<521.071 535.143>
LayerCount: 2
Fore
SplineSet
738 99 m 31x7980
 703 99 629 46 664 46 c 31
 731 46 761 98 828 98 c 31
 863 98 773 99 738 99 c 31x7980
737 368 m 29
 738 98 l 29
 833 98 l 29
 812 458 l 29
 737 368 l 29
491 92 m 31xb980
 447 92 351 34 395 34 c 31
 468 34 498 98 571 98 c 31x7980
 602 98 522 92 491 92 c 31xb980
727 352 m 1053
493 422 m 29
 499 200 l 29
 501 98 l 29xbd80
 575 98 l 29x7d80
 565 328 l 29
 493 422 l 29
598 446 m 29
 649 468 l 29
 633 394 l 29
 598 446 l 29
575 364 m 5
 592 417 l 29
 620 367 l 29
 671 375 l 29
 672 425 l 29
 711 390 l 5
 646 370 l 5
 575 364 l 5
710 528 m 4
 710 534 713 538 717 538 c 4
 721 538 724 534 724 528 c 4
 724 522 721 518 717 518 c 4
 713 518 710 522 710 528 c 4
492 526 m 4
 492 532 496 536 500 536 c 4
 504 536 508 532 508 526 c 4x3b80
 508 520 504 516 500 516 c 4
 496 516 492 520 492 526 c 4
710 526 m 4
 710 506 714 490 719 490 c 4
 724 490 728 506 728 526 c 4
 728 546 724 562 719 562 c 4
 714 562 710 546 710 526 c 4
492 525 m 4
 492 503 497 486 503 486 c 4
 509 486 514 503 514 525 c 4
 514 547 509 564 503 564 c 4
 497 564 492 547 492 525 c 4
542 429 m 15
 515 429 540 364 567 364 c 31
 648 364 754 376 754 457 c 23
 754 516.671875 677.323242188 480.537109375 609 453 c 5
 605.512695312 451.594726562 602.19140625 450.146484375 599 448.69140625 c 5
 577.751953125 439.00390625 562.282226562 429 542 429 c 15
645 528 m 4
 645 510 688 495 740 495 c 4
 792 495 835 510 835 528 c 4
 835 546 792 561 740 561 c 4
 688 561 645 546 645 528 c 4
430 526 m 4
 430 506 475 489 530 489 c 4
 585 489 630 506 630 526 c 4
 630 546 585 563 530 563 c 4
 475 563 430 546 430 526 c 4
369 578 m 5
 532 693 l 29
 543 574 l 5
 718 699 l 29
 723 576 l 5
 931 696 l 29
 897 568 l 5
 738.211914062 368 l 5
 725.508789062 352 l 5
 635 238 l 5
 492.611328125 420 l 5
 369 578 l 5
EndSplineSet
EndChar

StartChar: braceright
Encoding: 125 125 31
Width: 1300
Flags: W
HStem: 60 36<494.781 649.52> 78 18<730.51 831.157> 429 60<526.266 599.282> 495 23<517.841 580.838 727.841 786.606> 538 23<517.891 580.841 727.841 786.213>
VStem: 496.34 74<98 259> 561.34 4<518.698 531.302> 581.34 2<520.587 529.413> 625.34 15<516.024 539.256> 732.34 75<338 368> 769.34 3<521.962 534.271> 786.34 1<524.137 531.687>
LayerCount: 2
Fore
SplineSet
580.33984375 92 m 31x7980
 635.33984375 92 765.33984375 38 710.33984375 38 c 31
 631.33984375 38 587.33984375 60 508.33984375 60 c 31xb980
 492.33984375 60 472.33984375 96 488.33984375 96 c 31
 524.33984375 96 544.33984375 92 580.33984375 92 c 31x7980
844.33984375 104 m 31
 882.33984375 104 970.33984375 60 932.33984375 60 c 31xb9c0
 854.33984375 60 810.33984375 78 732.33984375 78 c 31
 725.33984375 78 729.33984375 96 736.33984375 96 c 31x79c0
 778.33984375 96 802.33984375 104 844.33984375 104 c 31
732.33984375 368 m 29
 733.33984375 98 l 29
 828.33984375 98 l 29
 807.33984375 458 l 29
 732.33984375 368 l 29
722.33984375 352 m 1053
488.33984375 422 m 29
 494.33984375 200 l 29
 496.33984375 98 l 29
 570.33984375 98 l 29x3d80
 560.33984375 328 l 29
 488.33984375 422 l 29
593.33984375 446 m 29
 644.33984375 468 l 29
 628.33984375 394 l 29
 593.33984375 446 l 29
570.33984375 364 m 5
 587.33984375 417 l 29
 615.33984375 367 l 29
 666.33984375 375 l 29
 667.33984375 425 l 29
 706.33984375 390 l 5
 641.33984375 370 l 5
 570.33984375 364 l 5
772.33984375 528 m 4x39b0
 772.33984375 534 775.33984375 538 779.33984375 538 c 4
 783.33984375 538 786.33984375 534 786.33984375 528 c 4
 786.33984375 522 783.33984375 518 779.33984375 518 c 4
 775.33984375 518 772.33984375 522 772.33984375 528 c 4x39b0
565.33984375 525 m 4x3b80
 565.33984375 531 569.33984375 535 573.33984375 535 c 4
 577.33984375 535 581.33984375 531 581.33984375 525 c 4
 581.33984375 519 577.33984375 515 573.33984375 515 c 4
 569.33984375 515 565.33984375 519 565.33984375 525 c 4x3b80
769.33984375 526 m 4x39b0
 769.33984375 506 773.33984375 490 778.33984375 490 c 4
 783.33984375 490 787.33984375 506 787.33984375 526 c 4
 787.33984375 546 783.33984375 562 778.33984375 562 c 4
 773.33984375 562 769.33984375 546 769.33984375 526 c 4x39b0
561.33984375 525 m 4x3b80
 561.33984375 503 566.33984375 486 572.33984375 486 c 4
 578.33984375 486 583.33984375 503 583.33984375 525 c 4
 583.33984375 547 578.33984375 564 572.33984375 564 c 4
 566.33984375 564 561.33984375 547 561.33984375 525 c 4x3b80
537.33984375 429 m 15
 510.33984375 429 535.33984375 364 562.33984375 364 c 31
 643.33984375 364 749.33984375 376 749.33984375 457 c 23
 749.33984375 516.671875 672.663085938 480.537109375 604.33984375 453 c 5
 600.8515625 451.594726562 597.530273438 450.146484375 594.33984375 448.69140625 c 5
 573.091796875 439.00390625 557.622070312 429 537.33984375 429 c 15
640.33984375 528 m 4
 640.33984375 510 683.33984375 495 735.33984375 495 c 4
 787.33984375 495 830.33984375 510 830.33984375 528 c 4
 830.33984375 546 787.33984375 561 735.33984375 561 c 4
 683.33984375 561 640.33984375 546 640.33984375 528 c 4
425.33984375 526 m 4
 425.33984375 506 470.33984375 489 525.33984375 489 c 4
 580.33984375 489 625.33984375 506 625.33984375 526 c 4
 625.33984375 546 580.33984375 563 525.33984375 563 c 4
 470.33984375 563 425.33984375 546 425.33984375 526 c 4
358.33984375 584 m 5
 377.33984375 704 l 29
 534.33984375 574 l 5
 570.33984375 718 l 29x3d80
 714.33984375 576 l 5
 730.33984375 726 l 29
 888.33984375 568 l 5
 729.551757812 368 l 5
 716.848632812 352 l 5
 626.33984375 238 l 5
 483.951171875 420 l 5
 358.33984375 584 l 5
EndSplineSet
EndChar

StartChar: exclam
Encoding: 33 33 66
Width: 1300
Flags: W
HStem: 450 54<389.759 527.529> 504 2<535 535 537 840.037> 644 2<779 879> 726 74<421 515> 734 66<779 879>
VStem: -1 284<379.797 464.534> 325 2<504 646> 1051 248<386.46 471.922>
LayerCount: 2
Fore
SplineSet
-1 800 m 5x2f
 1299 800 l 5
 1301 -200 l 1
 1 -200 l 1
 -1 800 l 5x2f
835 458 m 23
 852.09375 458 772.458984375 384 801 384 c 15
 900 384 1051 333 1051 432 c 31
 1051 517 920 458 835 458 c 23
543 450 m 15xa7
 441 450 283 522 283 420 c 31
 283 341 402 376 481 376 c 23
 449.086914062 376 567.220703125 450 543 450 c 15xa7
535 506 m 23x67
 654.668945312 506 407 393.587890625 407 160 c 15
 407 31 542 360 671 360 c 31
 779 360 713 126 821 126 c 31
 925 126 799 288 799 392 c 23
 799 412.9375 829.296875 438.43359375 829.296875 460 c 7
 829.296875 485.814453125 858.0625 506 833 506 c 15
 717 506 651 506 535 506 c 23x67
779 734 m 5x2f
 779 644 l 5
 879 644 l 5
 879 734 l 5
 840.291992188 734 874.796875 734 779 734 c 5x2f
421 726 m 5x37
 421 646 l 5
 515 646 l 5
 515 726 l 5
 421 726 l 5x37
995 500 m 29
 1079 584 l 29
 997 646 l 1053
327 646 m 29
 223 580 l 29
 325 504 l 29x67
 327 646 l 29
327 646 m 5
 327 504 l 5
 537 504 l 4
 997 504 l 5
 997 646 l 5
 773.666992188 648.614257812 550.333007812 648.715820312 327 646 c 5
EndSplineSet
EndChar

StartChar: quotedbl
Encoding: 34 34 67
Width: 1300
Flags: W
HStem: 450 54<388.759 526.529> 504 2<534 839.037> 525 63<377 671> 644 2<778 878> 664 40<436.009 495.991> 666 48<796.185 867.815>
VStem: 0 282<379.797 464.534> 436 60<664.762 703.238> 796 72<667.922 712.078> 1050 250<386.46 471.922>
LayerCount: 2
Fore
SplineSet
0 800 m 1x33c0
 0 -200 l 1
 1300 -200 l 1
 1300 800 l 1
 0 800 l 1x33c0
671 588 m 1
 671 525 l 1
 377 525 l 1
 377 588 l 1
 671 588 l 1
834 458 m 11
 919 458 1050 517 1050 432 c 27
 1050 333 899 384 800 384 c 19
 771.458984375 384 851.09375 458 834 458 c 11
542 450 m 19xb3c0
 566.220703125 450 448.086914062 376 480 376 c 11
 401 376 282 341 282 420 c 27
 282 522 440 450 542 450 c 19xb3c0
534 506 m 11x73c0
 650 506 716 506 832 506 c 19
 857.0625 506 828.296875 485.814453125 828.296875 460 c 3
 828.296875 438.43359375 798 412.9375 798 392 c 11
 798 288 924 126 820 126 c 27
 712 126 778 360 670 360 c 27
 541 360 406 31 406 160 c 19
 406 393.587890625 653.668945312 506 534 506 c 11x73c0
796 690 m 0
 796 677 812 666 832 666 c 0
 852 666 868 677 868 690 c 0
 868 703 852 714 832 714 c 0x37c0
 812 714 796 703 796 690 c 0
436 684 m 0
 436 673 449 664 466 664 c 0
 483 664 496 673 496 684 c 0
 496 695 483 704 466 704 c 0x3bc0
 449 704 436 695 436 684 c 0
778 734 m 1
 878 734 l 1
 878 644 l 1
 778 644 l 1
 778 734 l 1
420 726 m 1
 514 726 l 1
 514 646 l 1
 420 646 l 1
 420 726 l 1
996 646 m 25
 1078 584 l 25
 994 500 l 1049
326 646 m 25
 324 504 l 25x73c0
 222 580 l 25
 326 646 l 25
324 646 m 1
 994 646 l 1
 994 504 l 1
 534 504 l 0
 324 504 l 1
 324 646 l 1
EndSplineSet
EndChar

StartChar: numbersign
Encoding: 35 35 68
Width: 1300
Flags: W
HStem: 450 54<388.759 526.529> 504 2<534 534 832 839.037> 525 64<699 988> 644 2<558 652> 663 40<587.009 646.991> 665 48<894.185 965.815> 724 76<558 652> 736 64<870 970>
VStem: 0 282<379.797 464.534> 587 60<663.762 702.238> 894 72<666.922 711.078> 1050 250<386.46 471.922>
LayerCount: 2
Fore
SplineSet
994 646 m 1x70f0
 994 504 l 1
 1078 584 l 1
 994 646 l 1x70f0
0 800 m 1x31f0
 1300 800 l 1
 1300 -200 l 1
 0 -200 l 1
 0 800 l 1x31f0
989 589 m 1
 988 525 l 1
 699 527 l 1
 699 590 l 1
 989 589 l 1
834 458 m 19
 851.09375 458 771.458984375 384 800 384 c 11
 899 384 1050 333 1050 432 c 27
 1050 517 919 458 834 458 c 19
542 450 m 11xb0f0
 440 450 282 522 282 420 c 27
 282 341 401 376 480 376 c 19
 448.086914062 376 566.220703125 450 542 450 c 11xb0f0
534 506 m 19x70f0
 653.668945312 506 406 393.587890625 406 160 c 11
 406 31 541 360 670 360 c 27
 778 360 712 126 820 126 c 27
 924 126 798 288 798 392 c 19
 798 412.9375 828.296875 438.43359375 828.296875 460 c 3
 828.296875 485.814453125 857.0625 506 832 506 c 11
 716 506 650 506 534 506 c 19x70f0
894 689 m 0
 894 676 910 665 930 665 c 0
 950 665 966 676 966 689 c 0
 966 702 950 713 930 713 c 0x34f0
 910 713 894 702 894 689 c 0
587 683 m 0
 587 672 600 663 617 663 c 0
 634 663 647 672 647 683 c 0
 647 694 634 703 617 703 c 0x38f0
 600 703 587 694 587 683 c 0
870 736 m 1x31f0
 872 646 l 1
 972 646 l 1
 970 736 l 1
 870 736 l 1x31f0
558 724 m 1x32f0
 558 644 l 1
 652 644 l 1
 652 724 l 1
 558 724 l 1x32f0
326 646 m 25
 222 580 l 25
 324 504 l 25x70f0
 326 646 l 25
324 646 m 1
 324 504 l 1
 534 504 l 0
 994 504 l 1
 994 646 l 1
 324 646 l 1
EndSplineSet
EndChar

StartChar: dollar
Encoding: 36 36 69
Width: 1300
Flags: W
HStem: 450 54<388.759 526.529> 504 2<534 839.037> 527 63<334 628> 645 1<588 688> 646 2<361 455> 663 48<362.335 421.665 588.185 659.815> 715 20G<588 688>
VStem: 0 282<379.797 464.534> 362 60<668.762 707.238> 588 72<664.922 709.078> 1050 250<386.46 471.922>
LayerCount: 2
Fore
SplineSet
0 800 m 1x27e0
 0 -200 l 1
 1300 -200 l 1
 1300 800 l 1
 0 800 l 1x27e0
628 590 m 1
 628 527 l 1
 334 527 l 1
 334 590 l 1
 628 590 l 1
834 458 m 11
 919 458 1050 517 1050 432 c 27
 1050 333 899 384 800 384 c 19
 771.458984375 384 851.09375 458 834 458 c 11
542 450 m 19xa7e0
 566.220703125 450 448.086914062 376 480 376 c 11
 401 376 282 341 282 420 c 27
 282 522 440 450 542 450 c 19xa7e0
534 506 m 11x67e0
 650 506 716 506 832 506 c 19
 857.0625 506 828.296875 485.814453125 828.296875 460 c 3
 828.296875 438.43359375 798 412.9375 798 392 c 11
 798 288 924 126 820 126 c 27
 712 126 778 360 670 360 c 27
 541 360 406 31 406 160 c 19
 406 393.587890625 653.668945312 506 534 506 c 11x67e0
588 687 m 0
 588 674 604 663 624 663 c 0
 644 663 660 674 660 687 c 0
 660 700 644 711 624 711 c 0
 604 711 588 700 588 687 c 0
362 688 m 0
 362 677 375 668 392 668 c 0
 409 668 422 677 422 688 c 0
 422 699 409 708 392 708 c 0
 375 708 362 699 362 688 c 0
588 735 m 1
 688 735 l 1
 688 645 l 1
 588 645 l 1x37e0
 588 735 l 1
361 728 m 1
 455 728 l 1
 455 648 l 1
 361 648 l 1x2fe0
 361 728 l 1
996 646 m 25
 1078 584 l 25
 994 500 l 1049
326 646 m 25
 324 504 l 25x6fe0
 222 580 l 25
 326 646 l 25
324 646 m 1
 994 646 l 1
 994 504 l 1
 534 504 l 0
 324 504 l 1
 324 646 l 1
EndSplineSet
EndChar

StartChar: percent
Encoding: 37 37 70
Width: 1300
Flags: W
HStem: -200 286<553.953 823.238> 750 50<499.403 837.276>
VStem: 0 203<505.503 604.588> 1097 203<317.22 522.919>
LayerCount: 2
Fore
SplineSet
0 800 m 1
 1300 800 l 1
 1300 -200 l 1
 0 -200 l 1
 0 800 l 1
289 420 m 4
 335.625976562 242.005859375 466 86 685 86 c 4
 904 86 1097 232 1097 416 c 4
 1097 600 920 749.748046875 701 750 c 4
 530.124023438 750.197265625 203 686.587890625 203 552 c 7
 203 503.66796875 274.458984375 475.509765625 289 420 c 4
EndSplineSet
EndChar

StartChar: ampersand
Encoding: 38 38 71
Width: 1300
Flags: W
HStem: -200 294<561.953 829.276> 252 132<421.97 792.03> 518 38<455.947 526.132 828.966 905.338> 612 30<457.897 524.102> 620 34<830.564 903.635> 780 20G<0 1300> 780 20G<0 1300>
VStem: 0 211<514.81 606.2> 357 98<292.5 338.994> 419 34<561.279 606.935> 529 46<558.81 608.639> 787 38<561.939 614.061> 909 54<560.601 615.399> 1089 211<321.056 536.266>
LayerCount: 2
Fore
SplineSet
0 800 m 1xe53c
 1300 800 l 1
 1300 -200 l 1
 0 -200 l 1
 0 800 l 1xe53c
271 656 m 1048
665 250 m 1
 667 320 l 1
 737 320 l 1
 737 264 l 1
 665 250 l 1
455 268 m 1xe1bc
 455 340 l 1
 527 340 l 1
 527 254 l 1
 455 268 l 1xe1bc
825 588 m 0
 825 606 844 620 867 620 c 0xe93c
 890 620 909 606 909 588 c 0
 909 570 890 556 867 556 c 0
 844 556 825 570 825 588 c 0
453 584 m 0xf17c
 453 599 470 612 491 612 c 0
 512 612 529 599 529 584 c 0
 529 569 512 556 491 556 c 0
 470 556 453 569 453 584 c 0xf17c
357 318 m 0xe1bc
 357 282 469 252 607 252 c 0
 745 252 857 282 857 318 c 0
 857 354 745 384 607 384 c 0
 469 384 357 354 357 318 c 0xe1bc
787 588 m 0
 787 552 826 522 875 522 c 0
 924 522 963 552 963 588 c 0
 963 624 924 654 875 654 c 0xe93c
 826 654 787 624 787 588 c 0
419 580 m 0xf17c
 419 546 454 518 497 518 c 0
 540 518 575 546 575 580 c 0
 575 614 540 642 497 642 c 0
 454 642 419 614 419 580 c 0xf17c
297 428 m 4
 343.625976562 250.005859375 474 94 693 94 c 4
 912 94 1089 244 1089 428 c 4
 1089 612 911.58984375 775.39453125 693 762 c 4
 512.91796875 750.96484375 211 660.770507812 211 560 c 7
 211 514.623046875 282.458984375 483.509765625 297 428 c 4
EndSplineSet
EndChar

StartChar: quotesingle
Encoding: 39 39 72
Width: 1300
Flags: W
HStem: -200 294<561.953 829.276> 252 132<405.97 776.03> 511 35<589.722 651.329> 522 38<307.441 373.307> 610 33<306.526 375.045 591.349 674.196> 780 20G<0 1300> 780 20G<0 1300>
VStem: 0 211<514.81 606.2> 285 15<571.784 603.899> 341 84<292.5 340.512> 376 65<562.81 612.639> 561 11<562.419 593.371> 656 81<550.101 605.624> 1089 211<321.056 536.266>
LayerCount: 2
Fore
SplineSet
0 800 m 1xcd9c
 1300 800 l 1
 1300 -200 l 1
 0 -200 l 1
 0 800 l 1xcd9c
271 656 m 1048
665 250 m 1
 667 320 l 1
 737 320 l 1
 737 264 l 1
 665 250 l 1
425 270 m 1xc9dc
 425 342 l 1
 497 342 l 1
 497 256 l 1
 425 270 l 1xc9dc
572 578 m 0
 572 596 591 610 614 610 c 0
 637 610 656 596 656 578 c 0
 656 560 637 546 614 546 c 0xe99c
 591 546 572 560 572 578 c 0
300 588 m 0
 300 603 317 616 338 616 c 0
 359 616 376 603 376 588 c 0
 376 573 359 560 338 560 c 0xd9bc
 317 560 300 573 300 588 c 0
341 318 m 0xc9dc
 341 282 453 252 591 252 c 0
 729 252 841 282 841 318 c 0
 841 354 729 384 591 384 c 0
 453 384 341 354 341 318 c 0xc9dc
561 577 m 0
 561 541 600 511 649 511 c 0xe99c
 698 511 737 541 737 577 c 0
 737 613 698 643 649 643 c 0
 600 643 561 613 561 577 c 0
285 584 m 0
 285 550 320 522 363 522 c 0
 406 522 441 550 441 584 c 0xd9bc
 441 618 406 646 363 646 c 0
 320 646 285 618 285 584 c 0
297 428 m 4
 343.625976562 250.005859375 474 94 693 94 c 4
 912 94 1089 244 1089 428 c 4
 1089 612 911.58984375 775.39453125 693 762 c 4
 512.91796875 750.96484375 211 660.770507812 211 560 c 7
 211 514.623046875 282.458984375 483.509765625 297 428 c 4
EndSplineSet
EndChar

StartChar: parenleft
Encoding: 40 40 73
Width: 1300
Flags: W
HStem: -200 294<489.365 727.497> 370 52<611.773 680.412 836.412 888.442> 527 28<678.986 734.79 936.912 1014.46> 609 40<677.421 739.845> 619 40<936.076 1024.02> 780 20G<0 1300> 780 20G<0 1300>
VStem: 0 210.412<403.128 613.006> 605.412 69<556.043 605.896> 750.412 11<566.948 598.104> 873.412 83<559.073 614.412> 906.412 47<330.5 370.765> 1040.41 9<573.263 601.166>
LayerCount: 2
Fore
SplineSet
0 800 m 1xe5c8
 1300 800 l 1
 1300 -200 l 1
 0 -200 l 1
 0 800 l 1xe5c8
198.412109375 656 m 1048
834.412109375 301 m 1
 836.412109375 371 l 1
 906.412109375 371 l 1
 906.412109375 315 l 1xe1d8
 834.412109375 301 l 1
608.412109375 298 m 1
 608.412109375 370 l 1
 680.412109375 370 l 1
 680.412109375 284 l 1
 608.412109375 298 l 1
956.412109375 587 m 0xe9e8
 956.412109375 605 975.412109375 619 998.412109375 619 c 0
 1021.41210938 619 1040.41210938 605 1040.41210938 587 c 0
 1040.41210938 569 1021.41210938 555 998.412109375 555 c 0
 975.412109375 555 956.412109375 569 956.412109375 587 c 0xe9e8
674.412109375 581 m 0
 674.412109375 596 691.421875 609.65625 712.412109375 609 c 0xf1c8
 744.412109375 608 750.412109375 596 750.412109375 581 c 0
 750.412109375 566 733.412109375 553 712.412109375 553 c 0
 691.412109375 553 674.412109375 566 674.412109375 581 c 0
453.412109375 356 m 0
 453.412109375 320 565.412109375 290 703.412109375 290 c 0
 841.412109375 290 953.412109375 320 953.412109375 356 c 0xe1d8
 953.412109375 392 841.412109375 422 703.412109375 422 c 0
 565.412109375 422 453.412109375 392 453.412109375 356 c 0
873.412109375 593 m 0xe9e8
 873.412109375 557 912.412109375 527 961.412109375 527 c 0
 1010.41210938 527 1049.41210938 557 1049.41210938 593 c 0
 1049.41210938 629 1010.41210938 659 961.412109375 659 c 0
 912.412109375 659 873.412109375 629 873.412109375 593 c 0xe9e8
605.412109375 587 m 0
 605.412109375 553 640.412109375 525 683.412109375 525 c 0
 726.412109375 525 761.412109375 553 761.412109375 587 c 0
 761.412109375 621 726.412109375 649 683.412109375 649 c 0xf1c8
 640.412109375 649 605.412109375 621 605.412109375 587 c 0
224.412109375 428 m 4
 271.038085938 250.005859375 401.412109375 94 620.412109375 94 c 4
 839.412109375 94 890.584960938 293.748046875 1016.41210938 428 c 4
 1213.50292969 638.286132812 981.012695312 791.731445312 692.412109375 769 c 4
 512.549804688 754.833007812 210.412109375 667.770507812 210.412109375 567 c 7
 210.412109375 521.623046875 209.87109375 483.509765625 224.412109375 428 c 4
EndSplineSet
EndChar

StartChar: parenright
Encoding: 41 41 74
Width: 1300
Flags: W
HStem: -200 217<305.358 530.906 773.974 1000.03> 73 727<823 1000.03> 80 720<301.572 483>
VStem: 777 46<36 313.667>
LayerCount: 2
Fore
SplineSet
0 800 m 1xb0
 0 -200 l 1
 1300 -200 l 1
 1300 800 l 1
 0 800 l 1xb0
771 45 m 0
 771 60 823 73 887 73 c 0xd0
 951 73 1003 60 1003 45 c 0
 1003 30 951 17 887 17 c 0
 823 17 771 30 771 45 c 0
297 50 m 0
 297 67 351 80 417 80 c 0xb0
 483 80 541 68 541 51 c 0
 541 34 483 20 417 20 c 0
 351 20 297 33 297 50 c 0
777 348 m 1
 814 393 l 1
 823 36 l 1
 777 36 l 1
 777 348 l 1
529 350 m 1
 533 65 l 1
 487 77 l 1
 491 395 l 1
 529 350 l 1
385 662 m 25
 519 546 l 25
 651 678 l 25
 775 540 l 25
 925 692 l 25
 941 526 l 25
 695 264 l 25
 663 226 l 25
 349 530 l 25
 385 662 l 25
EndSplineSet
EndChar

StartChar: asterisk
Encoding: 42 42 75
Width: 1468
Flags: W
HStem: -200 217<473.358 698.906 941.974 1168.03> 73 727<991 1168.03> 80 720<469.572 651>
VStem: 945 46<36 313.667>
LayerCount: 2
Fore
SplineSet
84 800 m 1xb0
 84 -200 l 1
 1384 -200 l 1
 1384 800 l 1
 84 800 l 1xb0
939 45 m 0
 939 60 991 73 1055 73 c 0xd0
 1119 73 1171 60 1171 45 c 0
 1171 30 1119 17 1055 17 c 0
 991 17 939 30 939 45 c 0
465 50 m 0
 465 67 519 80 585 80 c 0xb0
 651 80 709 68 709 51 c 0
 709 34 651 20 585 20 c 0
 519 20 465 33 465 50 c 0
945 348 m 1
 982 393 l 1
 991 36 l 1
 945 36 l 1
 945 348 l 1
697 350 m 5
 701 65 l 5
 655 77 l 5
 659 395 l 5
 697 350 l 5
801 394 m 1
 801 384 l 1
 875 384 l 1
 875 394 l 1
 801 394 l 1
867 484 m 1
 867 472 l 1
 903 472 l 1
 903 484 l 1
 867 484 l 1
697 486 m 1
 697 470 l 1
 733 470 l 1
 733 486 l 1
 697 486 l 1
757 368 m 1
 911 368 l 1
 911 408 l 1
 757 408 l 1
 757 368 l 1
843 496 m 1
 843 454 l 1
 933 454 l 1
 933 496 l 1
 843 496 l 1
679 508 m 1
 679 444 l 1
 765 444 l 1
 765 508 l 1
 679 508 l 1
553 662 m 25
 687 546 l 25
 819 678 l 25
 943 540 l 25
 1093 692 l 25
 1109 526 l 25
 863 264 l 25
 831 226 l 25
 517 530 l 25
 553 662 l 25
EndSplineSet
EndChar

StartChar: plus
Encoding: 43 43 76
Width: 1300
Flags: W
HStem: -200 223<444.572 689.251 745.038 976.962> 73 727<797 974.026>
VStem: 695 50<37.2523 77.2491> 751 46<36 313.667>
LayerCount: 2
Fore
SplineSet
0 800 m 1
 0 -200 l 1
 1300 -200 l 1
 1300 800 l 1
 0 800 l 1
745 45 m 0
 745 60 797 73 861 73 c 0
 925 73 977 60 977 45 c 0
 977 30 925 17 861 17 c 0
 797 17 745 30 745 45 c 0
440 53 m 0
 440 70 505.017578125 83.5078125 571 82 c 0
 746 78 695 70 695 53 c 0
 695 36 626 23 560 23 c 0
 494 23 440 36 440 53 c 0
751 348 m 1
 788 393 l 1
 797 36 l 1
 751 36 l 1
 751 348 l 1
503 350 m 1
 507 65 l 1
 461 77 l 5
 465 395 l 5
 503 350 l 1
683 394 m 1
 683 384 l 1
 757 384 l 1
 757 394 l 1
 683 394 l 1
807 482 m 1
 807 470 l 1
 843 470 l 1
 843 482 l 1
 807 482 l 1
674 486 m 1
 674 470 l 1
 710 470 l 1
 710 486 l 1
 674 486 l 1
611 369 m 1
 765 369 l 1
 765 409 l 1
 611 409 l 1
 611 369 l 1
757 497 m 1
 756 454 l 1
 846 454 l 1
 847 497 l 1
 757 497 l 1
623 510 m 1
 623 446 l 1
 709 446 l 1
 709 510 l 1
 623 510 l 1
359 662 m 25
 493 546 l 25
 625 678 l 25
 749 540 l 25
 899 692 l 25
 915 526 l 25
 669 264 l 25
 637 226 l 25
 323 530 l 25
 359 662 l 25
EndSplineSet
EndChar

StartChar: comma
Encoding: 44 44 77
Width: 1300
Flags: W
HStem: -200 217<336.358 561.906 636.974 863.026> 36 37<808 853.298> 80 720<332.572 514>
VStem: 572 62<33.7207 60.6818> 808 46<36 313.667>
LayerCount: 2
Fore
SplineSet
0 800 m 1
 0 -200 l 1
 1300 -200 l 1
 1300 800 l 1
 0 800 l 1
634 45 m 0
 634 60 686 73 750 73 c 0
 814 73 866 60 866 45 c 0
 866 30 814 17 750 17 c 0
 686 17 634 30 634 45 c 0
328 50 m 0
 328 67 382 80 448 80 c 0
 514 80 572 68 572 51 c 0
 572 34 514 20 448 20 c 0
 382 20 328 33 328 50 c 0
808 348 m 1
 845 393 l 1
 854 36 l 1
 808 36 l 1
 808 348 l 1
560 350 m 5
 564 65 l 5
 518 77 l 5
 522 395 l 5
 560 350 l 5
550 398 m 1
 550 388 l 1
 624 388 l 1
 624 398 l 1
 592.13671875 398 575.3359375 398 550 398 c 1
656 492 m 1
 656 480 l 1
 692 480 l 1
 692 492 l 1
 656 492 l 1
492 490 m 1
 492 474 l 1
 528 474 l 1
 528 490 l 1
 492 490 l 1
540 372 m 1
 694 372 l 1
 694 412 l 1
 540 412 l 1
 540 372 l 1
647 504 m 1
 647 462 l 1
 737 462 l 1
 737 504 l 1
 647 504 l 1
486 514 m 1
 486 450 l 1
 572 450 l 1
 572 514 l 1
 486 514 l 1
416 662 m 25
 550 546 l 25
 682 678 l 25
 806 540 l 25
 956 692 l 25
 972 526 l 25
 726 264 l 25
 694 226 l 25
 380 530 l 25
 416 662 l 25
EndSplineSet
EndChar

StartChar: hyphen
Encoding: 45 45 78
Width: 1300
Flags: W
LayerCount: 2
Fore
SplineSet
0 800 m 1
 0 -200 l 1
 1300 -200 l 1
 1300 800 l 1
 0 800 l 1
733.393554688 102 m 27
 811.393554688 102 849.393554688 154 927.393554688 154 c 27
 972.393554688 154 870.393554688 100 825.393554688 100 c 27
 789.393554688 100 769.393554688 102 733.393554688 102 c 27
496.393554688 102 m 27
 560.393554688 102 586.393554688 156 650.393554688 156 c 27
 690.393554688 156 607.393554688 96 567.393554688 96 c 27
 539.393554688 96 524.393554688 102 496.393554688 102 c 27
820.393554688 98 m 27
 855.393554688 98 765.393554688 99 730.393554688 99 c 1048
729.393554688 368 m 29
 804.393554688 458 l 29
 825.393554688 98 l 29
 730.393554688 98 l 29
 729.393554688 368 l 29
719.393554688 352 m 1049
485.393554688 422 m 25
 557.393554688 328 l 25
 567.393554688 98 l 25
 493.393554688 98 l 25
 491.393554688 200 l 25
 485.393554688 422 l 25
361.393554688 578 m 9
 469.393554688 702 l 25
 535.393554688 574 l 25
 645.393554688 702 l 25
 715.393554688 576 l 25
 839.393554688 698 l 25
 889.393554688 568 l 17
 730.60546875 368 l 1
 717.90234375 352 l 1
 627.393554688 238 l 1
 485.004882812 420 l 1
 361.393554688 578 l 9
EndSplineSet
EndChar

StartChar: period
Encoding: 46 46 79
Width: 1300
Flags: W
HStem: -200 260<484.662 638.76 728.805 918.874> -200 238<508.364 698.069> 92 6<496.34 570.34> 96 2<496.34 518.379 733.587 761.695> 364 65<546.553 573.882> 486 3<497.84 579.34> 490 5<709.34 785.34> 518 20<565.735 580.944 772.342 786.338> 563 1<497.84 579.34>
VStem: 565.34 16<515.003 534.997> 570.34 163<98 259> 583.34 42<503.912 547.864> 772.34 14<518.003 537.997> 787.34 43<507.501 548.28>
LayerCount: 2
Fore
SplineSet
0 800 m 1x4f8c
 0 -200 l 1
 1300 -200 l 1
 1300 800 l 1
 0 800 l 1x4f8c
580.33984375 92 m 27x2f8c
 635.33984375 92 765.33984375 38 710.33984375 38 c 27x6f8c
 631.33984375 38 587.33984375 60 508.33984375 60 c 27
 492.33984375 60 472.33984375 96 488.33984375 96 c 27x9f8c
 524.33984375 96 544.33984375 92 580.33984375 92 c 27x2f8c
844.33984375 104 m 27
 882.33984375 104 970.33984375 60 932.33984375 60 c 27
 854.33984375 60 810.33984375 78 732.33984375 78 c 27
 725.33984375 78 729.33984375 96 736.33984375 96 c 27x9f8c
 778.33984375 96 802.33984375 104 844.33984375 104 c 27
732.33984375 368 m 25
 807.33984375 458 l 25
 828.33984375 98 l 25
 733.33984375 98 l 25x1fac
 732.33984375 368 l 25
722.33984375 352 m 1049
488.33984375 422 m 25
 560.33984375 328 l 25
 570.33984375 98 l 25
 496.33984375 98 l 25x2fac
 494.33984375 200 l 25
 488.33984375 422 l 25
593.33984375 446 m 25
 644.33984375 468 l 25
 628.33984375 394 l 25
 593.33984375 446 l 25
570.33984375 364 m 1
 587.33984375 417 l 25
 615.33984375 367 l 25
 666.33984375 375 l 25
 667.33984375 425 l 25
 706.33984375 390 l 1
 641.33984375 370 l 1
 570.33984375 364 l 1
772.33984375 528 m 0
 772.33984375 534 775.33984375 538 779.33984375 538 c 0
 783.33984375 538 786.33984375 534 786.33984375 528 c 0
 786.33984375 522 783.33984375 518 779.33984375 518 c 0
 775.33984375 518 772.33984375 522 772.33984375 528 c 0
565.33984375 525 m 0x0fcc
 565.33984375 531 569.33984375 535 573.33984375 535 c 0
 577.33984375 535 581.33984375 531 581.33984375 525 c 0
 581.33984375 519 577.33984375 515 573.33984375 515 c 0
 569.33984375 515 565.33984375 519 565.33984375 525 c 0x0fcc
769.33984375 526 m 0
 768.902092875 545.346006426 770.5587744 557.845121985 778.33984375 562 c 0
 782.750437121 564.355136114 787.33984375 546 787.33984375 526 c 0
 787.33984375 506 783.33984375 490 778.33984375 490 c 0
 773.33984375 490 769.792277026 506.005118052 769.33984375 526 c 0
561.33984375 525 m 0
 561.33984375 547 566.33984375 564 572.33984375 564 c 0
 578.33984375 564 583.33984375 547 583.33984375 525 c 0x0f9c
 583.33984375 503 578.33984375 486 572.33984375 486 c 0
 566.33984375 486 561.33984375 503 561.33984375 525 c 0
537.33984375 429 m 11
 510.33984375 429 535.33984375 364 562.33984375 364 c 27
 643.33984375 364 749.33984375 376 749.33984375 457 c 19
 749.33984375 516.671875 672.663085938 480.537109375 604.33984375 453 c 1
 600.8515625 451.594726562 597.530273438 450.146484375 594.33984375 448.69140625 c 1
 573.091796875 439.00390625 557.622070312 429 537.33984375 429 c 11
640.33984375 528 m 0
 640.33984375 510 683.33984375 495 735.33984375 495 c 0
 787.33984375 495 830.33984375 510 830.33984375 528 c 0
 830.33984375 546 787.33984375 561 735.33984375 561 c 0
 683.33984375 561 640.33984375 546 640.33984375 528 c 0
425.33984375 526 m 0
 425.33984375 506 470.33984375 489 525.33984375 489 c 0
 580.33984375 489 625.33984375 506 625.33984375 526 c 0
 625.33984375 546 580.33984375 563 525.33984375 563 c 0
 470.33984375 563 425.33984375 546 425.33984375 526 c 0
358.33984375 584 m 1
 377.33984375 704 l 25
 534.33984375 574 l 1
 570.33984375 718 l 25x0fac
 714.33984375 576 l 1
 730.33984375 726 l 25
 888.33984375 568 l 1
 729.551757812 368 l 1
 716.848632812 352 l 1
 626.33984375 238 l 1
 483.951171875 420 l 1
 358.33984375 584 l 1
EndSplineSet
EndChar

StartChar: seven
Encoding: 55 55 80
Width: 1387
Flags: W
HStem: -37.7588 119.448<487.215 515.37 871.605 905.229> -37.7588 59.7236<454.605 487.178 546.776 546.904 606.629 785.801 845.525 845.711 905.252 932.397> -5.18164 59.7246<422.047 454.604 932.398 964.953> -5.18164 27.1465<546.946 606.616 785.814 845.492> 21.9648 32.5781<456.23 485.551 907.422 930.227> 54.543 86.8701<422.025 438.314 455.086 487.158 905.293 932.355 948.686 964.975> 201.14 92.2998<850.101 905.25> 326.017 27.1484<514.378 546.902 845.527 872.122> 445.467 59.7236<514.347 546.883 845.561 872.499> 505.19 27.1475<546.904 573.499 812.949 812.949 829.236 845.525> 624.638 27.1475<606.629 633.723> 651.785 59.7246<635.404 663.637 666.353 693.465> 651.785 32.5781<633.775 666.35> 684.363 59.7246<726.121 753.189> 744.088 32.5771<666.352 696.215>
VStem: 422.025 32.5781<21.9908 54.5424 54.543 54.543> 454.604 59.7227<54.543 82.6318> 454.604 32.5762<23.5938 52.9131 81.6372 141.413 293.568 325.888> 514.326 32.5781<445.467 505.19> 546.904 59.7246<-21.4707 -5.18164 505.19 533.287> 574.051 32.5781<532.286 578.488> 606.629 27.1465<624.69 651.463> 633.775 32.5762<711.51 743.981> 666.352 27.1484<684.406 711.467> 726.078 27.1465<684.377 744.088> 753.225 32.5762<624.638 684.363> 785.801 59.7246<-21.4707 -5.18164 505.19 532.338> 785.801 27.1484<532.338 624.638> 845.525 27.1484<445.48 505.19> 872.674 32.5762<353.113 445.467> 905.25 27.1484<24.6807 51.8281 81.7027 141.413 293.475 325.762> 932.398 32.5762<21.9912 54.542 141.413 201.14>
LayerCount: 2
Fore
SplineSet
814 283 m 31x07000001
 814 301 813.4921875 293.439453125 859.099609375 293.439453125 c 6
 905.25 293.439453125 l 5
 905.25 309.728515625 l 6
 905.25 326.016601562 904.70703125 326.016601562 875.388671875 326.016601562 c 4
 847.154296875 326.016601562 845.525390625 326.559570312 845.525390625 339.58984375 c 4x0700000a
 845.525390625 350.44921875 848.240234375 353.165039062 859.099609375 353.165039062 c 4
 872.673828125 353.165039062 872.673828125 353.70703125 872.673828125 399.314453125 c 4
 872.673828125 444.922851562 872.673828125 445.466796875 859.099609375 445.466796875 c 4x07800004
 846.068359375 445.466796875 845.525390625 447.095703125 845.525390625 475.328125 c 6
 845.525390625 505.190429688 l 5
 815.6640625 505.190429688 l 5
 785.80078125 505.190429688 l 5
 785.80078125 564.9140625 l 5
 785.80078125 624.637695312 l 5x03600018
 769.513671875 624.637695312 l 6
 753.224609375 624.637695312 753.224609375 625.181640625 753.224609375 654.5 c 4
 753.224609375 682.734375 752.681640625 684.36328125 739.650390625 684.36328125 c 4x03640040
 726.619140625 684.36328125 726.078125 685.993164062 726.078125 714.225585938 c 6
 726.078125 744.087890625 l 5
 696.21484375 744.087890625 l 6
 666.896484375 744.087890625 666.3515625 744.087890625 666.3515625 727.798828125 c 4
 666.3515625 714.225585938 668.525390625 711.509765625 679.92578125 711.509765625 c 4x03120280
 692.95703125 711.509765625 693.5 709.881835938 693.5 681.6484375 c 6
 693.5 651.78515625 l 5x030801
 663.63671875 651.78515625 l 6x031001
 635.404296875 651.78515625 633.775390625 651.244140625 633.775390625 638.211914062 c 4
 633.775390625 627.353515625 631.060546875 624.637695312 620.203125 624.637695312 c 6
 606.62890625 624.637695312 l 5x032005
 606.62890625 564.9140625 l 5x032008
 606.62890625 505.190429688 l 5x036004
 576.765625 505.190429688 l 5
 546.904296875 505.190429688 l 5x036010
 546.904296875 475.328125 l 6
 546.904296875 446.0078125 546.904296875 445.466796875 530.615234375 445.466796875 c 6
 514.326171875 445.466796875 l 5
 514.326171875 399.314453125 l 5
 514.326171875 353.165039062 l 5x038020
 530.615234375 353.165039062 l 6
 544.189453125 353.165039062 546.904296875 350.9921875 546.904296875 339.58984375 c 4
 546.904296875 326.559570312 545.275390625 326.016601562 517.04296875 326.016601562 c 4
 487.72265625 326.016601562 487.1796875 326.016601562 487.1796875 309.728515625 c 4
 487.1796875 293.439453125 487.72265625 293.439453125 517.04296875 293.439453125 c 4
 545.275390625 293.439453125 546.904296875 293 546.904296875 279.866210938 c 6
 546.904296875 266.29296875 l 5
 546.904296875 216.29296875 433 218 455 173 c 6
 434 152 454.603515625 141.413085938 470.890625 141.413085938 c 4x078050
 487.1796875 141.413085938 487.1796875 140.87109375 487.1796875 111.552734375 c 4
 487.1796875 83.3193359375 487.72265625 81.689453125 500.751953125 81.689453125 c 4x830050
 511.611328125 81.689453125 514.326171875 78.9755859375 514.326171875 68.1162109375 c 4
 514.326171875 56.7138671875 517.04296875 54.54296875 530.615234375 54.54296875 c 4
 545.275390625 54.54296875 546.904296875 52.9130859375 546.904296875 38.2548828125 c 4x070090
 546.904296875 24.6806640625 549 21.96484375 560.478515625 21.96484375 c 6
 574.05078125 21.96484375 l 5
 809 22 l 5
 829.236328125 21.96484375 l 6
 844 21.939453125 845.525390625 23.59375 845.525390625 38.2548828125 c 4x17000808
 845.525390625 51.828125 847.697265625 54.54296875 859.099609375 54.54296875 c 4
 869.95703125 54.54296875 872.673828125 57.2578125 872.673828125 68.1162109375 c 4x17000004
 872.673828125 79.5185546875 875.388671875 81.689453125 888.9609375 81.689453125 c 4
 905.25 81.689453125 905.25 82.234375 905.25 111.552734375 c 4x83000002
 905.25 139.78515625 905.79296875 141.413085938 918.82421875 141.413085938 c 4
 931.85546875 141.413085938 932.3984375 143 932.3984375 171.275390625 c 6
 932.3984375 201.139648438 l 4
 876.3984375 201.139648438 814 227 814 283 c 31x07000001
633.775390625 744.087890625 m 5x03020280
 633.775390625 711.509765625 l 5x03120280
 650.064453125 711.509765625 l 6
 663.63671875 711.509765625 666.3515625 709.33984375 666.3515625 697.9375 c 4x031201
 666.3515625 686.53515625 663.63671875 684.36328125 650.064453125 684.36328125 c 4
 635.404296875 684.36328125 633.775390625 682.734375 633.775390625 668.07421875 c 4x030802
 633.775390625 654.5 631.603515625 651.78515625 620.203125 651.78515625 c 4
 609.34375 651.78515625 606.62890625 649.071289062 606.62890625 638.211914062 c 4x032004
 606.62890625 626.811523438 603.916015625 624.637695312 590.33984375 624.637695312 c 6
 574.05078125 624.637695312 l 5
 574.05078125 578.48828125 l 6x032008
 574.05078125 532.880859375 574.05078125 532.337890625 560.478515625 532.337890625 c 4
 549.619140625 532.337890625 546.904296875 529.622070312 546.904296875 518.764648438 c 4x036010
 546.904296875 507.362304688 544.189453125 505.190429688 530.615234375 505.190429688 c 4
 514.326171875 505.190429688 514.326171875 504.646484375 514.326171875 475.328125 c 4
 514.326171875 447.095703125 513.78515625 445.466796875 500.751953125 445.466796875 c 6
 487.1796875 445.466796875 l 5
 487.1796875 385.741210938 l 5
 487.1796875 326.016601562 l 5
 470.890625 326.016601562 l 6
 456.23046875 326.016601562 454.603515625 324.388671875 454.603515625 309.728515625 c 4x038060
 454.603515625 295.069335938 452.97265625 293.439453125 438.314453125 293.439453125 c 6
 422.025390625 293.439453125 l 5
 422.025390625 217.427734375 l 5
 422.025390625 141.413085938 l 5x0781
 438.314453125 141.413085938 l 5
 454.603515625 141.413085938 l 5
 454.603515625 97.978515625 l 5x078040
 454.603515625 54.54296875 l 5x0781
 438.314453125 54.54296875 l 6
 422.025390625 54.54296875 422.025390625 53.9990234375 422.025390625 24.6806640625 c 4
 422.025390625 -4.6376953125 422.025390625 -5.181640625 438.314453125 -5.181640625 c 4x2301
 452.97265625 -5.181640625 454.603515625 -6.810546875 454.603515625 -21.470703125 c 6
 454.603515625 -37.7587890625 l 5x430040
 500.751953125 -37.7587890625 l 5x830040
 546.904296875 -37.7587890625 l 5x430050
 546.904296875 -21.470703125 l 6
 546.904296875 -5.181640625 547.4453125 -5.181640625 576.765625 -5.181640625 c 4
 606.0859375 -5.181640625 606.62890625 -5.181640625 606.62890625 -21.470703125 c 6x130050
 606.62890625 -37.7587890625 l 5
 696.21484375 -37.7587890625 l 5
 785.80078125 -37.7587890625 l 5x43000410
 785.80078125 -21.470703125 l 6
 785.80078125 -5.181640625 786.34375 -5.181640625 815.6640625 -5.181640625 c 4
 844.982421875 -5.181640625 845.525390625 -5.181640625 845.525390625 -21.470703125 c 6x13000020
 845.525390625 -37.7587890625 l 5x43000008
 888.9609375 -37.7587890625 l 5x83000008
 932.3984375 -37.7587890625 l 5x43000009
 932.3984375 -21.470703125 l 6
 932.3984375 -6.810546875 934.02734375 -5.181640625 948.685546875 -5.181640625 c 4
 964.974609375 -5.181640625 964.974609375 -4.6376953125 964.974609375 24.6806640625 c 4
 964.974609375 53.9990234375 964.974609375 54.54296875 948.685546875 54.54296875 c 6x23000009
 932.3984375 54.54296875 l 5x07000009
 932.3984375 97.978515625 l 5x07000002
 932.3984375 141.413085938 l 5
 948.685546875 141.413085938 l 5
 964.974609375 141.413085938 l 5
 964.974609375 217.427734375 l 5
 964.974609375 293.439453125 l 5x07000001
 948.685546875 293.439453125 l 6
 934.02734375 293.439453125 932.3984375 295.069335938 932.3984375 309.728515625 c 4
 932.3984375 323.301757812 930.2265625 326.016601562 918.82421875 326.016601562 c 6
 905.25 326.016601562 l 5x07000002
 905.25 385.741210938 l 5x07000004
 905.25 445.466796875 l 5
 888.9609375 445.466796875 l 6
 872.673828125 445.466796875 872.673828125 446.0078125 872.673828125 475.328125 c 4x0780000a
 872.673828125 503.561523438 872.12890625 505.190429688 859.099609375 505.190429688 c 4
 848.240234375 505.190429688 845.525390625 507.905273438 845.525390625 518.764648438 c 4x07800020
 845.525390625 530.165039062 842.8125 532.337890625 829.236328125 532.337890625 c 6
 812.94921875 532.337890625 l 5
 812.94921875 578.48828125 l 6x03400010
 812.94921875 624.095703125 812.94921875 624.637695312 799.375 624.637695312 c 4
 786.34375 624.637695312 785.80078125 626.268554688 785.80078125 654.5 c 4x03600040
 785.80078125 683.819335938 785.80078125 684.36328125 769.513671875 684.36328125 c 4
 753.224609375 684.36328125 753.224609375 684.905273438 753.224609375 714.225585938 c 4
 753.224609375 742.458984375 752.681640625 744.087890625 739.650390625 744.087890625 c 4x03640080
 728.248046875 744.087890625 726.078125 746.802734375 726.078125 760.376953125 c 6
 726.078125 776.665039062 l 5
 679.92578125 776.665039062 l 5
 633.775390625 776.665039062 l 5
 633.775390625 744.087890625 l 5x03020280
845.525390625 339.58984375 m 1028x03000008
845.525390625 505.190429688 m 1029x03400008
739.650390625 684.36328125 m 1028x0304
633.775390625 638.211914062 m 1028x030004
514.326171875 353.165039062 m 1029x030020
487.1796875 38.2548828125 m 4x430040
 487.1796875 52.9130859375 485.55078125 54.54296875 470.890625 54.54296875 c 4
 456.23046875 54.54296875 454.603515625 52.9130859375 454.603515625 38.2548828125 c 4x0b01
 454.603515625 23.59375 456.23046875 21.96484375 470.890625 21.96484375 c 4
 485.55078125 21.96484375 487.1796875 23.59375 487.1796875 38.2548828125 c 4x430040
932.3984375 38.2548828125 m 4x43000002
 932.3984375 51.828125 930.2265625 54.54296875 918.82421875 54.54296875 c 4x0b000002
 907.421875 54.54296875 905.25 51.828125 905.25 38.2548828125 c 4
 905.25 24.6806640625 907.421875 21.96484375 918.82421875 21.96484375 c 4
 930.2265625 21.96484375 932.3984375 24.6806640625 932.3984375 38.2548828125 c 4x43000002
769.513671875 505.190429688 m 1028x0340
633.775390625 744.087890625 m 5x031202
 633.775390625 776.665039062 l 5
 679.92578125 776.665039062 l 5
 726.078125 776.665039062 l 5x03120280
 726.078125 760.376953125 l 6
 726.078125 746.802734375 728.248046875 744.087890625 739.650390625 744.087890625 c 4
 752.681640625 744.087890625 753.224609375 742.458984375 753.224609375 714.225585938 c 4x03040280
 753.224609375 684.905273438 753.224609375 684.36328125 769.513671875 684.36328125 c 4
 785.80078125 684.36328125 785.80078125 683.819335938 785.80078125 654.5 c 4x03040040
 785.80078125 626.268554688 786.34375 624.637695312 799.375 624.637695312 c 4
 812.94921875 624.637695312 812.94921875 624.095703125 812.94921875 578.48828125 c 6
 812.94921875 532.337890625 l 5x03640010
 829.236328125 532.337890625 l 6
 842.8125 532.337890625 845.525390625 530.165039062 845.525390625 518.764648438 c 4x03640020
 845.525390625 507.905273438 848.240234375 505.190429688 859.099609375 505.190429688 c 4
 872.12890625 505.190429688 872.673828125 503.561523438 872.673828125 475.328125 c 4
 872.673828125 446.0078125 872.673828125 445.466796875 888.9609375 445.466796875 c 6
 905.25 445.466796875 l 5x0380000a
 905.25 385.741210938 l 5x03800004
 905.25 326.016601562 l 5
 918.82421875 326.016601562 l 6
 930.2265625 326.016601562 932.3984375 323.301757812 932.3984375 309.728515625 c 4x03800002
 932.3984375 295.069335938 934.02734375 293.439453125 948.685546875 293.439453125 c 6
 964.974609375 293.439453125 l 5
 964.974609375 217.427734375 l 5
 964.974609375 141.413085938 l 5
 948.685546875 141.413085938 l 5
 932.3984375 141.413085938 l 5x07800001
 932.3984375 97.978515625 l 5x07800002
 932.3984375 54.54296875 l 5x07800001
 948.685546875 54.54296875 l 6
 964.974609375 54.54296875 964.974609375 53.9990234375 964.974609375 24.6806640625 c 4
 964.974609375 -4.6376953125 964.974609375 -5.181640625 948.685546875 -5.181640625 c 4x23000001
 934.02734375 -5.181640625 932.3984375 -6.810546875 932.3984375 -21.470703125 c 6
 932.3984375 -37.7587890625 l 5x43000001
 888.9609375 -37.7587890625 l 5x83000001
 845.525390625 -37.7587890625 l 5x43000009
 845.525390625 -21.470703125 l 6
 845.525390625 -5.181640625 844.982421875 -5.181640625 815.6640625 -5.181640625 c 4
 786.34375 -5.181640625 785.80078125 -5.181640625 785.80078125 -21.470703125 c 6x13000020
 785.80078125 -37.7587890625 l 5
 696.21484375 -37.7587890625 l 5
 606.62890625 -37.7587890625 l 5x43000410
 606.62890625 -21.470703125 l 6
 606.62890625 -5.181640625 606.0859375 -5.181640625 576.765625 -5.181640625 c 4x130010
 547.4453125 -5.181640625 546.904296875 -5.181640625 546.904296875 -21.470703125 c 6
 546.904296875 -37.7587890625 l 5x430010
 500.751953125 -37.7587890625 l 5x830010
 454.603515625 -37.7587890625 l 5
 454.603515625 -21.470703125 l 6x430050
 454.603515625 -6.810546875 452.97265625 -5.181640625 438.314453125 -5.181640625 c 4
 422.025390625 -5.181640625 422.025390625 -4.6376953125 422.025390625 24.6806640625 c 4
 422.025390625 53.9990234375 422.025390625 54.54296875 438.314453125 54.54296875 c 6x2301
 454.603515625 54.54296875 l 5x0701
 454.603515625 97.978515625 l 5
 454.603515625 141.413085938 l 5x070040
 438.314453125 141.413085938 l 5
 422.025390625 141.413085938 l 5
 422.025390625 217.427734375 l 5
 422.025390625 293.439453125 l 5x0701
 438.314453125 293.439453125 l 6
 452.97265625 293.439453125 454.603515625 295.069335938 454.603515625 309.728515625 c 4
 454.603515625 324.388671875 456.23046875 326.016601562 470.890625 326.016601562 c 6
 487.1796875 326.016601562 l 5
 487.1796875 385.741210938 l 5
 487.1796875 445.466796875 l 5
 500.751953125 445.466796875 l 6
 513.78515625 445.466796875 514.326171875 447.095703125 514.326171875 475.328125 c 4x078060
 514.326171875 504.646484375 514.326171875 505.190429688 530.615234375 505.190429688 c 4
 544.189453125 505.190429688 546.904296875 507.362304688 546.904296875 518.764648438 c 4x078010
 546.904296875 529.622070312 549.619140625 532.337890625 560.478515625 532.337890625 c 4
 574.05078125 532.337890625 574.05078125 532.880859375 574.05078125 578.48828125 c 6
 574.05078125 624.637695312 l 5x036008
 590.33984375 624.637695312 l 6
 603.916015625 624.637695312 606.62890625 626.811523438 606.62890625 638.211914062 c 4x036004
 606.62890625 649.071289062 609.34375 651.78515625 620.203125 651.78515625 c 4
 631.603515625 651.78515625 633.775390625 654.5 633.775390625 668.07421875 c 4x036002
 633.775390625 682.734375 635.404296875 684.36328125 650.064453125 684.36328125 c 4
 663.63671875 684.36328125 666.3515625 686.53515625 666.3515625 697.9375 c 4x030801
 666.3515625 709.33984375 663.63671875 711.509765625 650.064453125 711.509765625 c 6
 633.775390625 711.509765625 l 5
 633.775390625 744.087890625 l 5x031202
845.525390625 339.58984375 m 1028x03000008
845.525390625 505.190429688 m 1029x03400008
739.650390625 684.36328125 m 1028x0304
633.775390625 638.211914062 m 1028x030004
514.326171875 353.165039062 m 1029x030020
487.1796875 38.2548828125 m 4x430040
 487.1796875 52.9130859375 485.55078125 54.54296875 470.890625 54.54296875 c 4
 456.23046875 54.54296875 454.603515625 52.9130859375 454.603515625 38.2548828125 c 4x0b01
 454.603515625 23.59375 456.23046875 21.96484375 470.890625 21.96484375 c 4
 485.55078125 21.96484375 487.1796875 23.59375 487.1796875 38.2548828125 c 4x430040
932.3984375 38.2548828125 m 4x43000002
 932.3984375 51.828125 930.2265625 54.54296875 918.82421875 54.54296875 c 4x0b000002
 907.421875 54.54296875 905.25 51.828125 905.25 38.2548828125 c 4
 905.25 24.6806640625 907.421875 21.96484375 918.82421875 21.96484375 c 4
 930.2265625 21.96484375 932.3984375 24.6806640625 932.3984375 38.2548828125 c 4x43000002
633.775390625 744.087890625 m 5x031202
 633.775390625 776.665039062 l 5
 679.92578125 776.665039062 l 5
 726.078125 776.665039062 l 5x03120280
 726.078125 760.376953125 l 6
 726.078125 746.802734375 728.248046875 744.087890625 739.650390625 744.087890625 c 4
 752.681640625 744.087890625 753.224609375 742.458984375 753.224609375 714.225585938 c 4x03040280
 753.224609375 684.905273438 753.224609375 684.36328125 769.513671875 684.36328125 c 4
 785.80078125 684.36328125 785.80078125 683.819335938 785.80078125 654.5 c 4x03040040
 785.80078125 626.268554688 786.34375 624.637695312 799.375 624.637695312 c 4
 812.94921875 624.637695312 812.94921875 624.095703125 812.94921875 578.48828125 c 6
 812.94921875 532.337890625 l 5x03640010
 829.236328125 532.337890625 l 6
 842.8125 532.337890625 845.525390625 530.165039062 845.525390625 518.764648438 c 4x03640020
 845.525390625 507.905273438 848.240234375 505.190429688 859.099609375 505.190429688 c 4
 872.12890625 505.190429688 872.673828125 503.561523438 872.673828125 475.328125 c 4
 872.673828125 446.0078125 872.673828125 445.466796875 888.9609375 445.466796875 c 6
 905.25 445.466796875 l 5x0380000a
 905.25 385.741210938 l 5x03800004
 905.25 326.016601562 l 5
 918.82421875 326.016601562 l 6
 930.2265625 326.016601562 932.3984375 323.301757812 932.3984375 309.728515625 c 4x03800002
 932.3984375 295.069335938 934.02734375 293.439453125 948.685546875 293.439453125 c 6
 964.974609375 293.439453125 l 5
 964.974609375 217.427734375 l 5
 964.974609375 141.413085938 l 5
 948.685546875 141.413085938 l 5
 932.3984375 141.413085938 l 5x07800001
 932.3984375 97.978515625 l 5x07800002
 932.3984375 54.54296875 l 5x07800001
 948.685546875 54.54296875 l 6
 964.974609375 54.54296875 964.974609375 53.9990234375 964.974609375 24.6806640625 c 4
 964.974609375 -4.6376953125 964.974609375 -5.181640625 948.685546875 -5.181640625 c 4x23000001
 934.02734375 -5.181640625 932.3984375 -6.810546875 932.3984375 -21.470703125 c 6
 932.3984375 -37.7587890625 l 5x43000001
 888.9609375 -37.7587890625 l 5x83000001
 845.525390625 -37.7587890625 l 5x43000009
 845.525390625 -21.470703125 l 6
 845.525390625 -5.181640625 844.982421875 -5.181640625 815.6640625 -5.181640625 c 4
 786.34375 -5.181640625 785.80078125 -5.181640625 785.80078125 -21.470703125 c 6x13000020
 785.80078125 -37.7587890625 l 5
 696.21484375 -37.7587890625 l 5
 606.62890625 -37.7587890625 l 5x43000410
 606.62890625 -21.470703125 l 6
 606.62890625 -5.181640625 606.0859375 -5.181640625 576.765625 -5.181640625 c 4x130010
 547.4453125 -5.181640625 546.904296875 -5.181640625 546.904296875 -21.470703125 c 6
 546.904296875 -37.7587890625 l 5x430010
 500.751953125 -37.7587890625 l 5x830010
 454.603515625 -37.7587890625 l 5
 454.603515625 -21.470703125 l 6x430050
 454.603515625 -6.810546875 452.97265625 -5.181640625 438.314453125 -5.181640625 c 4
 422.025390625 -5.181640625 422.025390625 -4.6376953125 422.025390625 24.6806640625 c 4
 422.025390625 53.9990234375 422.025390625 54.54296875 438.314453125 54.54296875 c 6x2301
 454.603515625 54.54296875 l 5x0701
 454.603515625 97.978515625 l 5
 454.603515625 141.413085938 l 5x070040
 438.314453125 141.413085938 l 5
 422.025390625 141.413085938 l 5
 422.025390625 217.427734375 l 5
 422.025390625 293.439453125 l 5x0701
 438.314453125 293.439453125 l 6
 452.97265625 293.439453125 454.603515625 295.069335938 454.603515625 309.728515625 c 4
 454.603515625 324.388671875 456.23046875 326.016601562 470.890625 326.016601562 c 6
 487.1796875 326.016601562 l 5
 487.1796875 385.741210938 l 5
 487.1796875 445.466796875 l 5
 500.751953125 445.466796875 l 6
 513.78515625 445.466796875 514.326171875 447.095703125 514.326171875 475.328125 c 4x078060
 514.326171875 504.646484375 514.326171875 505.190429688 530.615234375 505.190429688 c 4
 544.189453125 505.190429688 546.904296875 507.362304688 546.904296875 518.764648438 c 4x078010
 546.904296875 529.622070312 549.619140625 532.337890625 560.478515625 532.337890625 c 4
 574.05078125 532.337890625 574.05078125 532.880859375 574.05078125 578.48828125 c 6
 574.05078125 624.637695312 l 5x036008
 590.33984375 624.637695312 l 6
 603.916015625 624.637695312 606.62890625 626.811523438 606.62890625 638.211914062 c 4x036004
 606.62890625 649.071289062 609.34375 651.78515625 620.203125 651.78515625 c 4
 631.603515625 651.78515625 633.775390625 654.5 633.775390625 668.07421875 c 4x036002
 633.775390625 682.734375 635.404296875 684.36328125 650.064453125 684.36328125 c 4
 663.63671875 684.36328125 666.3515625 686.53515625 666.3515625 697.9375 c 4x030801
 666.3515625 709.33984375 663.63671875 711.509765625 650.064453125 711.509765625 c 6
 633.775390625 711.509765625 l 5
 633.775390625 744.087890625 l 5x031202
487.1796875 38.2548828125 m 4x430040
 487.1796875 52.9130859375 485.55078125 54.54296875 470.890625 54.54296875 c 4
 456.23046875 54.54296875 454.603515625 52.9130859375 454.603515625 38.2548828125 c 4x0b01
 454.603515625 23.59375 456.23046875 21.96484375 470.890625 21.96484375 c 4
 485.55078125 21.96484375 487.1796875 23.59375 487.1796875 38.2548828125 c 4x430040
932.3984375 38.2548828125 m 4x43000002
 932.3984375 51.828125 930.2265625 54.54296875 918.82421875 54.54296875 c 4x0b000002
 907.421875 54.54296875 905.25 51.828125 905.25 38.2548828125 c 4
 905.25 24.6806640625 907.421875 21.96484375 918.82421875 21.96484375 c 4
 930.2265625 21.96484375 932.3984375 24.6806640625 932.3984375 38.2548828125 c 4x43000002
EndSplineSet
EndChar

StartChar: eight
Encoding: 56 56 81
Width: 1387
Flags: W
HStem: -37.7588 119.448<487.215 515.37 871.605 905.229> -37.7588 32.5771<606.629 785.801> -5.18164 27.1465<546.947 574.051 812.999 845.488> -5.18164 6<554.995 603.953> 21.9648 32.5781<633.775 755.225> 54.543 86.8701<454.625 487.158 905.293 932.355> 81.6895 32.5781<606.629 785.801> 141.413 152.026<422.025 454.604 932.398 964.975> 173.991 92.3018<546.904 574.051 606.629 666.352 726.078 785.213> 201.14 124.877<454.604 487.035 905.25 932.398> 201.14 92.2998<487.18 515.268 871.732 905.25> 326.017 27.1484<514.378 546.902 845.527 872.122> 445.467 59.7236<514.347 546.883 845.561 872.499> 472.612 32.5781<606.631 633.774 754.854 784.172> 505.19 119.447<574.051 606.629 785.836 812.774> 505.19 27.1475<546.904 573.499 812.949 845.525> 624.638 27.1475<606.629 633.723> 651.785 59.7246<666.353 693.465> 651.785 32.5781<633.775 666.35> 684.363 59.7246<726.121 753.189> 711.51 65.1553<633.775 666.35> 744.088 32.5771<666.352 726.078>
VStem: 422.025 32.5781<21.9908 54.5424 141.413 201.14> 454.604 32.5762<81.6372 141.413 293.568 325.888> 487.18 27.1465<353.165 445.467> 514.326 32.5781<445.467 505.19> 546.904 59.7246<505.19 533.287> 574.051 32.5781<114.268 173.991 532.286 624.638> 606.629 27.1465<472.614 505.188 624.69 651.463> 633.775 32.5762<711.51 743.981> 666.352 27.1484<684.406 711.467> 726.078 27.1465<684.377 744.088> 733.801 19.4238<21.9648 54.543> 753.225 32.5762<474.242 503.562 624.638 684.363> 785.801 59.7246<505.19 532.338> 785.801 27.1484<21.9648 81.6895 114.268 173.991 532.338 624.638> 845.525 27.1484<445.48 505.19> 872.674 32.5762<353.113 445.467> 905.25 27.1484<81.7027 141.413 293.475 325.762> 932.398 32.5762<21.9912 54.542 141.413 201.14>
LayerCount: 2
Fore
SplineSet
633.775390625 744.087890625 m 1x00000404
 633.775390625 776.665039062 l 1x00000804
 679.92578125 776.665039062 l 1
 726.078125 776.665039062 l 1x00000405
 726.078125 760.376953125 l 2
 726.078125 746.802734375 728.248046875 744.087890625 739.650390625 744.087890625 c 0
 752.681640625 744.087890625 753.224609375 742.458984375 753.224609375 714.225585938 c 0x00001005
 753.224609375 684.905273438 753.224609375 684.36328125 769.513671875 684.36328125 c 0
 785.80078125 684.36328125 785.80078125 683.819335938 785.80078125 654.5 c 0
 785.80078125 626.268554688 786.34375 624.637695312 799.375 624.637695312 c 0x0002100040
 812.94921875 624.637695312 812.94921875 624.095703125 812.94921875 578.48828125 c 2
 812.94921875 532.337890625 l 1x0001000010
 829.236328125 532.337890625 l 2
 842.8125 532.337890625 845.525390625 530.165039062 845.525390625 518.764648438 c 0x0001000020
 845.525390625 507.905273438 848.240234375 505.190429688 859.099609375 505.190429688 c 0
 872.12890625 505.190429688 872.673828125 503.561523438 872.673828125 475.328125 c 0
 872.673828125 446.0078125 872.673828125 445.466796875 888.9609375 445.466796875 c 2
 905.25 445.466796875 l 1x000800000a
 905.25 385.741210938 l 1x0008000004
 905.25 326.016601562 l 1
 918.82421875 326.016601562 l 2
 930.2265625 326.016601562 932.3984375 323.301757812 932.3984375 309.728515625 c 0x0048000002
 932.3984375 295.069335938 934.02734375 293.439453125 948.685546875 293.439453125 c 2
 964.974609375 293.439453125 l 1
 964.974609375 217.427734375 l 1
 964.974609375 141.413085938 l 1
 948.685546875 141.413085938 l 1
 932.3984375 141.413085938 l 1x0100000001
 932.3984375 97.978515625 l 1x0100000002
 932.3984375 54.54296875 l 1
 948.685546875 54.54296875 l 2
 964.974609375 54.54296875 964.974609375 53.9990234375 964.974609375 24.6806640625 c 0
 964.974609375 -4.6376953125 964.974609375 -5.181640625 948.685546875 -5.181640625 c 0x1400000001
 934.02734375 -5.181640625 932.3984375 -6.810546875 932.3984375 -21.470703125 c 2
 932.3984375 -37.7587890625 l 1x4000000001
 888.9609375 -37.7587890625 l 1x8000000001
 845.525390625 -37.7587890625 l 1x4000000009
 845.525390625 -21.470703125 l 2
 845.525390625 -5.181640625 844.982421875 -5.181640625 815.6640625 -5.181640625 c 0x2000000009
 786.34375 -5.181640625 785.80078125 -5.181640625 785.80078125 -21.470703125 c 2
 785.80078125 -37.7587890625 l 1
 696.21484375 -37.7587890625 l 1
 606.62890625 -37.7587890625 l 1x4000000819
 606.62890625 -21.470703125 l 2
 606.62890625 -5.181640625 606.0859375 -5.181640625 576.765625 -5.181640625 c 0x1000000819
 547.4453125 -5.181640625 546.904296875 -5.181640625 546.904296875 -21.470703125 c 2
 546.904296875 -37.7587890625 l 1x40000020
 500.751953125 -37.7587890625 l 1x80000020
 454.603515625 -37.7587890625 l 1
 454.603515625 -21.470703125 l 2x40000120
 454.603515625 -6.810546875 452.97265625 -5.181640625 438.314453125 -5.181640625 c 0
 422.025390625 -5.181640625 422.025390625 -4.6376953125 422.025390625 24.6806640625 c 0x100002
 422.025390625 53.9990234375 422.025390625 54.54296875 438.314453125 54.54296875 c 2
 454.603515625 54.54296875 l 1x140001
 454.603515625 97.978515625 l 1
 454.603515625 141.413085938 l 1x010001
 438.314453125 141.413085938 l 1
 422.025390625 141.413085938 l 1
 422.025390625 217.427734375 l 1
 422.025390625 293.439453125 l 1
 438.314453125 293.439453125 l 2x010002
 452.97265625 293.439453125 454.603515625 295.069335938 454.603515625 309.728515625 c 0
 454.603515625 324.388671875 456.23046875 326.016601562 470.890625 326.016601562 c 2x004001
 487.1796875 326.016601562 l 1
 487.1796875 385.741210938 l 1
 487.1796875 445.466796875 l 1x00180080
 500.751953125 445.466796875 l 2
 513.78515625 445.466796875 514.326171875 447.095703125 514.326171875 475.328125 c 0
 514.326171875 504.646484375 514.326171875 505.190429688 530.615234375 505.190429688 c 0x00180040
 544.189453125 505.190429688 546.904296875 507.362304688 546.904296875 518.764648438 c 0
 546.904296875 529.622070312 549.619140625 532.337890625 560.478515625 532.337890625 c 0x00010020
 574.05078125 532.337890625 574.05078125 532.880859375 574.05078125 578.48828125 c 2
 574.05078125 624.637695312 l 1x00020010
 590.33984375 624.637695312 l 2
 603.916015625 624.637695312 606.62890625 626.811523438 606.62890625 638.211914062 c 0x00020008
 606.62890625 649.071289062 609.34375 651.78515625 620.203125 651.78515625 c 0
 631.603515625 651.78515625 633.775390625 654.5 633.775390625 668.07421875 c 0x00008004
 633.775390625 682.734375 635.404296875 684.36328125 650.064453125 684.36328125 c 0
 663.63671875 684.36328125 666.3515625 686.53515625 666.3515625 697.9375 c 0x00002002
 666.3515625 709.33984375 663.63671875 711.509765625 650.064453125 711.509765625 c 2
 633.775390625 711.509765625 l 1x00002804
 633.775390625 744.087890625 l 1x00000404
726.078125 714.225585938 m 2x00019001
 726.078125 744.087890625 l 1
 696.21484375 744.087890625 l 2
 666.896484375 744.087890625 666.3515625 744.087890625 666.3515625 727.798828125 c 0
 666.3515625 714.225585938 668.525390625 711.509765625 679.92578125 711.509765625 c 0x00004405
 692.95703125 711.509765625 693.5 709.881835938 693.5 681.6484375 c 2
 693.5 651.78515625 l 1
 663.63671875 651.78515625 l 2
 635.404296875 651.78515625 633.775390625 651.244140625 633.775390625 638.211914062 c 0x0000200a
 633.775390625 627.353515625 631.060546875 624.637695312 620.203125 624.637695312 c 2
 606.62890625 624.637695312 l 1
 606.62890625 564.9140625 l 1x00008010
 606.62890625 505.190429688 l 1x00018008
 576.765625 505.190429688 l 1x00020008
 546.904296875 505.190429688 l 1x00010020
 546.904296875 475.328125 l 2x00010040
 546.904296875 446.0078125 546.904296875 445.466796875 530.615234375 445.466796875 c 2
 514.326171875 445.466796875 l 1
 514.326171875 399.314453125 l 1
 514.326171875 353.165039062 l 1x00180080
 530.615234375 353.165039062 l 2
 544.189453125 353.165039062 546.904296875 350.9921875 546.904296875 339.58984375 c 0
 546.904296875 326.559570312 545.275390625 326.016601562 517.04296875 326.016601562 c 0
 487.72265625 326.016601562 487.1796875 326.016601562 487.1796875 309.728515625 c 0
 487.1796875 293.439453125 487.72265625 293.439453125 517.04296875 293.439453125 c 0x00380120
 545.275390625 293.439453125 546.904296875 292.897460938 546.904296875 279.866210938 c 2
 546.904296875 266.29296875 l 1x00800120
 606.62890625 266.29296875 l 1x00800008
 666.3515625 266.29296875 l 1
 666.3515625 220.141601562 l 1
 666.3515625 173.991210938 l 1
 636.490234375 173.991210938 l 1
 606.62890625 173.991210938 l 1
 606.62890625 144.12890625 l 1
 606.62890625 114.267578125 l 1
 696.21484375 114.267578125 l 1
 785.80078125 114.267578125 l 1
 785.80078125 144.12890625 l 1
 785.80078125 173.991210938 l 1
 755.939453125 173.991210938 l 1
 726.078125 173.991210938 l 1
 726.078125 220.141601562 l 1
 726.078125 266.29296875 l 1
 769.513671875 266.29296875 l 2x0280001310
 812.40625 266.29296875 812.94921875 266.29296875 812.94921875 279.866210938 c 0
 812.94921875 293.439453125 813.4921875 293.439453125 859.099609375 293.439453125 c 2
 905.25 293.439453125 l 1
 905.25 309.728515625 l 2
 905.25 326.016601562 904.70703125 326.016601562 875.388671875 326.016601562 c 0
 847.154296875 326.016601562 845.525390625 326.559570312 845.525390625 339.58984375 c 0x003000131a
 845.525390625 350.44921875 848.240234375 353.165039062 859.099609375 353.165039062 c 0
 872.673828125 353.165039062 872.673828125 353.70703125 872.673828125 399.314453125 c 0
 872.673828125 444.922851562 872.673828125 445.466796875 859.099609375 445.466796875 c 0x0038000004
 846.068359375 445.466796875 845.525390625 447.095703125 845.525390625 475.328125 c 2
 845.525390625 505.190429688 l 1
 815.6640625 505.190429688 l 1
 785.80078125 505.190429688 l 1
 785.80078125 564.9140625 l 1
 785.80078125 624.637695312 l 1x0001800018
 769.513671875 624.637695312 l 2
 753.224609375 624.637695312 753.224609375 625.181640625 753.224609375 654.5 c 0x0001800040
 753.224609375 682.734375 752.681640625 684.36328125 739.650390625 684.36328125 c 0
 726.619140625 684.36328125 726.078125 685.993164062 726.078125 714.225585938 c 2x00019001
514.326171875 187.565429688 m 0x24800050
 514.326171875 200.594726562 512.69921875 201.139648438 484.46484375 201.139648438 c 2x00400050
 454.603515625 201.139648438 l 1
 454.603515625 171.275390625 l 2
 454.603515625 141.958007812 454.603515625 141.413085938 470.890625 141.413085938 c 0x04200250
 487.1796875 141.413085938 487.1796875 140.87109375 487.1796875 111.552734375 c 0
 487.1796875 83.3193359375 487.72265625 81.689453125 500.751953125 81.689453125 c 0
 511.611328125 81.689453125 514.326171875 78.9755859375 514.326171875 68.1162109375 c 0x80000140
 514.326171875 56.7138671875 517.04296875 54.54296875 530.615234375 54.54296875 c 0
 545.275390625 54.54296875 546.904296875 52.9130859375 546.904296875 38.2548828125 c 0x04000020
 546.904296875 24.6806640625 549.076171875 21.96484375 560.478515625 21.96484375 c 2
 574.05078125 21.96484375 l 1
 574.05078125 97.978515625 l 1
 574.05078125 173.991210938 l 1
 544.189453125 173.991210938 l 2
 515.955078125 173.991210938 514.326171875 174.534179688 514.326171875 187.565429688 c 0x24800050
932.3984375 171.275390625 m 2x0400000001
 932.3984375 201.139648438 l 1
 902.53515625 201.139648438 l 2x0420000001
 874.302734375 201.139648438 872.673828125 200.594726562 872.673828125 187.565429688 c 0
 872.673828125 174.534179688 871.044921875 173.991210938 842.8125 173.991210938 c 2
 812.94921875 173.991210938 l 1
 812.94921875 97.978515625 l 1
 812.94921875 21.96484375 l 1x0880000015
 829.236328125 21.96484375 l 2
 843.8984375 21.96484375 845.525390625 23.59375 845.525390625 38.2548828125 c 0x2000000018
 845.525390625 51.828125 847.697265625 54.54296875 859.099609375 54.54296875 c 0
 869.95703125 54.54296875 872.673828125 57.2578125 872.673828125 68.1162109375 c 0x2400000004
 872.673828125 79.5185546875 875.388671875 81.689453125 888.9609375 81.689453125 c 0
 905.25 81.689453125 905.25 82.234375 905.25 111.552734375 c 0x8000000002
 905.25 139.78515625 905.79296875 141.413085938 918.82421875 141.413085938 c 0
 931.85546875 141.413085938 932.3984375 143.043945312 932.3984375 171.275390625 c 2x0400000001
733.80078125 44.2548828125 m 1x1000000080
 733.80078125 87.689453125 l 1
 644.21484375 87.689453125 l 1
 554.62890625 87.689453125 l 1
 554.62890625 44.2548828125 l 1
 554.62890625 0.818359375 l 1
 644.21484375 0.818359375 l 1
 733.80078125 0.818359375 l 1
 733.80078125 44.2548828125 l 1x1000000080
487.1796875 38.2548828125 m 0x08000280
 487.1796875 52.9130859375 485.55078125 54.54296875 470.890625 54.54296875 c 0x04000280
 456.23046875 54.54296875 454.603515625 52.9130859375 454.603515625 38.2548828125 c 0
 454.603515625 23.59375 456.23046875 21.96484375 470.890625 21.96484375 c 0
 485.55078125 21.96484375 487.1796875 23.59375 487.1796875 38.2548828125 c 0x08000280
932.3984375 38.2548828125 m 0x0800000001
 932.3984375 51.828125 930.2265625 54.54296875 918.82421875 54.54296875 c 0
 907.421875 54.54296875 905.25 51.828125 905.25 38.2548828125 c 0x0400000002
 905.25 24.6806640625 907.421875 21.96484375 918.82421875 21.96484375 c 0
 930.2265625 21.96484375 932.3984375 24.6806640625 932.3984375 38.2548828125 c 0x0800000001
606.62890625 488.900390625 m 0x00040008
 606.62890625 502.474609375 608.80078125 505.190429688 620.203125 505.190429688 c 0
 631.603515625 505.190429688 633.775390625 502.474609375 633.775390625 488.900390625 c 0
 633.775390625 475.328125 631.603515625 472.612304688 620.203125 472.612304688 c 0
 608.80078125 472.612304688 606.62890625 475.328125 606.62890625 488.900390625 c 0x00040008
769.513671875 505.190429688 m 0
 784.171875 505.190429688 785.80078125 503.561523438 785.80078125 488.900390625 c 0x0004000040
 785.80078125 474.2421875 784.171875 472.612304688 769.513671875 472.612304688 c 1024
635.775390625 38.2548828125 m 1
 635.775390625 54.54296875 l 5
 695.5 54.54296875 l 5
 716.743164062 56.849609375 739.069335938 61.029296875 755.224609375 54.54296875 c 1
 755.224609375 38.2548828125 l 1
 755.224609375 21.96484375 l 1
 695.5 21.96484375 l 1
 635.775390625 21.96484375 l 1x08
 635.775390625 38.2548828125 l 1
633.775390625 744.087890625 m 1x00000404
 633.775390625 776.665039062 l 1x00000804
 679.92578125 776.665039062 l 1
 726.078125 776.665039062 l 1x00000405
 726.078125 760.376953125 l 2
 726.078125 746.802734375 728.248046875 744.087890625 739.650390625 744.087890625 c 0
 752.681640625 744.087890625 753.224609375 742.458984375 753.224609375 714.225585938 c 0x00001005
 753.224609375 684.905273438 753.224609375 684.36328125 769.513671875 684.36328125 c 0
 785.80078125 684.36328125 785.80078125 683.819335938 785.80078125 654.5 c 0
 785.80078125 626.268554688 786.34375 624.637695312 799.375 624.637695312 c 0x0002100040
 812.94921875 624.637695312 812.94921875 624.095703125 812.94921875 578.48828125 c 2
 812.94921875 532.337890625 l 1x0001000010
 829.236328125 532.337890625 l 2
 842.8125 532.337890625 845.525390625 530.165039062 845.525390625 518.764648438 c 0x0001000020
 845.525390625 507.905273438 848.240234375 505.190429688 859.099609375 505.190429688 c 0
 872.12890625 505.190429688 872.673828125 503.561523438 872.673828125 475.328125 c 0
 872.673828125 446.0078125 872.673828125 445.466796875 888.9609375 445.466796875 c 2
 905.25 445.466796875 l 1x000800000a
 905.25 385.741210938 l 1x0008000004
 905.25 326.016601562 l 1
 918.82421875 326.016601562 l 2
 930.2265625 326.016601562 932.3984375 323.301757812 932.3984375 309.728515625 c 0x0048000002
 932.3984375 295.069335938 934.02734375 293.439453125 948.685546875 293.439453125 c 2
 964.974609375 293.439453125 l 1
 964.974609375 217.427734375 l 1
 964.974609375 141.413085938 l 1
 948.685546875 141.413085938 l 1
 932.3984375 141.413085938 l 1x0100000001
 932.3984375 97.978515625 l 1x0100000002
 932.3984375 54.54296875 l 1
 948.685546875 54.54296875 l 2
 964.974609375 54.54296875 964.974609375 53.9990234375 964.974609375 24.6806640625 c 0
 964.974609375 -4.6376953125 964.974609375 -5.181640625 948.685546875 -5.181640625 c 0x1400000001
 934.02734375 -5.181640625 932.3984375 -6.810546875 932.3984375 -21.470703125 c 2
 932.3984375 -37.7587890625 l 1x4000000001
 888.9609375 -37.7587890625 l 1x8000000001
 845.525390625 -37.7587890625 l 1x4000000009
 845.525390625 -21.470703125 l 2
 845.525390625 -5.181640625 844.982421875 -5.181640625 815.6640625 -5.181640625 c 0x2000000009
 786.34375 -5.181640625 785.80078125 -5.181640625 785.80078125 -21.470703125 c 2
 785.80078125 -37.7587890625 l 1
 696.21484375 -37.7587890625 l 1
 606.62890625 -37.7587890625 l 1x4000000819
 606.62890625 -21.470703125 l 2
 606.62890625 -5.181640625 606.0859375 -5.181640625 576.765625 -5.181640625 c 0x1000000819
 547.4453125 -5.181640625 546.904296875 -5.181640625 546.904296875 -21.470703125 c 2
 546.904296875 -37.7587890625 l 1x40000020
 500.751953125 -37.7587890625 l 1x80000020
 454.603515625 -37.7587890625 l 1
 454.603515625 -21.470703125 l 2x40000120
 454.603515625 -6.810546875 452.97265625 -5.181640625 438.314453125 -5.181640625 c 0
 422.025390625 -5.181640625 422.025390625 -4.6376953125 422.025390625 24.6806640625 c 0x100002
 422.025390625 53.9990234375 422.025390625 54.54296875 438.314453125 54.54296875 c 2
 454.603515625 54.54296875 l 1x140001
 454.603515625 97.978515625 l 1
 454.603515625 141.413085938 l 1x010001
 438.314453125 141.413085938 l 1
 422.025390625 141.413085938 l 1
 422.025390625 217.427734375 l 1
 422.025390625 293.439453125 l 1
 438.314453125 293.439453125 l 2x010002
 452.97265625 293.439453125 454.603515625 295.069335938 454.603515625 309.728515625 c 0
 454.603515625 324.388671875 456.23046875 326.016601562 470.890625 326.016601562 c 2x004001
 487.1796875 326.016601562 l 1
 487.1796875 385.741210938 l 1
 487.1796875 445.466796875 l 1x00180080
 500.751953125 445.466796875 l 2
 513.78515625 445.466796875 514.326171875 447.095703125 514.326171875 475.328125 c 0
 514.326171875 504.646484375 514.326171875 505.190429688 530.615234375 505.190429688 c 0x00180040
 544.189453125 505.190429688 546.904296875 507.362304688 546.904296875 518.764648438 c 0
 546.904296875 529.622070312 549.619140625 532.337890625 560.478515625 532.337890625 c 0x00010020
 574.05078125 532.337890625 574.05078125 532.880859375 574.05078125 578.48828125 c 2
 574.05078125 624.637695312 l 1x00020010
 590.33984375 624.637695312 l 2
 603.916015625 624.637695312 606.62890625 626.811523438 606.62890625 638.211914062 c 0x00020008
 606.62890625 649.071289062 609.34375 651.78515625 620.203125 651.78515625 c 0
 631.603515625 651.78515625 633.775390625 654.5 633.775390625 668.07421875 c 0x00008004
 633.775390625 682.734375 635.404296875 684.36328125 650.064453125 684.36328125 c 0
 663.63671875 684.36328125 666.3515625 686.53515625 666.3515625 697.9375 c 0x00002002
 666.3515625 709.33984375 663.63671875 711.509765625 650.064453125 711.509765625 c 2
 633.775390625 711.509765625 l 1x00002804
 633.775390625 744.087890625 l 1x00000404
726.078125 714.225585938 m 2x00019001
 726.078125 744.087890625 l 1
 696.21484375 744.087890625 l 2
 666.896484375 744.087890625 666.3515625 744.087890625 666.3515625 727.798828125 c 0
 666.3515625 714.225585938 668.525390625 711.509765625 679.92578125 711.509765625 c 0x00004405
 692.95703125 711.509765625 693.5 709.881835938 693.5 681.6484375 c 2
 693.5 651.78515625 l 1
 663.63671875 651.78515625 l 2
 635.404296875 651.78515625 633.775390625 651.244140625 633.775390625 638.211914062 c 0x0000200a
 633.775390625 627.353515625 631.060546875 624.637695312 620.203125 624.637695312 c 2
 606.62890625 624.637695312 l 1
 606.62890625 564.9140625 l 1x00008010
 606.62890625 505.190429688 l 1x00018008
 576.765625 505.190429688 l 1x00020008
 546.904296875 505.190429688 l 1x00010020
 546.904296875 475.328125 l 2x00010040
 546.904296875 446.0078125 546.904296875 445.466796875 530.615234375 445.466796875 c 2
 514.326171875 445.466796875 l 1
 514.326171875 399.314453125 l 1
 514.326171875 353.165039062 l 1x00180080
 530.615234375 353.165039062 l 2
 544.189453125 353.165039062 546.904296875 350.9921875 546.904296875 339.58984375 c 0
 546.904296875 326.559570312 545.275390625 326.016601562 517.04296875 326.016601562 c 0
 487.72265625 326.016601562 487.1796875 326.016601562 487.1796875 309.728515625 c 0
 487.1796875 293.439453125 487.72265625 293.439453125 517.04296875 293.439453125 c 0x00380120
 545.275390625 293.439453125 546.904296875 292.897460938 546.904296875 279.866210938 c 2
 546.904296875 266.29296875 l 1x00800120
 606.62890625 266.29296875 l 1x00800008
 666.3515625 266.29296875 l 1
 666.3515625 220.141601562 l 1
 666.3515625 173.991210938 l 1
 636.490234375 173.991210938 l 1
 606.62890625 173.991210938 l 1
 606.62890625 144.12890625 l 1
 606.62890625 114.267578125 l 1
 696.21484375 114.267578125 l 1
 785.80078125 114.267578125 l 1
 785.80078125 144.12890625 l 1
 785.80078125 173.991210938 l 1
 755.939453125 173.991210938 l 1
 726.078125 173.991210938 l 1
 726.078125 220.141601562 l 1
 726.078125 266.29296875 l 1
 769.513671875 266.29296875 l 2x0280001310
 812.40625 266.29296875 812.94921875 266.29296875 812.94921875 279.866210938 c 0
 812.94921875 293.439453125 813.4921875 293.439453125 859.099609375 293.439453125 c 2
 905.25 293.439453125 l 1
 905.25 309.728515625 l 2
 905.25 326.016601562 904.70703125 326.016601562 875.388671875 326.016601562 c 0
 847.154296875 326.016601562 845.525390625 326.559570312 845.525390625 339.58984375 c 0x003000131a
 845.525390625 350.44921875 848.240234375 353.165039062 859.099609375 353.165039062 c 0
 872.673828125 353.165039062 872.673828125 353.70703125 872.673828125 399.314453125 c 0
 872.673828125 444.922851562 872.673828125 445.466796875 859.099609375 445.466796875 c 0x0038000004
 846.068359375 445.466796875 845.525390625 447.095703125 845.525390625 475.328125 c 2
 845.525390625 505.190429688 l 1
 815.6640625 505.190429688 l 1
 785.80078125 505.190429688 l 1
 785.80078125 564.9140625 l 1
 785.80078125 624.637695312 l 1x0001800018
 769.513671875 624.637695312 l 2
 753.224609375 624.637695312 753.224609375 625.181640625 753.224609375 654.5 c 0x0001800040
 753.224609375 682.734375 752.681640625 684.36328125 739.650390625 684.36328125 c 0
 726.619140625 684.36328125 726.078125 685.993164062 726.078125 714.225585938 c 2x00019001
514.326171875 187.565429688 m 0x24800050
 514.326171875 200.594726562 512.69921875 201.139648438 484.46484375 201.139648438 c 2x00400050
 454.603515625 201.139648438 l 1
 454.603515625 171.275390625 l 2
 454.603515625 141.958007812 454.603515625 141.413085938 470.890625 141.413085938 c 0x04200250
 487.1796875 141.413085938 487.1796875 140.87109375 487.1796875 111.552734375 c 0
 487.1796875 83.3193359375 487.72265625 81.689453125 500.751953125 81.689453125 c 0
 511.611328125 81.689453125 514.326171875 78.9755859375 514.326171875 68.1162109375 c 0x80000140
 514.326171875 56.7138671875 517.04296875 54.54296875 530.615234375 54.54296875 c 0
 545.275390625 54.54296875 546.904296875 52.9130859375 546.904296875 38.2548828125 c 0x04000020
 546.904296875 24.6806640625 549.076171875 21.96484375 560.478515625 21.96484375 c 2
 574.05078125 21.96484375 l 1
 574.05078125 97.978515625 l 1
 574.05078125 173.991210938 l 1
 544.189453125 173.991210938 l 2
 515.955078125 173.991210938 514.326171875 174.534179688 514.326171875 187.565429688 c 0x24800050
932.3984375 171.275390625 m 2x0400000001
 932.3984375 201.139648438 l 1
 902.53515625 201.139648438 l 2x0420000001
 874.302734375 201.139648438 872.673828125 200.594726562 872.673828125 187.565429688 c 0
 872.673828125 174.534179688 871.044921875 173.991210938 842.8125 173.991210938 c 2
 812.94921875 173.991210938 l 1
 812.94921875 97.978515625 l 1
 812.94921875 21.96484375 l 1x0880000015
 829.236328125 21.96484375 l 2
 843.8984375 21.96484375 845.525390625 23.59375 845.525390625 38.2548828125 c 0x2000000018
 845.525390625 51.828125 847.697265625 54.54296875 859.099609375 54.54296875 c 0
 869.95703125 54.54296875 872.673828125 57.2578125 872.673828125 68.1162109375 c 0x2400000004
 872.673828125 79.5185546875 875.388671875 81.689453125 888.9609375 81.689453125 c 0
 905.25 81.689453125 905.25 82.234375 905.25 111.552734375 c 0x8000000002
 905.25 139.78515625 905.79296875 141.413085938 918.82421875 141.413085938 c 0
 931.85546875 141.413085938 932.3984375 143.043945312 932.3984375 171.275390625 c 2x0400000001
785.80078125 38.2548828125 m 1x4200000810
 785.80078125 81.689453125 l 1
 696.21484375 81.689453125 l 1
 606.62890625 81.689453125 l 1
 606.62890625 38.2548828125 l 1
 606.62890625 -5.181640625 l 1
 696.21484375 -5.181640625 l 1
 785.80078125 -5.181640625 l 1
 785.80078125 38.2548828125 l 1x4200000810
487.1796875 38.2548828125 m 0x08000280
 487.1796875 52.9130859375 485.55078125 54.54296875 470.890625 54.54296875 c 0x04000280
 456.23046875 54.54296875 454.603515625 52.9130859375 454.603515625 38.2548828125 c 0
 454.603515625 23.59375 456.23046875 21.96484375 470.890625 21.96484375 c 0
 485.55078125 21.96484375 487.1796875 23.59375 487.1796875 38.2548828125 c 0x08000280
932.3984375 38.2548828125 m 0x0800000001
 932.3984375 51.828125 930.2265625 54.54296875 918.82421875 54.54296875 c 0
 907.421875 54.54296875 905.25 51.828125 905.25 38.2548828125 c 0x0400000002
 905.25 24.6806640625 907.421875 21.96484375 918.82421875 21.96484375 c 0
 930.2265625 21.96484375 932.3984375 24.6806640625 932.3984375 38.2548828125 c 0x0800000001
606.62890625 488.900390625 m 0x00040008
 606.62890625 502.474609375 608.80078125 505.190429688 620.203125 505.190429688 c 0
 631.603515625 505.190429688 633.775390625 502.474609375 633.775390625 488.900390625 c 0
 633.775390625 475.328125 631.603515625 472.612304688 620.203125 472.612304688 c 0
 608.80078125 472.612304688 606.62890625 475.328125 606.62890625 488.900390625 c 0x00040008
753.224609375 488.900390625 m 0x0004000040
 753.224609375 503.561523438 754.853515625 505.190429688 769.513671875 505.190429688 c 0
 784.171875 505.190429688 785.80078125 503.561523438 785.80078125 488.900390625 c 0
 785.80078125 474.2421875 784.171875 472.612304688 769.513671875 472.612304688 c 0
 754.853515625 472.612304688 753.224609375 474.2421875 753.224609375 488.900390625 c 0x0004000040
633.775390625 38.2548828125 m 1x08000004
 633.775390625 54.54296875 l 1x08000004
 693.5 54.54296875 l 1
 753.224609375 54.54296875 l 1
 753.224609375 38.2548828125 l 1
 753.224609375 21.96484375 l 1
 693.5 21.96484375 l 1x0800000280
 633.775390625 21.96484375 l 1
 633.775390625 38.2548828125 l 1x08000004
633.775390625 744.087890625 m 1x00000404
 633.775390625 776.665039062 l 1x00000804
 679.92578125 776.665039062 l 1
 726.078125 776.665039062 l 1x00000405
 726.078125 760.376953125 l 2
 726.078125 746.802734375 728.248046875 744.087890625 739.650390625 744.087890625 c 0
 752.681640625 744.087890625 753.224609375 742.458984375 753.224609375 714.225585938 c 0x00001005
 753.224609375 684.905273438 753.224609375 684.36328125 769.513671875 684.36328125 c 0
 785.80078125 684.36328125 785.80078125 683.819335938 785.80078125 654.5 c 0
 785.80078125 626.268554688 786.34375 624.637695312 799.375 624.637695312 c 0x0002100040
 812.94921875 624.637695312 812.94921875 624.095703125 812.94921875 578.48828125 c 2
 812.94921875 532.337890625 l 1x0001000010
 829.236328125 532.337890625 l 2
 842.8125 532.337890625 845.525390625 530.165039062 845.525390625 518.764648438 c 0x0001000020
 845.525390625 507.905273438 848.240234375 505.190429688 859.099609375 505.190429688 c 0
 872.12890625 505.190429688 872.673828125 503.561523438 872.673828125 475.328125 c 0
 872.673828125 446.0078125 872.673828125 445.466796875 888.9609375 445.466796875 c 2
 905.25 445.466796875 l 1x000800000a
 905.25 385.741210938 l 1x0008000004
 905.25 326.016601562 l 1
 918.82421875 326.016601562 l 2
 930.2265625 326.016601562 932.3984375 323.301757812 932.3984375 309.728515625 c 0x0048000002
 932.3984375 295.069335938 934.02734375 293.439453125 948.685546875 293.439453125 c 2
 964.974609375 293.439453125 l 1
 964.974609375 217.427734375 l 1
 964.974609375 141.413085938 l 1
 948.685546875 141.413085938 l 1
 932.3984375 141.413085938 l 1x0100000001
 932.3984375 97.978515625 l 1x0100000002
 932.3984375 54.54296875 l 1
 948.685546875 54.54296875 l 2
 964.974609375 54.54296875 964.974609375 53.9990234375 964.974609375 24.6806640625 c 0
 964.974609375 -4.6376953125 964.974609375 -5.181640625 948.685546875 -5.181640625 c 0x1400000001
 934.02734375 -5.181640625 932.3984375 -6.810546875 932.3984375 -21.470703125 c 2
 932.3984375 -37.7587890625 l 1x4000000001
 888.9609375 -37.7587890625 l 1x8000000001
 845.525390625 -37.7587890625 l 1x4000000009
 845.525390625 -21.470703125 l 2
 845.525390625 -5.181640625 844.982421875 -5.181640625 815.6640625 -5.181640625 c 0x2000000009
 786.34375 -5.181640625 785.80078125 -5.181640625 785.80078125 -21.470703125 c 2
 785.80078125 -37.7587890625 l 1
 696.21484375 -37.7587890625 l 1
 606.62890625 -37.7587890625 l 1x4000000819
 606.62890625 -21.470703125 l 2
 606.62890625 -5.181640625 606.0859375 -5.181640625 576.765625 -5.181640625 c 0x1000000819
 547.4453125 -5.181640625 546.904296875 -5.181640625 546.904296875 -21.470703125 c 2
 546.904296875 -37.7587890625 l 1x40000020
 500.751953125 -37.7587890625 l 1x80000020
 454.603515625 -37.7587890625 l 1
 454.603515625 -21.470703125 l 2x40000120
 454.603515625 -6.810546875 452.97265625 -5.181640625 438.314453125 -5.181640625 c 0
 422.025390625 -5.181640625 422.025390625 -4.6376953125 422.025390625 24.6806640625 c 0x100002
 422.025390625 53.9990234375 422.025390625 54.54296875 438.314453125 54.54296875 c 2
 454.603515625 54.54296875 l 1x140001
 454.603515625 97.978515625 l 1
 454.603515625 141.413085938 l 1x010001
 438.314453125 141.413085938 l 1
 422.025390625 141.413085938 l 1
 422.025390625 217.427734375 l 1
 422.025390625 293.439453125 l 1
 438.314453125 293.439453125 l 2x010002
 452.97265625 293.439453125 454.603515625 295.069335938 454.603515625 309.728515625 c 0
 454.603515625 324.388671875 456.23046875 326.016601562 470.890625 326.016601562 c 2x004001
 487.1796875 326.016601562 l 1
 487.1796875 385.741210938 l 1
 487.1796875 445.466796875 l 1x00180080
 500.751953125 445.466796875 l 2
 513.78515625 445.466796875 514.326171875 447.095703125 514.326171875 475.328125 c 0
 514.326171875 504.646484375 514.326171875 505.190429688 530.615234375 505.190429688 c 0x00180040
 544.189453125 505.190429688 546.904296875 507.362304688 546.904296875 518.764648438 c 0
 546.904296875 529.622070312 549.619140625 532.337890625 560.478515625 532.337890625 c 0x00010020
 574.05078125 532.337890625 574.05078125 532.880859375 574.05078125 578.48828125 c 2
 574.05078125 624.637695312 l 1x00020010
 590.33984375 624.637695312 l 2
 603.916015625 624.637695312 606.62890625 626.811523438 606.62890625 638.211914062 c 0x00020008
 606.62890625 649.071289062 609.34375 651.78515625 620.203125 651.78515625 c 0
 631.603515625 651.78515625 633.775390625 654.5 633.775390625 668.07421875 c 0x00008004
 633.775390625 682.734375 635.404296875 684.36328125 650.064453125 684.36328125 c 0
 663.63671875 684.36328125 666.3515625 686.53515625 666.3515625 697.9375 c 0x00002002
 666.3515625 709.33984375 663.63671875 711.509765625 650.064453125 711.509765625 c 2
 633.775390625 711.509765625 l 1x00002804
 633.775390625 744.087890625 l 1x00000404
726.078125 714.225585938 m 2x00019001
 726.078125 744.087890625 l 1
 696.21484375 744.087890625 l 2
 666.896484375 744.087890625 666.3515625 744.087890625 666.3515625 727.798828125 c 0
 666.3515625 714.225585938 668.525390625 711.509765625 679.92578125 711.509765625 c 0x00004405
 692.95703125 711.509765625 693.5 709.881835938 693.5 681.6484375 c 2
 693.5 651.78515625 l 1
 663.63671875 651.78515625 l 2
 635.404296875 651.78515625 633.775390625 651.244140625 633.775390625 638.211914062 c 0x0000200a
 633.775390625 627.353515625 631.060546875 624.637695312 620.203125 624.637695312 c 2
 606.62890625 624.637695312 l 1
 606.62890625 564.9140625 l 1x00008010
 606.62890625 505.190429688 l 1x00018008
 576.765625 505.190429688 l 1x00020008
 546.904296875 505.190429688 l 1x00010020
 546.904296875 475.328125 l 2x00010040
 546.904296875 446.0078125 546.904296875 445.466796875 530.615234375 445.466796875 c 2
 514.326171875 445.466796875 l 1
 514.326171875 399.314453125 l 1
 514.326171875 353.165039062 l 1x00180080
 530.615234375 353.165039062 l 2
 544.189453125 353.165039062 546.904296875 350.9921875 546.904296875 339.58984375 c 0
 546.904296875 326.559570312 545.275390625 326.016601562 517.04296875 326.016601562 c 0
 487.72265625 326.016601562 487.1796875 326.016601562 487.1796875 309.728515625 c 0
 487.1796875 293.439453125 487.72265625 293.439453125 517.04296875 293.439453125 c 0x00380120
 545.275390625 293.439453125 546.904296875 292.897460938 546.904296875 279.866210938 c 2
 546.904296875 266.29296875 l 1x00800120
 606.62890625 266.29296875 l 1x00800008
 666.3515625 266.29296875 l 1
 666.3515625 220.141601562 l 1
 666.3515625 173.991210938 l 1
 636.490234375 173.991210938 l 1
 606.62890625 173.991210938 l 1
 606.62890625 144.12890625 l 1
 606.62890625 114.267578125 l 1
 696.21484375 114.267578125 l 1
 785.80078125 114.267578125 l 1
 785.80078125 144.12890625 l 1
 785.80078125 173.991210938 l 1
 755.939453125 173.991210938 l 1
 726.078125 173.991210938 l 1
 726.078125 220.141601562 l 1
 726.078125 266.29296875 l 1
 769.513671875 266.29296875 l 2x0280001310
 812.40625 266.29296875 812.94921875 266.29296875 812.94921875 279.866210938 c 0
 812.94921875 293.439453125 813.4921875 293.439453125 859.099609375 293.439453125 c 2
 905.25 293.439453125 l 1
 905.25 309.728515625 l 2
 905.25 326.016601562 904.70703125 326.016601562 875.388671875 326.016601562 c 0
 847.154296875 326.016601562 845.525390625 326.559570312 845.525390625 339.58984375 c 0x003000131a
 845.525390625 350.44921875 848.240234375 353.165039062 859.099609375 353.165039062 c 0
 872.673828125 353.165039062 872.673828125 353.70703125 872.673828125 399.314453125 c 0
 872.673828125 444.922851562 872.673828125 445.466796875 859.099609375 445.466796875 c 0x0038000004
 846.068359375 445.466796875 845.525390625 447.095703125 845.525390625 475.328125 c 2
 845.525390625 505.190429688 l 1
 815.6640625 505.190429688 l 1
 785.80078125 505.190429688 l 1
 785.80078125 564.9140625 l 1
 785.80078125 624.637695312 l 1x0001800018
 769.513671875 624.637695312 l 2
 753.224609375 624.637695312 753.224609375 625.181640625 753.224609375 654.5 c 0x0001800040
 753.224609375 682.734375 752.681640625 684.36328125 739.650390625 684.36328125 c 0
 726.619140625 684.36328125 726.078125 685.993164062 726.078125 714.225585938 c 2x00019001
514.326171875 187.565429688 m 0x24800050
 514.326171875 200.594726562 512.69921875 201.139648438 484.46484375 201.139648438 c 2x00400050
 454.603515625 201.139648438 l 1
 454.603515625 171.275390625 l 2
 454.603515625 141.958007812 454.603515625 141.413085938 470.890625 141.413085938 c 0x04200250
 487.1796875 141.413085938 487.1796875 140.87109375 487.1796875 111.552734375 c 0
 487.1796875 83.3193359375 487.72265625 81.689453125 500.751953125 81.689453125 c 0
 511.611328125 81.689453125 514.326171875 78.9755859375 514.326171875 68.1162109375 c 0x80000140
 514.326171875 56.7138671875 517.04296875 54.54296875 530.615234375 54.54296875 c 0
 545.275390625 54.54296875 546.904296875 52.9130859375 546.904296875 38.2548828125 c 0x04000020
 546.904296875 24.6806640625 549.076171875 21.96484375 560.478515625 21.96484375 c 2
 574.05078125 21.96484375 l 1
 574.05078125 97.978515625 l 1
 574.05078125 173.991210938 l 1
 544.189453125 173.991210938 l 2
 515.955078125 173.991210938 514.326171875 174.534179688 514.326171875 187.565429688 c 0x24800050
932.3984375 171.275390625 m 2x0400000001
 932.3984375 201.139648438 l 1
 902.53515625 201.139648438 l 2x0420000001
 874.302734375 201.139648438 872.673828125 200.594726562 872.673828125 187.565429688 c 0
 872.673828125 174.534179688 871.044921875 173.991210938 842.8125 173.991210938 c 2
 812.94921875 173.991210938 l 1
 812.94921875 97.978515625 l 1
 812.94921875 21.96484375 l 1x0880000015
 829.236328125 21.96484375 l 2
 843.8984375 21.96484375 845.525390625 23.59375 845.525390625 38.2548828125 c 0x2000000018
 845.525390625 51.828125 847.697265625 54.54296875 859.099609375 54.54296875 c 0
 869.95703125 54.54296875 872.673828125 57.2578125 872.673828125 68.1162109375 c 0x2400000004
 872.673828125 79.5185546875 875.388671875 81.689453125 888.9609375 81.689453125 c 0
 905.25 81.689453125 905.25 82.234375 905.25 111.552734375 c 0x8000000002
 905.25 139.78515625 905.79296875 141.413085938 918.82421875 141.413085938 c 0
 931.85546875 141.413085938 932.3984375 143.043945312 932.3984375 171.275390625 c 2x0400000001
785.80078125 38.2548828125 m 1x4200000810
 785.80078125 81.689453125 l 1
 696.21484375 81.689453125 l 1
 606.62890625 81.689453125 l 1
 606.62890625 38.2548828125 l 1
 606.62890625 -5.181640625 l 1
 696.21484375 -5.181640625 l 1
 785.80078125 -5.181640625 l 1
 785.80078125 38.2548828125 l 1x4200000810
487.1796875 38.2548828125 m 0x08000280
 487.1796875 52.9130859375 485.55078125 54.54296875 470.890625 54.54296875 c 0x04000280
 456.23046875 54.54296875 454.603515625 52.9130859375 454.603515625 38.2548828125 c 0
 454.603515625 23.59375 456.23046875 21.96484375 470.890625 21.96484375 c 0
 485.55078125 21.96484375 487.1796875 23.59375 487.1796875 38.2548828125 c 0x08000280
932.3984375 38.2548828125 m 0x0800000001
 932.3984375 51.828125 930.2265625 54.54296875 918.82421875 54.54296875 c 0
 907.421875 54.54296875 905.25 51.828125 905.25 38.2548828125 c 0x0400000002
 905.25 24.6806640625 907.421875 21.96484375 918.82421875 21.96484375 c 0
 930.2265625 21.96484375 932.3984375 24.6806640625 932.3984375 38.2548828125 c 0x0800000001
606.62890625 488.900390625 m 0x00040008
 606.62890625 502.474609375 608.80078125 505.190429688 620.203125 505.190429688 c 0
 631.603515625 505.190429688 633.775390625 502.474609375 633.775390625 488.900390625 c 0
 633.775390625 475.328125 631.603515625 472.612304688 620.203125 472.612304688 c 0
 608.80078125 472.612304688 606.62890625 475.328125 606.62890625 488.900390625 c 0x00040008
753.224609375 488.900390625 m 0x0004000040
 753.224609375 503.561523438 754.853515625 505.190429688 769.513671875 505.190429688 c 0
 784.171875 505.190429688 785.80078125 503.561523438 785.80078125 488.900390625 c 0
 785.80078125 474.2421875 784.171875 472.612304688 769.513671875 472.612304688 c 0
 754.853515625 472.612304688 753.224609375 474.2421875 753.224609375 488.900390625 c 0x0004000040
633.775390625 38.2548828125 m 1x08000004
 633.775390625 54.54296875 l 1x08000004
 693.5 54.54296875 l 1
 753.224609375 54.54296875 l 1
 753.224609375 38.2548828125 l 1
 753.224609375 21.96484375 l 1
 693.5 21.96484375 l 1x0800000280
 633.775390625 21.96484375 l 1
 633.775390625 38.2548828125 l 1x08000004
EndSplineSet
EndChar

StartChar: nine
Encoding: 57 57 82
Width: 1387
Flags: W
HStem: -74.4102 99.0771<711.663 763.82> -74.4102 51.8965<809.781 934.31> -72.6406 135.641<592.166 680.037 701.268 710.114 778.736 795.797> -28.4102 29.4873<520.634 561.41> -10.7178 29.4863<850.617 934.121> 71.8467 14.1533<809.97 886.545> 159.128 64.8721<799.756 839.683> 180.949 94.3584<669.01 751.396> 490.564 17.6924<524.35 561.337 805.814 842.801> 611.461 38.334<760.295 772.01> 661.59 11.7949<716.145 748.438> 682.231 38.333<619.94 658.102> 708.769 58.9746<673.767 748.407> 727.641 40.1025<667.18 730.902>
VStem: 401.678 47.7705<113.363 272.359> 453.575 16.5127<280.817 295.873> 477.166 23.5898<25.383 61.2386 331.533 421.51> 571.524 47.1787<481.718 564.872> 571.524 20.6416<517.059 601.985> 595.114 15.334<608.865 672.05> 619.884 38.333<682.494 720.472> 665.293 83.1553<254.667 275.308 727.852 767.743> 751.396 29.4883<65.5471 157.359> 760.242 11.7949<611.55 649.788> 774.985 20.6416<517.059 601.985> 848.703 17.6924<421.272 484.661> 866.396 23.5898<324.591 411.922> 900.602 84.9229<153.427 232.34> 934.217 32.4355<120.57 152.592> 941.884 41.2822<232.847 272.354>
LayerCount: 2
Fore
SplineSet
667.0625 748.872070312 m 6x04e78c
 665.29296875 767.743164062 l 5x04e78c
 706.575195312 767.743164062 l 5x04eb8c
 748.448242188 767.743164062 l 5x04e78c
 748.448242188 738.256835938 l 6
 748.448242188 709.94921875 747.857421875 708.768554688 731.344726562 708.768554688 c 4x04eb8c
 721.909179688 708.768554688 711.29296875 712.307617188 707.166015625 717.025390625 c 4
 703.626953125 721.743164062 693.010742188 726.4609375 684.755859375 727.640625 c 4
 671.78125 728.821289062 668.2421875 732.94921875 667.0625 748.872070312 c 6x04e78c
619.883789062 701.692382812 m 4
 618.114257812 719.384765625 619.29296875 720.564453125 636.395507812 720.564453125 c 4
 647.6015625 720.564453125 655.857421875 717.025390625 658.216796875 711.127929688 c 4
 663.524414062 696.974609375 652.319335938 682.231445312 635.806640625 682.231445312 c 4x04f38c
 624.010742188 682.231445312 621.0625 685.768554688 619.883789062 701.692382812 c 4
685.934570312 688.127929688 m 4
 690.0625 699.922851562 696.549804688 699.333007812 708.934570312 685.1796875 c 4
 714.2421875 678.692382812 725.448242188 673.384765625 733.703125 673.384765625 c 4
 741.959960938 673.384765625 748.448242188 671.025390625 748.448242188 667.486328125 c 4
 748.448242188 664.5390625 734.883789062 661.58984375 718.959960938 661.58984375 c 4
 688.29296875 661.58984375 678.267578125 669.256835938 685.934570312 688.127929688 c 4
595.114257812 641.5390625 m 4x04e39c
 595.114257812 665.127929688 597.473632812 673.974609375 602.78125 672.205078125 c 4
 611.037109375 669.256835938 615.166015625 642.717773438 610.448242188 622.666992188 c 4
 603.959960938 597.307617188 595.114257812 607.922851562 595.114257812 641.5390625 c 4x04e39c
760.2421875 632.692382812 m 4x04e38d
 760.2421875 642.127929688 763.19140625 649.794921875 766.139648438 649.794921875 c 4
 769.677734375 649.794921875 772.037109375 640.359375 772.037109375 628.564453125 c 4
 772.037109375 616.1796875 769.677734375 609.102539062 766.139648438 611.4609375 c 4
 763.19140625 613.231445312 760.2421875 622.666992188 760.2421875 632.692382812 c 4x04e38d
571.524414062 564.872070312 m 4x04e3cc
 571.524414062 593.1796875 573.29296875 602.615234375 579.78125 602.615234375 c 4
 586.267578125 602.615234375 589.216796875 589.640625 592.166015625 552.486328125 c 4x04e3ac
 595.703125 511.794921875 598.65234375 500.58984375 607.499023438 495.872070312 c 4
 613.985351562 492.922851562 618.703125 486.435546875 618.703125 481.717773438 c 4
 618.703125 469.922851562 595.703125 470.513671875 591.575195312 481.717773438 c 4
 588.626953125 488.205078125 579.19140625 490.564453125 556.19140625 490.564453125 c 4
 532.010742188 490.564453125 524.344726562 492.922851562 524.344726562 499.41015625 c 4
 524.344726562 504.717773438 529.65234375 508.256835938 538.499023438 508.256835938 c 4
 563.267578125 508.256835938 571.524414062 523 571.524414062 564.872070312 c 4x04e3cc
774.985351562 552.486328125 m 4x04e38c80
 777.934570312 589.640625 780.883789062 602.615234375 787.370117188 602.615234375 c 4
 793.857421875 602.615234375 795.626953125 593.1796875 795.626953125 564.872070312 c 4
 795.626953125 523 803.883789062 508.256835938 828.65234375 508.256835938 c 4
 837.499023438 508.256835938 842.806640625 504.717773438 842.806640625 499.41015625 c 4
 842.806640625 492.922851562 835.139648438 490.564453125 810.959960938 490.564453125 c 4
 787.959960938 490.564453125 778.524414062 488.205078125 775.575195312 481.717773438 c 4
 771.448242188 470.513671875 748.448242188 469.922851562 748.448242188 481.717773438 c 4
 748.448242188 486.435546875 753.166015625 492.922851562 759.65234375 495.872070312 c 4
 768.499023438 500.58984375 771.448242188 511.794921875 774.985351562 552.486328125 c 4x04e38c80
500.755859375 458.127929688 m 4
 500.755859375 477.58984375 503.114257812 484.666992188 509.6015625 484.666992188 c 4
 521.395507812 484.666992188 521.395507812 438.077148438 509.6015625 422.153320312 c 4
 504.29296875 415.077148438 501.344726562 397.384765625 500.755859375 374.384765625 c 4
 500.755859375 343.717773438 502.524414062 336.640625 512.549804688 331.333007812 c 4
 535.549804688 318.94921875 523.755859375 301.846679688 491.319335938 301.846679688 c 4
 477.166015625 301.846679688 477.166015625 302.435546875 477.166015625 356.692382812 c 4
 477.166015625 403.872070312 478.934570312 412.717773438 488.959960938 421.564453125 c 4
 497.806640625 428.640625 500.755859375 438.666992188 500.755859375 458.127929688 c 4
848.703125 461.666992188 m 4x04e38c40
 848.703125 478.1796875 851.0625 484.666992188 857.549804688 484.666992188 c 4
 864.626953125 484.666992188 866.395507812 477 866.395507812 452.231445312 c 4
 866.395507812 434.5390625 864.037109375 419.794921875 861.087890625 419.794921875 c 4
 853.420898438 419.794921875 848.703125 435.717773438 848.703125 461.666992188 c 4x04e38c40
869.934570312 395.615234375 m 4
 872.29296875 405.640625 877.6015625 413.897460938 881.729492188 413.897460938 c 4
 888.216796875 413.897460938 889.985351562 401.513671875 889.985351562 357.872070312 c 6
 889.985351562 301.846679688 l 5x04e38c20
 874.0625 301.846679688 l 6
 864.626953125 301.846679688 853.420898438 304.794921875 848.703125 308.333007812 c 4x04e38c40
 841.037109375 313.05078125 841.626953125 315.41015625 853.420898438 323.666992188 c 4
 862.857421875 330.153320312 866.395507812 338.41015625 866.395507812 354.922851562 c 4x04e38c20
 866.395507812 367.307617188 868.166015625 385.58984375 869.934570312 395.615234375 c 4
453.575195312 286.513671875 m 4
 453.575195312 291.821289062 457.703125 295.94921875 463.010742188 295.94921875 c 4
 468.319335938 295.94921875 471.267578125 293 470.087890625 288.872070312 c 4
 466.549804688 278.256835938 453.575195312 276.486328125 453.575195312 286.513671875 c 4
897.0625 288.872070312 m 4
 895.883789062 293.58984375 901.78125 295.94921875 915.934570312 295.94921875 c 4
 931.267578125 295.94921875 937.166015625 293.58984375 937.166015625 286.513671875 c 4
 937.166015625 275.307617188 901.19140625 277.077148438 897.0625 288.872070312 c 4
663.524414062 273.5390625 m 4
 665.29296875 276.486328125 685.934570312 278.256835938 708.934570312 277.077148438 c 6
 751.395507812 275.307617188 l 5x85e3ae10
 754.344726562 254.666992188 l 5
 757.29296875 234.025390625 l 5
 799.755859375 229.307617188 l 5
 841.626953125 224 l 5
 843.985351562 197.4609375 l 6
 845.166015625 183.307617188 843.395507812 169.153320312 839.857421875 166.205078125 c 4
 836.319335938 163.256835938 821.575195312 160.307617188 807.420898438 159.127929688 c 6
 780.883789062 157.359375 l 5x06e3ae10
 779.114257812 109 l 6
 777.934570312 68.3076171875 779.114257812 60.05078125 786.78125 60.05078125 c 4
 792.087890625 60.05078125 795.626953125 54.7431640625 795.626953125 45.3076171875 c 4
 795.626953125 37.05078125 798.575195312 18.7685546875 802.703125 4.025390625 c 6
 809.78125 -22.513671875 l 5
 874.0625 -22.513671875 l 6
 914.755859375 -22.513671875 936.575195312 -20.1533203125 934.216796875 -16.615234375 c 4x46e38c88
 932.448242188 -13.0771484375 913.575195312 -10.7177734375 892.344726562 -10.7177734375 c 4
 863.448242188 -10.7177734375 853.420898438 -8.359375 850.473632812 -1.8720703125 c 4
 845.166015625 12.8720703125 852.2421875 15.8212890625 900.6015625 18.7685546875 c 6
 946.010742188 21.7177734375 l 5
 947.78125 41.1796875 l 6
 951.319335938 76.564453125 960.755859375 60.05078125 960.755859375 18.7685546875 c 4x4ee38c10
 960.755859375 -11.3076171875 958.395507812 -23.6923828125 952.499023438 -26.05078125 c 4
 947.78125 -27.8203125 942.473632812 -37.8466796875 940.703125 -49.05078125 c 6
 936.575195312 -68.513671875 l 5
 894.114257812 -72.640625 l 6x24e38c10
 870.524414062 -74.41015625 793.267578125 -75.58984375 721.909179688 -74.41015625 c 6x84e38c10
 592.166015625 -72.640625 l 5x24e3ac10
 590.395507812 -57.8974609375 l 6
 586.857421875 -35.486328125 578.010742188 -28.41015625 552.65234375 -28.41015625 c 4
 533.19140625 -28.41015625 525.524414062 -24.2822265625 500.755859375 1.0771484375 c 4
 480.703125 20.5390625 471.267578125 34.6923828125 471.267578125 44.7177734375 c 4
 471.267578125 53.564453125 466.549804688 62.41015625 460.0625 65.94921875 c 4
 452.985351562 69.486328125 447.677734375 79.513671875 446.499023438 91.3076171875 c 4
 444.729492188 107.821289062 442.370117188 110.768554688 424.087890625 113.127929688 c 4
 404.626953125 116.077148438 403.448242188 117.846679688 401.677734375 139.666992188 c 4
 400.499023438 152.640625 401.087890625 188.025390625 403.448242188 218.102539062 c 6
 407.575195312 272.359375 l 5
 426.448242188 272.359375 l 5
 445.909179688 272.359375 l 5
 449.448242188 201.58984375 l 6
 451.806640625 142.025390625 454.166015625 128.4609375 464.78125 115.486328125 c 4
 471.857421875 106.640625 477.166015625 94.8466796875 477.166015625 88.94921875 c 4
 477.166015625 83.05078125 482.473632812 75.384765625 488.959960938 71.8466796875 c 4
 496.037109375 68.3076171875 500.755859375 59.4609375 500.755859375 50.615234375 c 4
 500.755859375 33.513671875 529.65234375 1.0771484375 544.985351562 1.0771484375 c 4x14e3ac10
 549.703125 1.0771484375 555.6015625 5.205078125 557.370117188 9.9228515625 c 4
 559.139648438 14.640625 565.626953125 19.94921875 571.524414062 21.7177734375 c 4
 578.6015625 24.0771484375 583.319335938 31.7431640625 584.499023438 44.1279296875 c 6
 586.267578125 63 l 5
 648.19140625 63 l 5
 710.114257812 63 l 5x24e3ac10
 711.883789062 44.1279296875 l 6
 713.65234375 27.615234375 716.010742188 24.6669921875 729.575195312 24.6669921875 c 4
 751.395507812 24.6669921875 759.65234375 18.1796875 765.549804688 -2.4609375 c 4
 769.677734375 -17.794921875 770.857421875 -15.435546875 774.395507812 17.58984375 c 4
 778.524414062 50.615234375 777.934570312 55.3330078125 766.729492188 64.7685546875 c 4
 756.114257812 73.025390625 754.344726562 82.4609375 753.166015625 127.872070312 c 6
 751.395507812 180.94921875 l 5x85e3ae10
 713.0625 182.717773438 l 6
 692.420898438 183.897460938 672.370117188 186.846679688 668.83203125 189.794921875 c 4
 661.755859375 195.692382812 657.626953125 263.513671875 663.524414062 273.5390625 c 4
701.267578125 4.615234375 m 4
 701.267578125 14.05078125 685.934570312 15.8212890625 680.037109375 6.384765625 c 4
 675.319335938 -1.8720703125 686.524414062 -13.0771484375 694.78125 -8.359375 c 4
 698.319335938 -6 701.267578125 -0.1025390625 701.267578125 4.615234375 c 4
941.883789062 253.486328125 m 4x04e38c04
 943.65234375 270.58984375 945.420898438 272.359375 963.703125 272.359375 c 6
 983.166015625 272.359375 l 5x04e38c04
 985.524414062 232.846679688 l 6x04e38c10
 986.703125 200.41015625 985.524414062 191.564453125 977.267578125 184.486328125 c 4
 969.6015625 178 966.65234375 166.794921875 966.65234375 147.333007812 c 4
 966.65234375 126.102539062 964.29296875 117.846679688 955.448242188 113.717773438 c 4
 949.549804688 110.1796875 943.0625 99.564453125 941.29296875 89.5390625 c 6
 937.755859375 71.8466796875 l 5
 872.29296875 71.8466796875 l 6
 836.909179688 71.8466796875 807.420898438 74.205078125 807.420898438 77.1533203125 c 4
 807.420898438 79.513671875 826.29296875 84.2314453125 848.703125 86 c 4
 885.267578125 89.5390625 891.166015625 91.8974609375 895.883789062 104.282226562 c 4
 899.420898438 113.717773438 906.499023438 119.025390625 917.703125 120.205078125 c 4
 930.677734375 121.384765625 934.216796875 124.922851562 934.216796875 136.717773438 c 4x04e38c48
 934.216796875 148.513671875 930.677734375 152.05078125 918.29296875 153.231445312 c 4
 900.6015625 155.58984375 898.2421875 162.077148438 900.6015625 202.1796875 c 4x04e38c10
 902.959960938 229.307617188 903.549804688 230.486328125 921.2421875 232.256835938 c 4
 937.755859375 234.025390625 940.114257812 236.384765625 941.883789062 253.486328125 c 4x04e38c04
EndSplineSet
EndChar

StartChar: colon
Encoding: 58 58 83
Width: 1387
Flags: W
HStem: -86.3633 62.5<678.494 707.702> -86.3633 34.0908<469.067 588.386 616.795 650.757> -52.2725 28.4092<827.022 855.432> -23.8633 28.4092<469.067 559.976 855.432 889.522> 4.5459 28.4082<679.295 707.702 889.522 917.595> 32.9541 62.5<469.069 498.016 917.986 946.29> 32.9541 34.0918<497.422 588.386> 123.863 90.9092<469.069 497.328 559.977 615.161> 152.272 90.9092<412.399 440.62 650.886 736.113> 243.182 28.4092<469.069 497.477 917.932 946.341> 271.591 28.4092<532.069 559.974 855.434 889.371> 390.909 62.5<531.742 559.922 855.467 889.489> 419.318 34.0908<616.796 650.884 770.206 798.612> 453.409 119.318<588.534 616.795 798.652 826.874> 453.409 28.4092<559.977 587.884 827.524 855.432> 572.728 56.8184<770.243 798.574> 572.728 28.4092<616.795 650.886> 601.137 28.4092<650.886 678.969> 629.546 56.8174<679.297 707.665 736.141 770.176> 686.363 62.5<650.937 679.256> 686.363 34.0908<707.704 735.958> 720.454 28.4092<679.34 707.659>
VStem: 412.25 56.8174<214.233 243.182> 440.659 28.4082<-52.2725 -24.3651 5.0477 32.9541 95.4541 123.863> 469.067 28.4092<67.5477 95.4541 243.508 271.254> 497.477 34.0908<299.945 390.909> 531.567 28.4092<390.923 453.409> 559.977 56.8184<453.409 482.358> 588.386 28.4092<-52.2725 32.9531 481.818 572.728> 616.795 34.0908<32.9541 123.863 419.32 453.408 572.728 601.137> 650.886 56.8184<719.693 748.824> 650.886 28.4092<-23.8612 4.5438 601.191 629.546 686.363 720.452> 679.295 28.4092<629.546 686.363> 707.704 28.4092<686.4 720.452> 736.113 34.0908<629.546 686.363> 770.204 28.4092<419.32 453.407 572.728 629.532> 798.613 56.8184<453.409 482.358> 798.613 28.4092<481.818 572.728> 855.432 34.0908<-23.8612 4.5459 390.909 453.409> 889.522 28.4092<4.60062 32.9541 300 390.909> 917.932 28.4092<32.9541 95.4541 243.182 271.254> 946.341 28.4092<95.4541 243.182>
LayerCount: 2
Fore
SplineSet
650.885742188 717.61328125 m 6x00005001
 650.885742188 748.86328125 l 5x00000401
 679.294921875 748.86328125 l 6x0000040080
 706 748.86328125 707.704101562 747.727539062 707.704101562 734.659179688 c 4
 707.704101562 723.295898438 710.544921875 720.454101562 721.909179688 720.454101562 c 4x00000802
 733.840820312 720.454101562 736.11328125 717.61328125 736.11328125 703.409179688 c 4
 736.11328125 688.068359375 737.817382812 686.36328125 753.159179688 686.36328125 c 4x0000200040
 769.635742188 686.36328125 770.204101562 685.795898438 770.204101562 657.954101562 c 4
 770.204101562 631.25 771.340820312 629.545898438 784.409179688 629.545898438 c 4x0001000020
 797.4765625 629.545898438 798.61328125 627.840820312 798.61328125 601.13671875 c 4x0000400010
 798.61328125 574.431640625 799.75 572.727539062 812.817382812 572.727539062 c 4
 827.022460938 572.727539062 827.022460938 572.159179688 827.022460938 527.272460938 c 4x0004400004
 827.022460938 482.38671875 827.022460938 481.818359375 841.2265625 481.818359375 c 4
 852.590820312 481.818359375 855.431640625 478.977539062 855.431640625 467.61328125 c 4x0002000008
 855.431640625 455.681640625 858.272460938 453.409179688 872.4765625 453.409179688 c 4
 889.522460938 453.409179688 889.522460938 452.840820312 889.522460938 422.159179688 c 4x0010000002
 889.522460938 392.61328125 890.090820312 390.909179688 903.7265625 390.909179688 c 6
 917.931640625 390.909179688 l 5
 917.931640625 331.25 l 5x0010000001
 917.931640625 271.590820312 l 5x003000000080
 932.135742188 271.590820312 l 6
 943.5 271.590820312 946.340820312 268.75 946.340820312 257.38671875 c 4x004000000080
 946.340820312 246.022460938 949.181640625 243.181640625 960.544921875 243.181640625 c 6
 974.75 243.181640625 l 5
 974.75 169.318359375 l 5
 974.75 95.4541015625 l 5x044000000040
 960.544921875 95.4541015625 l 6
 946.909179688 95.4541015625 946.340820312 93.75 946.340820312 64.2041015625 c 4
 946.340820312 34.6591796875 945.772460938 32.9541015625 932.135742188 32.9541015625 c 4x044000000080
 920.772460938 32.9541015625 917.931640625 30.11328125 917.931640625 18.75 c 4
 917.931640625 7.38671875 915.090820312 4.5458984375 903.7265625 4.5458984375 c 4x0800000001
 892.36328125 4.5458984375 889.522460938 1.7041015625 889.522460938 -9.6591796875 c 4
 889.522460938 -21.5908203125 886.681640625 -23.86328125 872.4765625 -23.86328125 c 4x1000000002
 858.272460938 -23.86328125 855.431640625 -26.13671875 855.431640625 -38.068359375 c 4
 855.431640625 -51.13671875 853.7265625 -52.2724609375 827.022460938 -52.2724609375 c 4x2000000006
 799.181640625 -52.2724609375 798.61328125 -52.8408203125 798.61328125 -69.318359375 c 6
 798.61328125 -86.36328125 l 5
 633.840820312 -86.36328125 l 5
 469.067382812 -86.36328125 l 5
 469.067382812 -69.318359375 l 6x4000008006
 469.067382812 -55.11328125 466.794921875 -52.2724609375 454.86328125 -52.2724609375 c 4
 441.2265625 -52.2724609375 440.659179688 -51.13671875 440.659179688 -9.6591796875 c 4x200001
 440.659179688 31.818359375 441.2265625 32.9541015625 454.86328125 32.9541015625 c 4
 468.5 32.9541015625 469.067382812 34.6591796875 469.067382812 64.2041015625 c 4x22000080
 469.067382812 93.75 468.5 95.4541015625 454.86328125 95.4541015625 c 4
 441.794921875 95.4541015625 440.659179688 97.1591796875 440.659179688 123.86328125 c 4x050001
 440.659179688 150.568359375 439.522460938 152.272460938 426.454101562 152.272460938 c 4x008001
 412.25 152.272460938 412.25 152.840820312 412.25 197.727539062 c 6
 412.25 243.181640625 l 5x004002
 440.659179688 243.181640625 l 6x004001
 467.36328125 243.181640625 469.067382812 244.318359375 469.067382812 257.38671875 c 4
 469.067382812 268.75 471.909179688 271.590820312 483.272460938 271.590820312 c 6x00400080
 497.4765625 271.590820312 l 5
 497.4765625 331.25 l 5
 497.4765625 390.909179688 l 5x00300040
 514.522460938 390.909179688 l 6
 531.567382812 390.909179688 531.567382812 391.477539062 531.567382812 422.159179688 c 4x00300020
 531.567382812 451.704101562 532.135742188 453.409179688 545.772460938 453.409179688 c 4
 557.135742188 453.409179688 559.9765625 456.25 559.9765625 467.61328125 c 4x00300010
 559.9765625 478.977539062 562.817382812 481.818359375 574.181640625 481.818359375 c 4
 588.385742188 481.818359375 588.385742188 482.38671875 588.385742188 527.272460938 c 4x00020008
 588.385742188 572.159179688 588.385742188 572.727539062 602.590820312 572.727539062 c 4
 613.954101562 572.727539062 616.794921875 575.568359375 616.794921875 586.931640625 c 4x00040004
 616.794921875 598.86328125 619.635742188 601.13671875 633.840820312 601.13671875 c 4
 648.044921875 601.13671875 650.885742188 603.409179688 650.885742188 615.340820312 c 4x00008001
 650.885742188 626.704101562 653.7265625 629.545898438 665.090820312 629.545898438 c 4
 678.159179688 629.545898438 679.294921875 631.25 679.294921875 657.954101562 c 4x0000400080
 679.294921875 684.659179688 678.159179688 686.36328125 665.090820312 686.36328125 c 4
 651.454101562 686.36328125 650.885742188 688.068359375 650.885742188 717.61328125 c 6x00005001
707.704101562 703.409179688 m 4x0000080040
 707.704101562 717.61328125 705.431640625 720.454101562 693.5 720.454101562 c 4
 681.567382812 720.454101562 679.294921875 717.61328125 679.294921875 703.409179688 c 4x0000040140
 679.294921875 689.204101562 681.567382812 686.36328125 693.5 686.36328125 c 4
 706.567382812 686.36328125 707.704101562 684.659179688 707.704101562 657.954101562 c 4
 707.704101562 631.25 706.567382812 629.545898438 693.5 629.545898438 c 4x0000240080
 682.135742188 629.545898438 679.294921875 626.704101562 679.294921875 615.340820312 c 4
 679.294921875 603.977539062 676.454101562 601.13671875 665.090820312 601.13671875 c 4x00004001
 653.7265625 601.13671875 650.885742188 598.295898438 650.885742188 586.931640625 c 4
 650.885742188 575 648.044921875 572.727539062 633.840820312 572.727539062 c 6
 616.794921875 572.727539062 l 5x00008004
 616.794921875 513.068359375 l 5x00008008
 616.794921875 453.409179688 l 5x00028004
 588.385742188 453.409179688 l 5x00028008
 559.9765625 453.409179688 l 5x00028010
 559.9765625 422.159179688 l 6x00028020
 559.9765625 392.61328125 559.409179688 390.909179688 545.772460938 390.909179688 c 4
 531.567382812 390.909179688 531.567382812 390.340820312 531.567382812 345.454101562 c 4x00100040
 531.567382812 300.568359375 531.567382812 300 545.772460938 300 c 4
 557.135742188 300 559.9765625 297.159179688 559.9765625 285.795898438 c 4
 559.9765625 272.159179688 558.272460938 271.590820312 528.7265625 271.590820312 c 4
 499.181640625 271.590820312 497.4765625 271.022460938 497.4765625 257.38671875 c 4x00300090
 497.4765625 246.022460938 494.635742188 243.181640625 483.272460938 243.181640625 c 4
 471.909179688 243.181640625 469.067382812 240.340820312 469.067382812 228.977539062 c 4x004002
 469.067382812 217.61328125 471.909179688 214.772460938 483.272460938 214.772460938 c 4
 497.4765625 214.772460938 497.4765625 214.204101562 497.4765625 169.318359375 c 4
 497.4765625 124.431640625 497.4765625 123.86328125 483.272460938 123.86328125 c 4
 471.909179688 123.86328125 469.067382812 121.022460938 469.067382812 109.659179688 c 4
 469.067382812 98.2958984375 471.909179688 95.4541015625 483.272460938 95.4541015625 c 4x05400140
 494.635742188 95.4541015625 497.4765625 92.61328125 497.4765625 81.25 c 4
 497.4765625 67.0458984375 498.044921875 67.0458984375 542.931640625 67.0458984375 c 6
 588.385742188 67.0458984375 l 5
 588.385742188 50 l 5
 588.385742188 32.9541015625 l 5
 528.7265625 32.9541015625 l 5
 469.067382812 32.9541015625 l 5x02000088
 469.067382812 18.75 l 6
 469.067382812 4.5458984375 469.635742188 4.5458984375 514.522460938 4.5458984375 c 4
 559.409179688 4.5458984375 559.9765625 4.5458984375 559.9765625 -9.6591796875 c 4
 559.9765625 -23.86328125 559.409179688 -23.86328125 514.522460938 -23.86328125 c 4
 469.635742188 -23.86328125 469.067382812 -23.86328125 469.067382812 -38.068359375 c 6x12000110
 469.067382812 -52.2724609375 l 5
 528.7265625 -52.2724609375 l 5
 588.385742188 -52.2724609375 l 5
 588.385742188 -9.6591796875 l 6
 588.385742188 31.818359375 588.954101562 32.9541015625 602.590820312 32.9541015625 c 4
 616.2265625 32.9541015625 616.794921875 31.818359375 616.794921875 -9.6591796875 c 6
 616.794921875 -52.2724609375 l 5
 633.840820312 -52.2724609375 l 6
 650.317382812 -52.2724609375 650.885742188 -51.7041015625 650.885742188 -23.86328125 c 4x52000089
 650.885742188 2.8408203125 652.022460938 4.5458984375 665.090820312 4.5458984375 c 4
 676.454101562 4.5458984375 679.294921875 1.7041015625 679.294921875 -9.6591796875 c 4
 679.294921875 -21.0224609375 682.135742188 -23.86328125 693.5 -23.86328125 c 4
 704.86328125 -23.86328125 707.704101562 -21.0224609375 707.704101562 -9.6591796875 c 4
 707.704101562 1.7041015625 704.86328125 4.5458984375 693.5 4.5458984375 c 4x8800008940
 682.135742188 4.5458984375 679.294921875 7.38671875 679.294921875 18.75 c 6
 679.294921875 32.9541015625 l 5
 738.954101562 32.9541015625 l 5
 798.61328125 32.9541015625 l 5x0200000084
 798.61328125 18.75 l 6
 798.61328125 7.38671875 801.454101562 4.5458984375 812.817382812 4.5458984375 c 4
 824.181640625 4.5458984375 827.022460938 1.7041015625 827.022460938 -9.6591796875 c 4
 827.022460938 -21.0224609375 829.86328125 -23.86328125 841.2265625 -23.86328125 c 4x2800000084
 852.590820312 -23.86328125 855.431640625 -21.0224609375 855.431640625 -9.6591796875 c 4
 855.431640625 2.2724609375 858.272460938 4.5458984375 872.4765625 4.5458984375 c 4x1000000086
 886.681640625 4.5458984375 889.522460938 6.818359375 889.522460938 18.75 c 4
 889.522460938 30.11328125 892.36328125 32.9541015625 903.7265625 32.9541015625 c 4x0800000001
 917.36328125 32.9541015625 917.931640625 34.6591796875 917.931640625 64.2041015625 c 4
 917.931640625 93.75 918.5 95.4541015625 932.135742188 95.4541015625 c 6
 946.340820312 95.4541015625 l 5x040000000080
 946.340820312 169.318359375 l 5x040000000040
 946.340820312 243.181640625 l 5
 932.135742188 243.181640625 l 6x044000000080
 920.772460938 243.181640625 917.931640625 246.022460938 917.931640625 257.38671875 c 4
 917.931640625 271.022460938 916.2265625 271.590820312 886.681640625 271.590820312 c 4
 857.135742188 271.590820312 855.431640625 272.159179688 855.431640625 285.795898438 c 4x002000000280
 855.431640625 297.727539062 858.272460938 300 872.4765625 300 c 6
 889.522460938 300 l 5
 889.522460938 345.454101562 l 5x0020000001
 889.522460938 390.909179688 l 5
 872.4765625 390.909179688 l 6x0030000002
 855.431640625 390.909179688 855.431640625 391.477539062 855.431640625 422.159179688 c 6
 855.431640625 453.409179688 l 5
 827.022460938 453.409179688 l 5
 798.61328125 453.409179688 l 5
 798.61328125 513.068359375 l 5
 798.61328125 572.727539062 l 5x0002800006
 784.409179688 572.727539062 l 6x0001000006
 771.340820312 572.727539062 770.204101562 574.431640625 770.204101562 601.13671875 c 4x0000400010
 770.204101562 628.977539062 769.635742188 629.545898438 753.159179688 629.545898438 c 4
 736.681640625 629.545898438 736.11328125 630.11328125 736.11328125 657.954101562 c 4x0000200020
 736.11328125 684.659179688 734.9765625 686.36328125 721.909179688 686.36328125 c 4
 709.9765625 686.36328125 707.704101562 689.204101562 707.704101562 703.409179688 c 4x0000080040
616.794921875 436.36328125 m 4x00080004
 616.794921875 451.704101562 618.5 453.409179688 633.840820312 453.409179688 c 4
 649.181640625 453.409179688 650.885742188 451.704101562 650.885742188 436.36328125 c 4
 650.885742188 421.022460938 649.181640625 419.318359375 633.840820312 419.318359375 c 4
 618.5 419.318359375 616.794921875 421.022460938 616.794921875 436.36328125 c 4x00080004
770.204101562 436.36328125 m 4x0008000010
 770.204101562 450.568359375 772.4765625 453.409179688 784.409179688 453.409179688 c 4
 796.340820312 453.409179688 798.61328125 450.568359375 798.61328125 436.36328125 c 4
 798.61328125 422.159179688 796.340820312 419.318359375 784.409179688 419.318359375 c 4
 772.4765625 419.318359375 770.204101562 422.159179688 770.204101562 436.36328125 c 4x0008000010
650.885742188 228.977539062 m 4x03000011
 650.885742188 242.61328125 652.022460938 243.181640625 693.5 243.181640625 c 6
 736.11328125 243.181640625 l 5
 736.11328125 197.727539062 l 5
 736.11328125 152.272460938 l 5
 693.5 152.272460938 l 5
 650.885742188 152.272460938 l 5x0080001120
 650.885742188 92.61328125 l 5
 650.885742188 32.9541015625 l 5
 633.840820312 32.9541015625 l 5
 616.794921875 32.9541015625 l 5
 616.794921875 78.4091796875 l 5
 616.794921875 123.86328125 l 5x03000004
 588.385742188 123.86328125 l 5x03000008
 559.9765625 123.86328125 l 5
 559.9765625 169.318359375 l 5
 559.9765625 214.772460938 l 5
 605.431640625 214.772460938 l 6
 650.317382812 214.772460938 650.885742188 214.772460938 650.885742188 228.977539062 c 4x03000011
EndSplineSet
EndChar

StartChar: semicolon
Encoding: 59 59 84
Width: 1387
Flags: W
HStem: -37.7588 119.448<530.715 558.87 915.105 948.729> -37.7588 59.7236<498.105 530.678 590.276 596 650 829.301 889.025 889.211 948.752 975.897> -5.18164 59.7246<467.758 498.104 975.898 1008.45> -5.18164 27.1465<590.446 650.116 829.314 888.992> 21.9648 32.5781<499.73 529.051 950.922 973.727> 54.543 86.8701<465.547 481.814 498.104 498.104 498.105 530.658 948.793 975.855 992.186 1008.45> 201.14 92.2998<893.601 948.75> 326.017 27.1484<557.878 590.402 889.027 915.622> 445.467 59.7236<557.847 590.383 889.061 915.999> 505.19 119.447<617.551 617.551 633.84 650.129 829.336 856.274> 505.19 27.1475<590.998 616.999 872.736 856.449 891.74 893> 624.638 59.7256<677.089 678.218 796.746 829.279> 624.638 27.1475<650.989 677.223> 651.785 59.7246<677.275 707.137 709.853 736.965> 651.785 34.2148<681 708> 684.363 59.7246<769.621 796.689> 697 21G<675 707> 744.088 32.5771<709.852 739.715 771.748 776>
VStem: 468 30.1035<-13 -12.7408 21.97 54.5378> 498.104 59.7227<54.543 82.6318> 498.104 32.5762<23.5938 52.9131 81.6372 141.413> 557.826 32.5781<445.467 505.19> 590.404 59.7246<-21.4707 -11.633 505.19 532.778> 617.551 32.5781<531.744 578.488> 650 27.2754<626 651> 677.275 32.5762<711.51 743.981> 709.852 27.1484<684.265 711.467> 769.578 27.1465<684.377 744.088> 796.725 32.5762<624.638 684.363> 829.301 59.7246<-21.4707 -12.0536 505.19 532.338> 829.301 27.1484<532.338 624.638> 837 52.0254<-41 -12> 889.025 27.1484<445.48 505.19> 916.174 32.5762<353.113 445.467> 948.75 27.1484<24.6807 51.8281 81.7027 141.413 293.475 325.762> 975.898 32.5762<21.9912 54.542 141.413 201.14>
LayerCount: 2
Fore
SplineSet
51 799 m 1049x03
47.5 798 m 13
 48 -199 l 29
 978 -201 l 29
 979 -42 l 29
 891 -41 l 29
 884 -11 l 29
 839 -12 l 29
 837 -42 l 29
 649 -43 l 29
 650 -10 l 29
 600 -12 l 29
 596 -44 l 29
 498 -42 l 29
 493 -12 l 29
 467 -13 l 29
 468 55 l 29
 497 56 l 29
 498 136 l 29
 467 135 l 29
 467 294 l 29
 496 297 l 29
 502 328 l 29
 530 329 l 29
 531 445 l 29
 554 448 l 29
 558 507 l 29
 588 507 l 29
 594 531 l 29
 614 533 l 29
 619 625 l 29
 650 626 l 29
 652 651 l 29
 674 655 l 29
 681 682 l 29
 708 686 l 29
 707 705 l 29
 691 697 l 29
 675 711 l 29
 680 779 l 29
 776 779 l 29
 781 745 l 29
 804 742 l 29
 806 686 l 29x0302a081
 836 682 l 29
 838 627 l 29
 862 624 l 29
 864 534 l 29
 893 534 l 29
 900 506 l 29
 922 503 l 29
 928 446 l 29
 956 446 l 29
 956 327 l 29
 981 325 l 29
 988 294 l 29
 1016 295 l 29
 1016 139 l 29
 983 138 l 29
 983 56 l 29
 1000 57 l 29
 1013 52 l 29
 1018 8 l 29
 1009 -7 l 29
 990 -10 l 29
 983 -16 l 29
 986 -41 l 29
 979.8984375 -39.7587890625 l 29
 980 -198 l 29
 1347.5 -202 l 29
 1347.5 798 l 21
 914.166992188 793.994140625 480.833007812 797.078125 47.5 798 c 13
857.5 283 m 27
 857.5 301 856.9921875 293.439453125 902.599609375 293.439453125 c 2
 948.75 293.439453125 l 1
 948.75 309.728515625 l 2
 948.75 326.016601562 948.20703125 326.016601562 918.888671875 326.016601562 c 0
 890.654296875 326.016601562 889.025390625 326.559570312 889.025390625 339.58984375 c 0x07000000a0
 889.025390625 350.44921875 891.740234375 353.165039062 902.599609375 353.165039062 c 0
 916.173828125 353.165039062 916.173828125 353.70703125 916.173828125 399.314453125 c 0
 916.173828125 444.922851562 916.173828125 445.466796875 902.599609375 445.466796875 c 0x0780000040
 889.568359375 445.466796875 889.025390625 447.095703125 889.025390625 475.328125 c 2
 889.025390625 505.190429688 l 1
 859.1640625 505.190429688 l 1
 829.30078125 505.190429688 l 1
 829.30078125 564.9140625 l 1
 829.30078125 624.637695312 l 1x0328000280
 813.013671875 624.637695312 l 2x0310000280
 796.724609375 624.637695312 796.724609375 625.181640625 796.724609375 654.5 c 0
 796.724609375 682.734375 796.181640625 684.36328125 783.150390625 684.36328125 c 0x03010008
 770.119140625 684.36328125 769.578125 685.993164062 769.578125 714.225585938 c 2
 769.578125 744.087890625 l 1
 739.71484375 744.087890625 l 2
 710.396484375 744.087890625 709.8515625 744.087890625 709.8515625 727.798828125 c 0
 709.8515625 714.225585938 712.025390625 711.509765625 723.42578125 711.509765625 c 0x03044050
 736.45703125 711.509765625 737 709.881835938 737 681.6484375 c 2
 737 651.78515625 l 1x03020020
 707.13671875 651.78515625 l 2
 678.904296875 651.78515625 677.275390625 651.244140625 677.275390625 638.211914062 c 0x030400a0
 677.275390625 627.353515625 674.560546875 624.637695312 663.703125 624.637695312 c 2
 650.12890625 624.637695312 l 1
 650.12890625 564.9140625 l 1
 650.12890625 505.190429688 l 1x032801
 620.265625 505.190429688 l 1
 590.404296875 505.190429688 l 1x032802
 590.404296875 475.328125 l 2
 590.404296875 446.0078125 590.404296875 445.466796875 574.115234375 445.466796875 c 2
 557.826171875 445.466796875 l 1
 557.826171875 399.314453125 l 1
 557.826171875 353.165039062 l 1x038004
 574.115234375 353.165039062 l 2
 587.689453125 353.165039062 590.404296875 350.9921875 590.404296875 339.58984375 c 0
 590.404296875 326.559570312 588.775390625 326.016601562 560.54296875 326.016601562 c 0
 531.22265625 326.016601562 530.6796875 326.016601562 530.6796875 309.728515625 c 0
 530.6796875 293.439453125 531.22265625 293.439453125 560.54296875 293.439453125 c 0
 588.775390625 293.439453125 590.404296875 293 590.404296875 279.866210938 c 2
 590.404296875 266.29296875 l 1
 590.404296875 216.29296875 476.5 218 498.5 173 c 2
 477.5 152 498.103515625 141.413085938 514.390625 141.413085938 c 0x07800a
 530.6796875 141.413085938 530.6796875 140.87109375 530.6796875 111.552734375 c 0
 530.6796875 83.3193359375 531.22265625 81.689453125 544.251953125 81.689453125 c 0x83000a
 555.111328125 81.689453125 557.826171875 78.9755859375 557.826171875 68.1162109375 c 0
 557.826171875 56.7138671875 560.54296875 54.54296875 574.115234375 54.54296875 c 0
 588.775390625 54.54296875 590.404296875 52.9130859375 590.404296875 38.2548828125 c 0x070012
 590.404296875 24.6806640625 592.5 21.96484375 603.978515625 21.96484375 c 2
 617.55078125 21.96484375 l 1
 852.5 22 l 1
 872.736328125 21.96484375 l 2
 887.5 21.939453125 889.025390625 23.59375 889.025390625 38.2548828125 c 0x1700010080
 889.025390625 51.828125 891.197265625 54.54296875 902.599609375 54.54296875 c 0
 913.45703125 54.54296875 916.173828125 57.2578125 916.173828125 68.1162109375 c 0x1700000040
 916.173828125 79.5185546875 918.888671875 81.689453125 932.4609375 81.689453125 c 0
 948.75 81.689453125 948.75 82.234375 948.75 111.552734375 c 0x8300000020
 948.75 139.78515625 949.29296875 141.413085938 962.32421875 141.413085938 c 0
 975.35546875 141.413085938 975.8984375 143 975.8984375 171.275390625 c 2
 975.8984375 201.139648438 l 0x0700000010
 919.8984375 201.139648438 857.5 227 857.5 283 c 27
677.275390625 744.087890625 m 1x03004050
 677.275390625 711.509765625 l 1x03044050
 693.564453125 711.509765625 l 2
 707.13671875 711.509765625 709.8515625 709.33984375 709.8515625 697.9375 c 0x03044020
 709.8515625 686.53515625 707.13671875 684.36328125 693.564453125 684.36328125 c 0
 678.904296875 684.36328125 677.275390625 682.734375 677.275390625 668.07421875 c 0
 677.275390625 654.5 675.103515625 651.78515625 663.703125 651.78515625 c 0x03090040
 652.84375 651.78515625 650.12890625 649.071289062 650.12890625 638.211914062 c 0
 650.12890625 626.811523438 647.416015625 624.637695312 633.83984375 624.637695312 c 2
 617.55078125 624.637695312 l 1
 617.55078125 578.48828125 l 2x03400140
 617.55078125 532.880859375 617.55078125 532.337890625 603.978515625 532.337890625 c 0
 593.119140625 532.337890625 590.404296875 529.622070312 590.404296875 518.764648438 c 0x032002
 590.404296875 507.362304688 587.689453125 505.190429688 574.115234375 505.190429688 c 0
 557.826171875 505.190429688 557.826171875 504.646484375 557.826171875 475.328125 c 0
 557.826171875 447.095703125 557.28515625 445.466796875 544.251953125 445.466796875 c 2
 530.6796875 445.466796875 l 1
 530.6796875 385.741210938 l 1
 530.6796875 326.016601562 l 1
 514.390625 326.016601562 l 2
 499.73046875 326.016601562 498.103515625 324.388671875 498.103515625 309.728515625 c 0
 498.103515625 295.069335938 496.47265625 293.439453125 481.814453125 293.439453125 c 2
 465.525390625 293.439453125 l 1
 465.525390625 217.427734375 l 1
 465.525390625 141.413085938 l 1
 481.814453125 141.413085938 l 1
 498.103515625 141.413085938 l 1
 498.103515625 97.978515625 l 1x07800c
 498.103515625 54.54296875 l 1x078010
 481.814453125 54.54296875 l 2
 465.525390625 54.54296875 465.525390625 53.9990234375 465.525390625 24.6806640625 c 0
 465.525390625 -4.6376953125 465.525390625 -5.181640625 481.814453125 -5.181640625 c 0x230010
 496.47265625 -5.181640625 498.103515625 -6.810546875 498.103515625 -21.470703125 c 2
 498.103515625 -37.7587890625 l 1x430008
 544.251953125 -37.7587890625 l 1x830008
 590.404296875 -37.7587890625 l 1x43000a
 590.404296875 -21.470703125 l 2
 590.404296875 -5.181640625 590.9453125 -5.181640625 620.265625 -5.181640625 c 0
 649.5859375 -5.181640625 650.12890625 -5.181640625 650.12890625 -21.470703125 c 2x13000a
 650.12890625 -37.7587890625 l 1
 739.71484375 -37.7587890625 l 1
 829.30078125 -37.7587890625 l 1x43000102
 829.30078125 -21.470703125 l 2
 829.30078125 -5.181640625 829.84375 -5.181640625 859.1640625 -5.181640625 c 0
 888.482421875 -5.181640625 889.025390625 -5.181640625 889.025390625 -21.470703125 c 2x13000004
 889.025390625 -37.7587890625 l 1x43000001
 932.4609375 -37.7587890625 l 1x83000001
 975.8984375 -37.7587890625 l 1x4300000110
 975.8984375 -21.470703125 l 2
 975.8984375 -6.810546875 977.52734375 -5.181640625 992.185546875 -5.181640625 c 0
 1008.47460938 -5.181640625 1008.47460938 -4.6376953125 1008.47460938 24.6806640625 c 0
 1008.47460938 53.9990234375 1008.47460938 54.54296875 992.185546875 54.54296875 c 2x2300000110
 975.8984375 54.54296875 l 1x0700000110
 975.8984375 97.978515625 l 1x0700000020
 975.8984375 141.413085938 l 1
 992.185546875 141.413085938 l 1
 1008.47460938 141.413085938 l 1
 1008.47460938 217.427734375 l 1
 1008.47460938 293.439453125 l 1x0700000010
 992.185546875 293.439453125 l 2
 977.52734375 293.439453125 975.8984375 295.069335938 975.8984375 309.728515625 c 0
 975.8984375 323.301757812 973.7265625 326.016601562 962.32421875 326.016601562 c 2
 948.75 326.016601562 l 1x0700000020
 948.75 385.741210938 l 1x0700000040
 948.75 445.466796875 l 1
 932.4609375 445.466796875 l 2
 916.173828125 445.466796875 916.173828125 446.0078125 916.173828125 475.328125 c 0x07800000a0
 916.173828125 503.561523438 915.62890625 505.190429688 902.599609375 505.190429688 c 0
 891.740234375 505.190429688 889.025390625 507.905273438 889.025390625 518.764648438 c 0x07800004
 889.025390625 530.165039062 886.3125 532.337890625 872.736328125 532.337890625 c 2
 856.44921875 532.337890625 l 1x03200002
 856.44921875 578.48828125 l 2
 856.44921875 624.095703125 856.44921875 624.637695312 842.875 624.637695312 c 0x03400002
 829.84375 624.637695312 829.30078125 626.268554688 829.30078125 654.5 c 0
 829.30078125 683.819335938 829.30078125 684.36328125 813.013671875 684.36328125 c 0x03100008
 796.724609375 684.36328125 796.724609375 684.905273438 796.724609375 714.225585938 c 0
 796.724609375 742.458984375 796.181640625 744.087890625 783.150390625 744.087890625 c 0x03010010
 771.748046875 744.087890625 769.578125 746.802734375 769.578125 760.376953125 c 2
 769.578125 776.665039062 l 1
 723.42578125 776.665039062 l 1
 677.275390625 776.665039062 l 1
 677.275390625 744.087890625 l 1x03004050
889.025390625 339.58984375 m 1024x0300000080
889.025390625 505.190429688 m 1025x0320000080
783.150390625 684.36328125 m 1024x0301
677.275390625 638.211914062 m 1024x03000080
557.826171875 353.165039062 m 1025x030004
530.6796875 38.2548828125 m 0x430008
 530.6796875 52.9130859375 529.05078125 54.54296875 514.390625 54.54296875 c 0
 499.73046875 54.54296875 498.103515625 52.9130859375 498.103515625 38.2548828125 c 0x0b0020
 498.103515625 23.59375 499.73046875 21.96484375 514.390625 21.96484375 c 0
 529.05078125 21.96484375 530.6796875 23.59375 530.6796875 38.2548828125 c 0x430008
975.8984375 38.2548828125 m 0x4300000020
 975.8984375 51.828125 973.7265625 54.54296875 962.32421875 54.54296875 c 0x0b00000020
 950.921875 54.54296875 948.75 51.828125 948.75 38.2548828125 c 0
 948.75 24.6806640625 950.921875 21.96484375 962.32421875 21.96484375 c 0
 973.7265625 21.96484375 975.8984375 24.6806640625 975.8984375 38.2548828125 c 0x4300000020
813.013671875 505.190429688 m 1024x0320
677.275390625 744.087890625 m 1x03044040
 677.275390625 776.665039062 l 1
 723.42578125 776.665039062 l 1
 769.578125 776.665039062 l 1x03044050
 769.578125 760.376953125 l 2
 769.578125 746.802734375 771.748046875 744.087890625 783.150390625 744.087890625 c 0x03010050
 796.181640625 744.087890625 796.724609375 742.458984375 796.724609375 714.225585938 c 0
 796.724609375 684.905273438 796.724609375 684.36328125 813.013671875 684.36328125 c 0x03100050
 829.30078125 684.36328125 829.30078125 683.819335938 829.30078125 654.5 c 0
 829.30078125 626.268554688 829.84375 624.637695312 842.875 624.637695312 c 0x03400008
 856.44921875 624.637695312 856.44921875 624.095703125 856.44921875 578.48828125 c 2
 856.44921875 532.337890625 l 1x03200002
 872.736328125 532.337890625 l 2
 886.3125 532.337890625 889.025390625 530.165039062 889.025390625 518.764648438 c 0x03200004
 889.025390625 507.905273438 891.740234375 505.190429688 902.599609375 505.190429688 c 0
 915.62890625 505.190429688 916.173828125 503.561523438 916.173828125 475.328125 c 0
 916.173828125 446.0078125 916.173828125 445.466796875 932.4609375 445.466796875 c 2
 948.75 445.466796875 l 1x03800000a0
 948.75 385.741210938 l 1x0380000040
 948.75 326.016601562 l 1
 962.32421875 326.016601562 l 2
 973.7265625 326.016601562 975.8984375 323.301757812 975.8984375 309.728515625 c 0x0380000020
 975.8984375 295.069335938 977.52734375 293.439453125 992.185546875 293.439453125 c 2
 1008.47460938 293.439453125 l 1
 1008.47460938 217.427734375 l 1
 1008.47460938 141.413085938 l 1
 992.185546875 141.413085938 l 1
 975.8984375 141.413085938 l 1x0780000010
 975.8984375 97.978515625 l 1x0780000020
 975.8984375 54.54296875 l 1x0780000010
 992.185546875 54.54296875 l 2
 1008.47460938 54.54296875 1008.47460938 53.9990234375 1008.47460938 24.6806640625 c 0
 1008.47460938 -4.6376953125 1008.47460938 -5.181640625 992.185546875 -5.181640625 c 0x2300000010
 977.52734375 -5.181640625 975.8984375 -6.810546875 975.8984375 -21.470703125 c 2
 975.8984375 -37.7587890625 l 1x4300000010
 932.4609375 -37.7587890625 l 1x8300000010
 889.025390625 -37.7587890625 l 1x4300000110
 889.025390625 -21.470703125 l 2
 889.025390625 -5.181640625 888.482421875 -5.181640625 859.1640625 -5.181640625 c 0
 829.84375 -5.181640625 829.30078125 -5.181640625 829.30078125 -21.470703125 c 2x13000004
 829.30078125 -37.7587890625 l 1
 739.71484375 -37.7587890625 l 1
 650.12890625 -37.7587890625 l 1x43000102
 650.12890625 -21.470703125 l 2
 650.12890625 -5.181640625 649.5859375 -5.181640625 620.265625 -5.181640625 c 0x130002
 590.9453125 -5.181640625 590.404296875 -5.181640625 590.404296875 -21.470703125 c 2
 590.404296875 -37.7587890625 l 1x430002
 544.251953125 -37.7587890625 l 1x830002
 498.103515625 -37.7587890625 l 1x43000a
 498.103515625 -21.470703125 l 2
 498.103515625 -6.810546875 496.47265625 -5.181640625 481.814453125 -5.181640625 c 0
 465.525390625 -5.181640625 465.525390625 -4.6376953125 465.525390625 24.6806640625 c 0
 465.525390625 53.9990234375 465.525390625 54.54296875 481.814453125 54.54296875 c 2x23000a
 498.103515625 54.54296875 l 1x070010
 498.103515625 97.978515625 l 1
 498.103515625 141.413085938 l 1
 481.814453125 141.413085938 l 1
 465.525390625 141.413085938 l 1
 465.525390625 217.427734375 l 1
 465.525390625 293.439453125 l 1
 481.814453125 293.439453125 l 2
 496.47265625 293.439453125 498.103515625 295.069335938 498.103515625 309.728515625 c 0
 498.103515625 324.388671875 499.73046875 326.016601562 514.390625 326.016601562 c 2
 530.6796875 326.016601562 l 1
 530.6796875 385.741210938 l 1
 530.6796875 445.466796875 l 1
 544.251953125 445.466796875 l 2
 557.28515625 445.466796875 557.826171875 447.095703125 557.826171875 475.328125 c 0
 557.826171875 504.646484375 557.826171875 505.190429688 574.115234375 505.190429688 c 0x07800c
 587.689453125 505.190429688 590.404296875 507.362304688 590.404296875 518.764648438 c 0
 590.404296875 529.622070312 593.119140625 532.337890625 603.978515625 532.337890625 c 0x032002
 617.55078125 532.337890625 617.55078125 532.880859375 617.55078125 578.48828125 c 2
 617.55078125 624.637695312 l 1
 633.83984375 624.637695312 l 2x034001
 647.416015625 624.637695312 650.12890625 626.811523438 650.12890625 638.211914062 c 0
 650.12890625 649.071289062 652.84375 651.78515625 663.703125 651.78515625 c 0
 675.103515625 651.78515625 677.275390625 654.5 677.275390625 668.07421875 c 0x03080140
 677.275390625 682.734375 678.904296875 684.36328125 693.564453125 684.36328125 c 0
 707.13671875 684.36328125 709.8515625 686.53515625 709.8515625 697.9375 c 0x03090020
 709.8515625 709.33984375 707.13671875 711.509765625 693.564453125 711.509765625 c 2
 677.275390625 711.509765625 l 1
 677.275390625 744.087890625 l 1x03044040
889.025390625 339.58984375 m 1024x0300000080
889.025390625 505.190429688 m 1025x0320000080
783.150390625 684.36328125 m 1024x0301
677.275390625 638.211914062 m 1024x03000080
557.826171875 353.165039062 m 1025x030004
530.6796875 38.2548828125 m 0x430008
 530.6796875 52.9130859375 529.05078125 54.54296875 514.390625 54.54296875 c 0
 499.73046875 54.54296875 498.103515625 52.9130859375 498.103515625 38.2548828125 c 0x0b0020
 498.103515625 23.59375 499.73046875 21.96484375 514.390625 21.96484375 c 0
 529.05078125 21.96484375 530.6796875 23.59375 530.6796875 38.2548828125 c 0x430008
975.8984375 38.2548828125 m 0x4300000020
 975.8984375 51.828125 973.7265625 54.54296875 962.32421875 54.54296875 c 0x0b00000020
 950.921875 54.54296875 948.75 51.828125 948.75 38.2548828125 c 0
 948.75 24.6806640625 950.921875 21.96484375 962.32421875 21.96484375 c 0
 973.7265625 21.96484375 975.8984375 24.6806640625 975.8984375 38.2548828125 c 0x4300000020
677.275390625 744.087890625 m 1x03044040
 677.275390625 776.665039062 l 1
 723.42578125 776.665039062 l 1
 769.578125 776.665039062 l 1x03044050
 769.578125 760.376953125 l 2
 769.578125 746.802734375 771.748046875 744.087890625 783.150390625 744.087890625 c 0x03010050
 796.181640625 744.087890625 796.724609375 742.458984375 796.724609375 714.225585938 c 0
 796.724609375 684.905273438 796.724609375 684.36328125 813.013671875 684.36328125 c 0x03100050
 829.30078125 684.36328125 829.30078125 683.819335938 829.30078125 654.5 c 0
 829.30078125 626.268554688 829.84375 624.637695312 842.875 624.637695312 c 0x03400008
 856.44921875 624.637695312 856.44921875 624.095703125 856.44921875 578.48828125 c 2
 856.44921875 532.337890625 l 1x03200002
 872.736328125 532.337890625 l 2
 886.3125 532.337890625 889.025390625 530.165039062 889.025390625 518.764648438 c 0x03200004
 889.025390625 507.905273438 891.740234375 505.190429688 902.599609375 505.190429688 c 0
 915.62890625 505.190429688 916.173828125 503.561523438 916.173828125 475.328125 c 0
 916.173828125 446.0078125 916.173828125 445.466796875 932.4609375 445.466796875 c 2
 948.75 445.466796875 l 1x03800000a0
 948.75 385.741210938 l 1x0380000040
 948.75 326.016601562 l 1
 962.32421875 326.016601562 l 2
 973.7265625 326.016601562 975.8984375 323.301757812 975.8984375 309.728515625 c 0x0380000020
 975.8984375 295.069335938 977.52734375 293.439453125 992.185546875 293.439453125 c 2
 1008.47460938 293.439453125 l 1
 1008.47460938 217.427734375 l 1
 1008.47460938 141.413085938 l 1
 992.185546875 141.413085938 l 1
 975.8984375 141.413085938 l 1x0780000010
 975.8984375 97.978515625 l 1x0780000020
 975.8984375 54.54296875 l 1x0780000010
 992.185546875 54.54296875 l 2
 1008.47460938 54.54296875 1008.47460938 53.9990234375 1008.47460938 24.6806640625 c 0
 1008.47460938 -4.6376953125 1008.47460938 -5.181640625 992.185546875 -5.181640625 c 0x2300000010
 977.52734375 -5.181640625 975.8984375 -6.810546875 975.8984375 -21.470703125 c 2
 975.8984375 -37.7587890625 l 1x4300000010
 932.4609375 -37.7587890625 l 1x8300000010
 889.025390625 -37.7587890625 l 1x4300000110
 889.025390625 -21.470703125 l 2
 889.025390625 -5.181640625 888.482421875 -5.181640625 859.1640625 -5.181640625 c 0
 829.84375 -5.181640625 829.30078125 -5.181640625 829.30078125 -21.470703125 c 2x13000004
 829.30078125 -37.7587890625 l 1
 739.71484375 -37.7587890625 l 1
 650.12890625 -37.7587890625 l 1x43000102
 650.12890625 -21.470703125 l 2
 650.12890625 -5.181640625 649.5859375 -5.181640625 620.265625 -5.181640625 c 0x130002
 590.9453125 -5.181640625 590.404296875 -5.181640625 590.404296875 -21.470703125 c 2
 590.404296875 -37.7587890625 l 1x430002
 544.251953125 -37.7587890625 l 1x830002
 498.103515625 -37.7587890625 l 1x43000a
 498.103515625 -21.470703125 l 2
 498.103515625 -6.810546875 496.47265625 -5.181640625 481.814453125 -5.181640625 c 0
 465.525390625 -5.181640625 465.525390625 -4.6376953125 465.525390625 24.6806640625 c 0
 465.525390625 53.9990234375 465.525390625 54.54296875 481.814453125 54.54296875 c 2x23000a
 498.103515625 54.54296875 l 1x070010
 498.103515625 97.978515625 l 1
 498.103515625 141.413085938 l 1
 481.814453125 141.413085938 l 1
 465.525390625 141.413085938 l 1
 465.525390625 217.427734375 l 1
 465.525390625 293.439453125 l 1
 481.814453125 293.439453125 l 2
 496.47265625 293.439453125 498.103515625 295.069335938 498.103515625 309.728515625 c 0
 498.103515625 324.388671875 499.73046875 326.016601562 514.390625 326.016601562 c 2
 530.6796875 326.016601562 l 1
 530.6796875 385.741210938 l 1
 530.6796875 445.466796875 l 1
 544.251953125 445.466796875 l 2
 557.28515625 445.466796875 557.826171875 447.095703125 557.826171875 475.328125 c 0
 557.826171875 504.646484375 557.826171875 505.190429688 574.115234375 505.190429688 c 0x07800c
 587.689453125 505.190429688 590.404296875 507.362304688 590.404296875 518.764648438 c 0
 590.404296875 529.622070312 593.119140625 532.337890625 603.978515625 532.337890625 c 0x032002
 617.55078125 532.337890625 617.55078125 532.880859375 617.55078125 578.48828125 c 2
 617.55078125 624.637695312 l 1
 633.83984375 624.637695312 l 2x034001
 647.416015625 624.637695312 650.12890625 626.811523438 650.12890625 638.211914062 c 0
 650.12890625 649.071289062 652.84375 651.78515625 663.703125 651.78515625 c 0
 675.103515625 651.78515625 677.275390625 654.5 677.275390625 668.07421875 c 0x03080140
 677.275390625 682.734375 678.904296875 684.36328125 693.564453125 684.36328125 c 0
 707.13671875 684.36328125 709.8515625 686.53515625 709.8515625 697.9375 c 0x03090020
 709.8515625 709.33984375 707.13671875 711.509765625 693.564453125 711.509765625 c 2
 677.275390625 711.509765625 l 1
 677.275390625 744.087890625 l 1x03044040
530.6796875 38.2548828125 m 0x430008
 530.6796875 52.9130859375 529.05078125 54.54296875 514.390625 54.54296875 c 0
 499.73046875 54.54296875 498.103515625 52.9130859375 498.103515625 38.2548828125 c 0x0b0020
 498.103515625 23.59375 499.73046875 21.96484375 514.390625 21.96484375 c 0
 529.05078125 21.96484375 530.6796875 23.59375 530.6796875 38.2548828125 c 0x430008
975.8984375 38.2548828125 m 0x4300000020
 975.8984375 51.828125 973.7265625 54.54296875 962.32421875 54.54296875 c 0x0b00000020
 950.921875 54.54296875 948.75 51.828125 948.75 38.2548828125 c 0
 948.75 24.6806640625 950.921875 21.96484375 962.32421875 21.96484375 c 0
 973.7265625 21.96484375 975.8984375 24.6806640625 975.8984375 38.2548828125 c 0x4300000020
EndSplineSet
EndChar

